M48
; DRILL file {KiCad (5.1.5-0-10_14)} date Sunday, April 26, 2020 at 12:32:55 PM
; FORMAT={-:-/ absolute / inch / decimal}
; #@! TF.CreationDate,2020-04-26T12:32:55-07:00
; #@! TF.GenerationSoftware,Kicad,Pcbnew,(5.1.5-0-10_14)
; #@! TF.FileFunction,Plated,1,2,PTH
FMAT,2
INCH
T1C0.0157
T2C0.0276
T3C0.0315
T4C0.0394
T5C0.0430
T6C0.0472
T7C0.0579
T8C0.0866
%
G90
G05
T1
X4.6476Y-1.9705
X7.628Y-1.3327
X7.628Y-1.4823
X8.1969Y-2.8937
X3.9043Y-2.0571
X3.9234Y-2.0112
X3.9234Y-2.103
X3.9693Y-1.9921
X3.9693Y-2.122
X4.0152Y-2.0112
X4.0152Y-2.103
X4.0343Y-2.0571
X11.3846Y-4.3012
X11.4037Y-4.2552
X11.4037Y-4.3471
X11.4496Y-4.2362
X11.4496Y-4.3661
X11.4955Y-4.2552
X11.4955Y-4.3471
X11.5146Y-4.3012
X10.6366Y-2.8051
X10.6556Y-2.7592
X10.6556Y-2.8511
X10.7016Y-2.7402
X10.7016Y-2.8701
X10.7475Y-2.7592
X10.7475Y-2.8511
X10.7665Y-2.8051
X7.6445Y-4.3012
X7.6635Y-4.2552
X7.6635Y-4.3471
X7.7094Y-4.2362
X7.7094Y-4.3661
X7.7554Y-4.2552
X7.7554Y-4.3471
X7.7744Y-4.3012
X3.9043Y-4.3012
X3.9234Y-4.2552
X3.9234Y-4.3471
X3.9693Y-4.2362
X3.9693Y-4.3661
X4.0152Y-4.2552
X4.0152Y-4.3471
X4.0343Y-4.3012
X6.124Y-2.0374
X6.143Y-1.9915
X6.143Y-2.0833
X6.189Y-1.9724
X6.189Y-2.1024
X6.2349Y-1.9915
X6.2349Y-2.0833
X6.2539Y-2.0374
X11.3846Y-2.0571
X11.4037Y-2.0112
X11.4037Y-2.103
X11.4496Y-1.9921
X11.4496Y-2.122
X11.4955Y-2.0112
X11.4955Y-2.103
X11.5146Y-2.0571
X9.1457Y-2.0669
X9.1647Y-2.021
X9.1647Y-2.1129
X9.2106Y-2.002
X9.2106Y-2.1319
X9.2566Y-2.021
X9.2566Y-2.1129
X9.2756Y-2.0669
X4.6524Y-2.8051
X4.6714Y-2.7592
X4.6714Y-2.8511
X4.7173Y-2.7402
X4.7173Y-2.8701
X4.7633Y-2.7592
X4.7633Y-2.8511
X4.7823Y-2.8051
X9.1406Y-4.3012
X9.1596Y-4.2552
X9.1596Y-4.3471
X9.2055Y-4.2362
X9.2055Y-4.3661
X9.2514Y-4.2552
X9.2514Y-4.3471
X9.2705Y-4.3012
X6.1484Y-4.3012
X6.1675Y-4.2552
X6.1675Y-4.3471
X6.2134Y-4.2362
X6.2134Y-4.3661
X6.2593Y-4.2552
X6.2593Y-4.3471
X6.2783Y-4.3012
T2
X4.6535Y-1.6594
X4.685Y-1.6122
X4.7165Y-1.6594
X4.748Y-1.6122
X4.7795Y-1.6594
T3
X4.7165Y-2.0571
X4.7953Y-2.0571
X4.874Y-2.0571
X4.9528Y-2.0571
T4
X6.7252Y-2.5531
X6.7252Y-2.8602
X5.3276Y-2.2776
X5.3276Y-2.5846
X4.0185Y-1.5295
X4.0185Y-1.8366
X5.4161Y-3.0256
X5.4161Y-3.3327
X9.7173Y-2.2776
X9.7173Y-2.5846
X11.4988Y-1.5295
X11.4988Y-1.8366
X3.9201Y-1.5295
X3.9201Y-1.8366
X10.0028Y-4.5217
X10.0028Y-4.8287
X9.9043Y-4.5217
X9.9043Y-4.8287
X6.9122Y-4.2421
X6.9122Y-4.5492
X11.4004Y-1.5295
X11.4004Y-1.8366
X10.0913Y-3.7736
X10.0913Y-4.0807
X5.4161Y-1.5295
X5.4161Y-1.8366
X10.0028Y-1.5295
X10.0028Y-1.8366
X11.4004Y-4.5217
X11.4004Y-4.8287
X8.5067Y-4.2421
X8.5067Y-4.5492
X3.9201Y-4.5217
X3.9201Y-4.8287
X4.1071Y-3.7736
X4.1071Y-4.0807
X9.9043Y-1.5295
X9.9043Y-1.8366
X10.1898Y-3.7736
X10.1898Y-4.0807
X8.5953Y-3.7736
X8.5953Y-4.0807
X8.4083Y-4.2421
X8.4083Y-4.5492
X5.5146Y-4.5217
X5.5146Y-4.8287
X7.0106Y-3.0256
X7.0106Y-3.3327
X11.4988Y-4.5217
X11.4988Y-4.8287
X11.4988Y-3.0256
X11.4988Y-3.3327
X8.5067Y-1.5295
X8.5067Y-1.8366
X8.5067Y-3.0256
X8.5067Y-3.3327
X3.9201Y-3.0256
X3.9201Y-3.3327
X7.0106Y-4.2421
X7.0106Y-4.5492
X4.2055Y-3.7736
X4.2055Y-4.0807
X6.9122Y-3.0256
X6.9122Y-3.3327
X9.8157Y-2.2776
X9.8157Y-2.5846
X11.4004Y-3.0256
X11.4004Y-3.3327
X8.6937Y-3.7736
X8.6937Y-4.0807
X8.4083Y-3.0256
X8.4083Y-3.3327
X10.0028Y-3.0256
X10.0028Y-3.3327
X7.0106Y-1.5295
X7.0106Y-1.8366
X4.0185Y-3.0256
X4.0185Y-3.3327
X11.2134Y-2.2776
X11.2134Y-2.5846
X9.9043Y-3.0256
X9.9043Y-3.3327
X6.9122Y-1.5295
X6.9122Y-1.8366
X7.1976Y-3.7736
X7.1976Y-4.0807
X8.9693Y-2.2776
X8.9693Y-2.5846
X8.4083Y-1.5295
X8.4083Y-1.8366
X5.5146Y-1.5295
X5.5146Y-1.8366
X7.0992Y-3.7736
X7.0992Y-4.0807
X11.3118Y-2.2776
X11.3118Y-2.5846
X5.5146Y-3.0256
X5.5146Y-3.3327
X5.7016Y-3.7736
X5.7016Y-4.0807
X4.0185Y-4.5217
X4.0185Y-4.8287
X5.2291Y-2.2776
X5.2291Y-2.5846
X9.0677Y-2.2776
X9.0677Y-2.5846
X11.5874Y-3.7736
X11.5874Y-4.0807
X11.6858Y-3.7736
X11.6858Y-4.0807
X5.6031Y-3.7736
X5.6031Y-4.0807
X3.8315Y-2.2776
X3.8315Y-2.5846
X6.8236Y-2.5531
X6.8236Y-2.8602
X5.4161Y-4.5217
X5.4161Y-4.8287
X3.7331Y-2.2776
X3.7331Y-2.5846
T5
X7.122Y-2.0075
X7.222Y-2.0075
X7.322Y-2.0075
X7.422Y-2.0075
X7.522Y-2.0075
X7.522Y-2.8075
X7.622Y-2.0075
X7.622Y-2.8075
X7.722Y-2.0075
X7.722Y-2.8075
X7.822Y-2.0075
X7.822Y-2.8075
X7.922Y-2.0075
X7.922Y-2.8075
X8.022Y-2.0075
X8.022Y-2.8075
X8.122Y-2.0075
X8.122Y-2.8075
X8.222Y-2.0075
X8.222Y-2.8075
X8.322Y-2.0075
X8.322Y-2.8075
X8.422Y-2.0075
X8.422Y-2.8075
X8.522Y-2.0075
X8.522Y-2.8075
X8.622Y-2.0075
X8.622Y-2.8075
X7.5465Y-2.1075
X7.5465Y-2.7075
X7.6465Y-2.1075
X7.6465Y-2.7075
X7.7465Y-2.1075
X7.7465Y-2.7075
X7.8465Y-2.1075
X7.8465Y-2.7075
X7.9465Y-2.1075
X7.9465Y-2.7075
X8.0465Y-2.1075
X8.0465Y-2.7075
X8.1465Y-2.1075
X8.1465Y-2.7075
X8.2465Y-2.1075
X8.2465Y-2.7075
X8.3465Y-2.1075
X8.3465Y-2.7075
X8.4465Y-2.1075
X8.4465Y-2.7075
X8.5465Y-2.1075
X8.5465Y-2.7075
X8.6465Y-2.1075
X8.6465Y-2.7075
T6
X3.5953Y-2.9469
X3.7921Y-3.0295
X4.3433Y-2.9469
X4.5402Y-3.0295
X11.2626Y-3.6949
X11.4594Y-3.7776
X11.8236Y-1.4508
X12.0205Y-1.5335
X3.4083Y-2.1988
X3.6051Y-2.2815
X4.1563Y-2.1988
X4.3531Y-2.2815
X8.2618Y-4.8248
X8.4587Y-4.9075
X10.5146Y-3.6949
X10.7114Y-3.7776
X8.6445Y-2.1988
X8.8413Y-2.2815
X9.5795Y-1.4508
X9.7764Y-1.5335
X5.8394Y-2.9469
X6.0362Y-3.0295
X6.5874Y-2.9469
X6.7843Y-3.0295
X7.3354Y-2.9469
X7.5323Y-3.0295
X9.0185Y-3.6949
X9.2154Y-3.7776
X7.5224Y-3.6949
X7.7193Y-3.7776
X5.0913Y-4.4429
X5.2882Y-4.5256
X5.8394Y-4.4429
X6.0362Y-4.5256
X6.5874Y-4.4429
X6.7843Y-4.5256
X5.8394Y-1.4508
X6.0362Y-1.5335
X8.0835Y-1.4508
X8.2803Y-1.5335
X8.8315Y-1.4508
X9.0283Y-1.5335
X3.7823Y-3.6949
X3.9791Y-3.7776
X4.5303Y-3.6949
X4.7272Y-3.7776
X12.0106Y-3.6949
X12.2075Y-3.7776
X10.3276Y-2.9469
X10.5244Y-3.0295
X8.2705Y-3.6949
X8.4673Y-3.7776
X11.0756Y-1.4508
X11.2724Y-1.5335
X9.5795Y-2.9469
X9.7764Y-3.0295
X4.3433Y-1.4508
X4.5402Y-1.5335
X5.0913Y-1.4508
X5.2882Y-1.5335
X6.5874Y-1.4508
X6.7843Y-1.5335
X7.3354Y-1.4508
X7.5323Y-1.5335
X4.3433Y-4.4429
X4.5402Y-4.5256
X6.4004Y-2.1988
X6.5972Y-2.2815
X11.8236Y-2.9469
X12.0205Y-3.0295
X8.8315Y-2.9469
X9.0283Y-3.0295
X5.0913Y-2.9469
X5.2882Y-3.0295
X4.9043Y-2.1988
X5.1012Y-2.2815
X5.6524Y-2.1988
X5.8492Y-2.2815
X5.2783Y-3.6949
X5.4752Y-3.7776
X6.7744Y-3.6949
X6.9713Y-3.7776
X11.0756Y-2.9469
X11.2724Y-3.0295
X9.7665Y-3.6949
X9.9634Y-3.7776
X3.5953Y-4.4429
X3.7921Y-4.5256
X7.1484Y-2.1988
X7.3453Y-2.2815
X7.8965Y-2.1988
X8.0933Y-2.2815
X7.5118Y-4.8248
X7.7087Y-4.9075
X8.0835Y-2.9469
X8.2803Y-3.0295
X6.7657Y-4.8248
X6.9626Y-4.9075
X10.8886Y-2.1988
X11.0854Y-2.2815
X11.6366Y-2.1988
X11.8335Y-2.2815
X6.0264Y-3.6949
X6.2232Y-3.7776
X3.5953Y-1.4508
X3.7921Y-1.5335
X10.3276Y-1.4508
X10.5244Y-1.5335
X9.3925Y-2.1988
X9.5894Y-2.2815
X10.1406Y-2.1988
X10.3374Y-2.2815
X10.3276Y-4.4429
X10.5244Y-4.5256
X11.0756Y-4.4429
X11.2724Y-4.5256
X11.8236Y-4.4429
X12.0205Y-4.5256
X7.3354Y-4.4429
X7.5323Y-4.5256
X8.0835Y-4.4429
X8.2803Y-4.5256
X8.8315Y-4.4429
X9.0283Y-4.5256
X9.5795Y-4.4429
X9.7764Y-4.5256
T7
X3.4453Y-3.0791
X3.4969Y-3.0217
X3.6937Y-3.002
X3.6953Y-2.9791
X4.1933Y-3.0791
X4.2449Y-3.0217
X4.4417Y-3.002
X4.4433Y-2.9791
X11.1126Y-3.8272
X11.1642Y-3.7697
X11.361Y-3.75
X11.3626Y-3.7272
X11.6736Y-1.5831
X11.7252Y-1.5256
X11.922Y-1.5059
X11.9236Y-1.4831
X3.2583Y-2.3311
X3.3098Y-2.2736
X3.5067Y-2.2539
X3.5083Y-2.2311
X4.0063Y-2.3311
X4.0579Y-2.2736
X4.2547Y-2.2539
X4.2563Y-2.2311
X8.3587Y-4.8752
X8.3602Y-4.8524
X8.5571Y-4.8327
X8.6087Y-4.7752
X10.3646Y-3.8272
X10.4161Y-3.7697
X10.613Y-3.75
X10.6146Y-3.7272
X8.4945Y-2.3311
X8.5461Y-2.2736
X8.7429Y-2.2539
X8.7445Y-2.2311
X9.4295Y-1.5831
X9.4811Y-1.5256
X9.678Y-1.5059
X9.6795Y-1.4831
X5.6894Y-3.0791
X5.7409Y-3.0217
X5.9378Y-3.002
X5.9394Y-2.9791
X6.4374Y-3.0791
X6.489Y-3.0217
X6.6858Y-3.002
X6.6874Y-2.9791
X7.1854Y-3.0791
X7.237Y-3.0217
X7.4339Y-3.002
X7.4354Y-2.9791
X8.8685Y-3.8272
X8.9201Y-3.7697
X9.1169Y-3.75
X9.1185Y-3.7272
X7.3724Y-3.8272
X7.424Y-3.7697
X7.6209Y-3.75
X7.6224Y-3.7272
X4.9413Y-4.5752
X4.9929Y-4.5177
X5.1898Y-4.498
X5.1913Y-4.4752
X5.6894Y-4.5752
X5.7409Y-4.5177
X5.9378Y-4.498
X5.9394Y-4.4752
X6.4374Y-4.5752
X6.489Y-4.5177
X6.6858Y-4.498
X6.6874Y-4.4752
X5.6894Y-1.5831
X5.7409Y-1.5256
X5.9378Y-1.5059
X5.9394Y-1.4831
X7.9335Y-1.5831
X7.985Y-1.5256
X8.1819Y-1.5059
X8.1835Y-1.4831
X8.6815Y-1.5831
X8.7331Y-1.5256
X8.9299Y-1.5059
X8.9315Y-1.4831
X3.6323Y-3.8272
X3.6839Y-3.7697
X3.8807Y-3.75
X3.8823Y-3.7272
X4.3803Y-3.8272
X4.4319Y-3.7697
X4.6287Y-3.75
X4.6303Y-3.7272
X11.8606Y-3.8272
X11.9122Y-3.7697
X12.1091Y-3.75
X12.1106Y-3.7272
X10.1776Y-3.0791
X10.2291Y-3.0217
X10.426Y-3.002
X10.4276Y-2.9791
X8.1205Y-3.8272
X8.172Y-3.7697
X8.3689Y-3.75
X8.3705Y-3.7272
X10.9256Y-1.5831
X10.9772Y-1.5256
X11.174Y-1.5059
X11.1756Y-1.4831
X9.4295Y-3.0791
X9.4811Y-3.0217
X9.678Y-3.002
X9.6795Y-2.9791
X4.1933Y-1.5831
X4.2449Y-1.5256
X4.4417Y-1.5059
X4.4433Y-1.4831
X4.9413Y-1.5831
X4.9929Y-1.5256
X5.1898Y-1.5059
X5.1913Y-1.4831
X6.4374Y-1.5831
X6.489Y-1.5256
X6.6858Y-1.5059
X6.6874Y-1.4831
X7.1854Y-1.5831
X7.237Y-1.5256
X7.4339Y-1.5059
X7.4354Y-1.4831
X4.1933Y-4.5752
X4.2449Y-4.5177
X4.4417Y-4.498
X4.4433Y-4.4752
X6.2504Y-2.3311
X6.302Y-2.2736
X6.4988Y-2.2539
X6.5004Y-2.2311
X11.6736Y-3.0791
X11.7252Y-3.0217
X11.922Y-3.002
X11.9236Y-2.9791
X8.6815Y-3.0791
X8.7331Y-3.0217
X8.9299Y-3.002
X8.9315Y-2.9791
X4.9413Y-3.0791
X4.9929Y-3.0217
X5.1898Y-3.002
X5.1913Y-2.9791
X4.7543Y-2.3311
X4.8059Y-2.2736
X5.0028Y-2.2539
X5.0043Y-2.2311
X5.5024Y-2.3311
X5.5539Y-2.2736
X5.7508Y-2.2539
X5.7524Y-2.2311
X5.1283Y-3.8272
X5.1799Y-3.7697
X5.3768Y-3.75
X5.3783Y-3.7272
X6.6244Y-3.8272
X6.676Y-3.7697
X6.8728Y-3.75
X6.8744Y-3.7272
X10.9256Y-3.0791
X10.9772Y-3.0217
X11.174Y-3.002
X11.1756Y-2.9791
X9.6165Y-3.8272
X9.6681Y-3.7697
X9.865Y-3.75
X9.8665Y-3.7272
X3.4453Y-4.5752
X3.4969Y-4.5177
X3.6937Y-4.498
X3.6953Y-4.4752
X6.9984Y-2.3311
X7.05Y-2.2736
X7.2469Y-2.2539
X7.2484Y-2.2311
X7.7465Y-2.3311
X7.798Y-2.2736
X7.9949Y-2.2539
X7.9965Y-2.2311
X7.6087Y-4.8752
X7.6102Y-4.8524
X7.8071Y-4.8327
X7.8587Y-4.7752
X7.9335Y-3.0791
X7.985Y-3.0217
X8.1819Y-3.002
X8.1835Y-2.9791
X6.8626Y-4.8752
X6.8642Y-4.8524
X7.061Y-4.8327
X7.1126Y-4.7752
X10.7386Y-2.3311
X10.7902Y-2.2736
X10.987Y-2.2539
X10.9886Y-2.2311
X11.4866Y-2.3311
X11.5382Y-2.2736
X11.735Y-2.2539
X11.7366Y-2.2311
X5.8764Y-3.8272
X5.928Y-3.7697
X6.1248Y-3.75
X6.1264Y-3.7272
X3.4453Y-1.5831
X3.4969Y-1.5256
X3.6937Y-1.5059
X3.6953Y-1.4831
X10.1776Y-1.5831
X10.2291Y-1.5256
X10.426Y-1.5059
X10.4276Y-1.4831
X9.2425Y-2.3311
X9.2941Y-2.2736
X9.4909Y-2.2539
X9.4925Y-2.2311
X9.9906Y-2.3311
X10.0421Y-2.2736
X10.239Y-2.2539
X10.2406Y-2.2311
X10.1776Y-4.5752
X10.2291Y-4.5177
X10.426Y-4.498
X10.4276Y-4.4752
X10.9256Y-4.5752
X10.9772Y-4.5177
X11.174Y-4.498
X11.1756Y-4.4752
X11.6736Y-4.5752
X11.7252Y-4.5177
X11.922Y-4.498
X11.9236Y-4.4752
X7.1854Y-4.5752
X7.237Y-4.5177
X7.4339Y-4.498
X7.4354Y-4.4752
X7.9335Y-4.5752
X7.985Y-4.5177
X8.1819Y-4.498
X8.1835Y-4.4752
X8.6815Y-4.5752
X8.7331Y-4.5177
X8.9299Y-4.498
X8.9315Y-4.4752
X9.4295Y-4.5752
X9.4811Y-4.5177
X9.678Y-4.498
X9.6795Y-4.4752
T8
X11.4496Y-4.3012
X7.7094Y-4.3012
X3.9693Y-4.3012
X9.2106Y-2.0669
X4.7173Y-2.8051
X9.2055Y-4.3012
X3.9693Y-2.0571
X10.7016Y-2.8051
X6.189Y-2.0374
X11.4496Y-2.0571
X6.2134Y-4.3012
T3
G00X4.5728Y-1.4323
M15
G01X4.5728Y-1.4598
M16
G05
G00X4.5728Y-1.622
M15
G01X4.5728Y-1.6496
M16
G05
G00X4.8602Y-1.4323
M15
G01X4.8602Y-1.4598
M16
G05
G00X4.8602Y-1.622
M15
G01X4.8602Y-1.6496
M16
G05
T0
M30
