G04 #@! TF.GenerationSoftware,KiCad,Pcbnew,(5.1.5-0-10_14)*
G04 #@! TF.CreationDate,2020-04-26T12:32:38-07:00*
G04 #@! TF.ProjectId,BRZ60_BLE_0.1,42525a36-305f-4424-9c45-5f302e312e6b,rev?*
G04 #@! TF.SameCoordinates,Original*
G04 #@! TF.FileFunction,Legend,Top*
G04 #@! TF.FilePolarity,Positive*
%FSLAX46Y46*%
G04 Gerber Fmt 4.6, Leading zero omitted, Abs format (unit mm)*
G04 Created by KiCad (PCBNEW (5.1.5-0-10_14)) date 2020-04-26 12:32:38*
%MOMM*%
%LPD*%
G04 APERTURE LIST*
%ADD10C,0.120000*%
%ADD11C,0.300000*%
G04 APERTURE END LIST*
D10*
X174885714Y-122167858D02*
X174971428Y-122196429D01*
X175114285Y-122196429D01*
X175171428Y-122167858D01*
X175200000Y-122139286D01*
X175228571Y-122082143D01*
X175228571Y-122025001D01*
X175200000Y-121967858D01*
X175171428Y-121939286D01*
X175114285Y-121910715D01*
X175000000Y-121882143D01*
X174942857Y-121853572D01*
X174914285Y-121825001D01*
X174885714Y-121767858D01*
X174885714Y-121710715D01*
X174914285Y-121653572D01*
X174942857Y-121625001D01*
X175000000Y-121596429D01*
X175142857Y-121596429D01*
X175228571Y-121625001D01*
X175428571Y-121596429D02*
X175571428Y-122196429D01*
X175685714Y-121767858D01*
X175800000Y-122196429D01*
X175942857Y-121596429D01*
X176457142Y-121596429D02*
X176171428Y-121596429D01*
X176142857Y-121882143D01*
X176171428Y-121853572D01*
X176228571Y-121825001D01*
X176371428Y-121825001D01*
X176428571Y-121853572D01*
X176457142Y-121882143D01*
X176485714Y-121939286D01*
X176485714Y-122082143D01*
X176457142Y-122139286D01*
X176428571Y-122167858D01*
X176371428Y-122196429D01*
X176228571Y-122196429D01*
X176171428Y-122167858D01*
X176142857Y-122139286D01*
X176714285Y-121653572D02*
X176742857Y-121625001D01*
X176800000Y-121596429D01*
X176942857Y-121596429D01*
X177000000Y-121625001D01*
X177028571Y-121653572D01*
X177057142Y-121710715D01*
X177057142Y-121767858D01*
X177028571Y-121853572D01*
X176685714Y-122196429D01*
X177057142Y-122196429D01*
X177742857Y-121653572D02*
X177771428Y-121625001D01*
X177828571Y-121596429D01*
X177971428Y-121596429D01*
X178028571Y-121625001D01*
X178057142Y-121653572D01*
X178085714Y-121710715D01*
X178085714Y-121767858D01*
X178057142Y-121853572D01*
X177714285Y-122196429D01*
X178085714Y-122196429D01*
X178342857Y-121596429D02*
X178342857Y-122082143D01*
X178371428Y-122139286D01*
X178400000Y-122167858D01*
X178457142Y-122196429D01*
X178571428Y-122196429D01*
X178628571Y-122167858D01*
X178657142Y-122139286D01*
X178685714Y-122082143D01*
X178685714Y-121596429D01*
D11*
X82542857Y-92957142D02*
X82828571Y-93052380D01*
X82923809Y-93147619D01*
X83019047Y-93338095D01*
X83019047Y-93623809D01*
X82923809Y-93814285D01*
X82828571Y-93909523D01*
X82638095Y-94004761D01*
X81876190Y-94004761D01*
X81876190Y-92004761D01*
X82542857Y-92004761D01*
X82733333Y-92100000D01*
X82828571Y-92195238D01*
X82923809Y-92385714D01*
X82923809Y-92576190D01*
X82828571Y-92766666D01*
X82733333Y-92861904D01*
X82542857Y-92957142D01*
X81876190Y-92957142D01*
X83019047Y-97304761D02*
X82352380Y-96352380D01*
X81876190Y-97304761D02*
X81876190Y-95304761D01*
X82638095Y-95304761D01*
X82828571Y-95400000D01*
X82923809Y-95495238D01*
X83019047Y-95685714D01*
X83019047Y-95971428D01*
X82923809Y-96161904D01*
X82828571Y-96257142D01*
X82638095Y-96352380D01*
X81876190Y-96352380D01*
X81733333Y-98604761D02*
X83066666Y-98604761D01*
X81733333Y-100604761D01*
X83066666Y-100604761D01*
X82780952Y-101904761D02*
X82400000Y-101904761D01*
X82209523Y-102000000D01*
X82114285Y-102095238D01*
X81923809Y-102380952D01*
X81828571Y-102761904D01*
X81828571Y-103523809D01*
X81923809Y-103714285D01*
X82019047Y-103809523D01*
X82209523Y-103904761D01*
X82590476Y-103904761D01*
X82780952Y-103809523D01*
X82876190Y-103714285D01*
X82971428Y-103523809D01*
X82971428Y-103047619D01*
X82876190Y-102857142D01*
X82780952Y-102761904D01*
X82590476Y-102666666D01*
X82209523Y-102666666D01*
X82019047Y-102761904D01*
X81923809Y-102857142D01*
X81828571Y-103047619D01*
X82304761Y-105204761D02*
X82495238Y-105204761D01*
X82685714Y-105300000D01*
X82780952Y-105395238D01*
X82876190Y-105585714D01*
X82971428Y-105966666D01*
X82971428Y-106442857D01*
X82876190Y-106823809D01*
X82780952Y-107014285D01*
X82685714Y-107109523D01*
X82495238Y-107204761D01*
X82304761Y-107204761D01*
X82114285Y-107109523D01*
X82019047Y-107014285D01*
X81923809Y-106823809D01*
X81828571Y-106442857D01*
X81828571Y-105966666D01*
X81923809Y-105585714D01*
X82019047Y-105395238D01*
X82114285Y-105300000D01*
X82304761Y-105204761D01*
D10*
X212935714Y-122167858D02*
X213021428Y-122196429D01*
X213164285Y-122196429D01*
X213221428Y-122167858D01*
X213250000Y-122139286D01*
X213278571Y-122082143D01*
X213278571Y-122025001D01*
X213250000Y-121967858D01*
X213221428Y-121939286D01*
X213164285Y-121910715D01*
X213050000Y-121882143D01*
X212992857Y-121853572D01*
X212964285Y-121825001D01*
X212935714Y-121767858D01*
X212935714Y-121710715D01*
X212964285Y-121653572D01*
X212992857Y-121625001D01*
X213050000Y-121596429D01*
X213192857Y-121596429D01*
X213278571Y-121625001D01*
X213478571Y-121596429D02*
X213621428Y-122196429D01*
X213735714Y-121767858D01*
X213850000Y-122196429D01*
X213992857Y-121596429D01*
X214507142Y-121596429D02*
X214221428Y-121596429D01*
X214192857Y-121882143D01*
X214221428Y-121853572D01*
X214278571Y-121825001D01*
X214421428Y-121825001D01*
X214478571Y-121853572D01*
X214507142Y-121882143D01*
X214535714Y-121939286D01*
X214535714Y-122082143D01*
X214507142Y-122139286D01*
X214478571Y-122167858D01*
X214421428Y-122196429D01*
X214278571Y-122196429D01*
X214221428Y-122167858D01*
X214192857Y-122139286D01*
X215050000Y-121796429D02*
X215050000Y-122196429D01*
X214907142Y-121567858D02*
X214764285Y-121996429D01*
X215135714Y-121996429D01*
X215792857Y-121653572D02*
X215821428Y-121625001D01*
X215878571Y-121596429D01*
X216021428Y-121596429D01*
X216078571Y-121625001D01*
X216107142Y-121653572D01*
X216135714Y-121710715D01*
X216135714Y-121767858D01*
X216107142Y-121853572D01*
X215764285Y-122196429D01*
X216135714Y-122196429D01*
X216392857Y-121596429D02*
X216392857Y-122082143D01*
X216421428Y-122139286D01*
X216450000Y-122167858D01*
X216507142Y-122196429D01*
X216621428Y-122196429D01*
X216678571Y-122167858D01*
X216707142Y-122139286D01*
X216735714Y-122082143D01*
X216735714Y-121596429D01*
X193885714Y-122167858D02*
X193971428Y-122196429D01*
X194114285Y-122196429D01*
X194171428Y-122167858D01*
X194200000Y-122139286D01*
X194228571Y-122082143D01*
X194228571Y-122025001D01*
X194200000Y-121967858D01*
X194171428Y-121939286D01*
X194114285Y-121910715D01*
X194000000Y-121882143D01*
X193942857Y-121853572D01*
X193914285Y-121825001D01*
X193885714Y-121767858D01*
X193885714Y-121710715D01*
X193914285Y-121653572D01*
X193942857Y-121625001D01*
X194000000Y-121596429D01*
X194142857Y-121596429D01*
X194228571Y-121625001D01*
X194428571Y-121596429D02*
X194571428Y-122196429D01*
X194685714Y-121767858D01*
X194800000Y-122196429D01*
X194942857Y-121596429D01*
X195457142Y-121596429D02*
X195171428Y-121596429D01*
X195142857Y-121882143D01*
X195171428Y-121853572D01*
X195228571Y-121825001D01*
X195371428Y-121825001D01*
X195428571Y-121853572D01*
X195457142Y-121882143D01*
X195485714Y-121939286D01*
X195485714Y-122082143D01*
X195457142Y-122139286D01*
X195428571Y-122167858D01*
X195371428Y-122196429D01*
X195228571Y-122196429D01*
X195171428Y-122167858D01*
X195142857Y-122139286D01*
X195685714Y-121596429D02*
X196057142Y-121596429D01*
X195857142Y-121825001D01*
X195942857Y-121825001D01*
X196000000Y-121853572D01*
X196028571Y-121882143D01*
X196057142Y-121939286D01*
X196057142Y-122082143D01*
X196028571Y-122139286D01*
X196000000Y-122167858D01*
X195942857Y-122196429D01*
X195771428Y-122196429D01*
X195714285Y-122167858D01*
X195685714Y-122139286D01*
X196742857Y-121653572D02*
X196771428Y-121625001D01*
X196828571Y-121596429D01*
X196971428Y-121596429D01*
X197028571Y-121625001D01*
X197057142Y-121653572D01*
X197085714Y-121710715D01*
X197085714Y-121767858D01*
X197057142Y-121853572D01*
X196714285Y-122196429D01*
X197085714Y-122196429D01*
X197342857Y-121596429D02*
X197342857Y-122082143D01*
X197371428Y-122139286D01*
X197400000Y-122167858D01*
X197457142Y-122196429D01*
X197571428Y-122196429D01*
X197628571Y-122167858D01*
X197657142Y-122139286D01*
X197685714Y-122082143D01*
X197685714Y-121596429D01*
X191017142Y-74292857D02*
X191045714Y-74207142D01*
X191074285Y-74178571D01*
X191131428Y-74150000D01*
X191217142Y-74150000D01*
X191274285Y-74178571D01*
X191302857Y-74207142D01*
X191331428Y-74264285D01*
X191331428Y-74492857D01*
X190731428Y-74492857D01*
X190731428Y-74292857D01*
X190760000Y-74235714D01*
X190788571Y-74207142D01*
X190845714Y-74178571D01*
X190902857Y-74178571D01*
X190960000Y-74207142D01*
X190988571Y-74235714D01*
X191017142Y-74292857D01*
X191017142Y-74492857D01*
X191160000Y-73921428D02*
X191160000Y-73635714D01*
X191331428Y-73978571D02*
X190731428Y-73778571D01*
X191331428Y-73578571D01*
X190731428Y-73464285D02*
X190731428Y-73121428D01*
X191331428Y-73292857D02*
X190731428Y-73292857D01*
X193557142Y-74250000D02*
X193557142Y-74050000D01*
X193871428Y-73964285D02*
X193871428Y-74250000D01*
X193271428Y-74250000D01*
X193271428Y-73964285D01*
X193471428Y-73707142D02*
X193871428Y-73707142D01*
X193528571Y-73707142D02*
X193500000Y-73678571D01*
X193471428Y-73621428D01*
X193471428Y-73535714D01*
X193500000Y-73478571D01*
X193557142Y-73450000D01*
X193871428Y-73450000D01*
X195811428Y-74607142D02*
X196297142Y-74607142D01*
X196354285Y-74578571D01*
X196382857Y-74550000D01*
X196411428Y-74492857D01*
X196411428Y-74378571D01*
X196382857Y-74321428D01*
X196354285Y-74292857D01*
X196297142Y-74264285D01*
X195811428Y-74264285D01*
X196382857Y-74007142D02*
X196411428Y-73921428D01*
X196411428Y-73778571D01*
X196382857Y-73721428D01*
X196354285Y-73692857D01*
X196297142Y-73664285D01*
X196240000Y-73664285D01*
X196182857Y-73692857D01*
X196154285Y-73721428D01*
X196125714Y-73778571D01*
X196097142Y-73892857D01*
X196068571Y-73950000D01*
X196040000Y-73978571D01*
X195982857Y-74007142D01*
X195925714Y-74007142D01*
X195868571Y-73978571D01*
X195840000Y-73950000D01*
X195811428Y-73892857D01*
X195811428Y-73750000D01*
X195840000Y-73664285D01*
X196097142Y-73207142D02*
X196125714Y-73121428D01*
X196154285Y-73092857D01*
X196211428Y-73064285D01*
X196297142Y-73064285D01*
X196354285Y-73092857D01*
X196382857Y-73121428D01*
X196411428Y-73178571D01*
X196411428Y-73407142D01*
X195811428Y-73407142D01*
X195811428Y-73207142D01*
X195840000Y-73150000D01*
X195868571Y-73121428D01*
X195925714Y-73092857D01*
X195982857Y-73092857D01*
X196040000Y-73121428D01*
X196068571Y-73150000D01*
X196097142Y-73207142D01*
X196097142Y-73407142D01*
X198951428Y-73964285D02*
X198951428Y-74307142D01*
X198951428Y-74135714D02*
X198351428Y-74135714D01*
X198437142Y-74192857D01*
X198494285Y-74250000D01*
X198522857Y-74307142D01*
X198351428Y-73764285D02*
X198351428Y-73392857D01*
X198580000Y-73592857D01*
X198580000Y-73507142D01*
X198608571Y-73450000D01*
X198637142Y-73421428D01*
X198694285Y-73392857D01*
X198837142Y-73392857D01*
X198894285Y-73421428D01*
X198922857Y-73450000D01*
X198951428Y-73507142D01*
X198951428Y-73678571D01*
X198922857Y-73735714D01*
X198894285Y-73764285D01*
X201491428Y-73964285D02*
X201491428Y-74307142D01*
X201491428Y-74135714D02*
X200891428Y-74135714D01*
X200977142Y-74192857D01*
X201034285Y-74250000D01*
X201062857Y-74307142D01*
X200948571Y-73735714D02*
X200920000Y-73707142D01*
X200891428Y-73650000D01*
X200891428Y-73507142D01*
X200920000Y-73450000D01*
X200948571Y-73421428D01*
X201005714Y-73392857D01*
X201062857Y-73392857D01*
X201148571Y-73421428D01*
X201491428Y-73764285D01*
X201491428Y-73392857D01*
X204031428Y-73964285D02*
X204031428Y-74307142D01*
X204031428Y-74135714D02*
X203431428Y-74135714D01*
X203517142Y-74192857D01*
X203574285Y-74250000D01*
X203602857Y-74307142D01*
X204031428Y-73392857D02*
X204031428Y-73735714D01*
X204031428Y-73564285D02*
X203431428Y-73564285D01*
X203517142Y-73621428D01*
X203574285Y-73678571D01*
X203602857Y-73735714D01*
X206571428Y-73964285D02*
X206571428Y-74307142D01*
X206571428Y-74135714D02*
X205971428Y-74135714D01*
X206057142Y-74192857D01*
X206114285Y-74250000D01*
X206142857Y-74307142D01*
X205971428Y-73592857D02*
X205971428Y-73535714D01*
X206000000Y-73478571D01*
X206028571Y-73450000D01*
X206085714Y-73421428D01*
X206200000Y-73392857D01*
X206342857Y-73392857D01*
X206457142Y-73421428D01*
X206514285Y-73450000D01*
X206542857Y-73478571D01*
X206571428Y-73535714D01*
X206571428Y-73592857D01*
X206542857Y-73650000D01*
X206514285Y-73678571D01*
X206457142Y-73707142D01*
X206342857Y-73735714D01*
X206200000Y-73735714D01*
X206085714Y-73707142D01*
X206028571Y-73678571D01*
X206000000Y-73650000D01*
X205971428Y-73592857D01*
X209111428Y-73964285D02*
X209111428Y-73850000D01*
X209082857Y-73792857D01*
X209054285Y-73764285D01*
X208968571Y-73707142D01*
X208854285Y-73678571D01*
X208625714Y-73678571D01*
X208568571Y-73707142D01*
X208540000Y-73735714D01*
X208511428Y-73792857D01*
X208511428Y-73907142D01*
X208540000Y-73964285D01*
X208568571Y-73992857D01*
X208625714Y-74021428D01*
X208768571Y-74021428D01*
X208825714Y-73992857D01*
X208854285Y-73964285D01*
X208882857Y-73907142D01*
X208882857Y-73792857D01*
X208854285Y-73735714D01*
X208825714Y-73707142D01*
X208768571Y-73678571D01*
X211051428Y-73735714D02*
X211051428Y-73850000D01*
X211080000Y-73907142D01*
X211108571Y-73935714D01*
X211194285Y-73992857D01*
X211308571Y-74021428D01*
X211537142Y-74021428D01*
X211594285Y-73992857D01*
X211622857Y-73964285D01*
X211651428Y-73907142D01*
X211651428Y-73792857D01*
X211622857Y-73735714D01*
X211594285Y-73707142D01*
X211537142Y-73678571D01*
X211394285Y-73678571D01*
X211337142Y-73707142D01*
X211308571Y-73735714D01*
X211280000Y-73792857D01*
X211280000Y-73907142D01*
X211308571Y-73964285D01*
X211337142Y-73992857D01*
X211394285Y-74021428D01*
X213591428Y-73707142D02*
X213591428Y-73992857D01*
X213877142Y-74021428D01*
X213848571Y-73992857D01*
X213820000Y-73935714D01*
X213820000Y-73792857D01*
X213848571Y-73735714D01*
X213877142Y-73707142D01*
X213934285Y-73678571D01*
X214077142Y-73678571D01*
X214134285Y-73707142D01*
X214162857Y-73735714D01*
X214191428Y-73792857D01*
X214191428Y-73935714D01*
X214162857Y-73992857D01*
X214134285Y-74021428D01*
X216702857Y-74564285D02*
X216731428Y-74478571D01*
X216731428Y-74335714D01*
X216702857Y-74278571D01*
X216674285Y-74250000D01*
X216617142Y-74221428D01*
X216560000Y-74221428D01*
X216502857Y-74250000D01*
X216474285Y-74278571D01*
X216445714Y-74335714D01*
X216417142Y-74450000D01*
X216388571Y-74507142D01*
X216360000Y-74535714D01*
X216302857Y-74564285D01*
X216245714Y-74564285D01*
X216188571Y-74535714D01*
X216160000Y-74507142D01*
X216131428Y-74450000D01*
X216131428Y-74307142D01*
X216160000Y-74221428D01*
X216674285Y-73621428D02*
X216702857Y-73650000D01*
X216731428Y-73735714D01*
X216731428Y-73792857D01*
X216702857Y-73878571D01*
X216645714Y-73935714D01*
X216588571Y-73964285D01*
X216474285Y-73992857D01*
X216388571Y-73992857D01*
X216274285Y-73964285D01*
X216217142Y-73935714D01*
X216160000Y-73878571D01*
X216131428Y-73792857D01*
X216131428Y-73735714D01*
X216160000Y-73650000D01*
X216188571Y-73621428D01*
X216731428Y-73078571D02*
X216731428Y-73364285D01*
X216131428Y-73364285D01*
X219242857Y-74578571D02*
X219271428Y-74492857D01*
X219271428Y-74350000D01*
X219242857Y-74292857D01*
X219214285Y-74264285D01*
X219157142Y-74235714D01*
X219100000Y-74235714D01*
X219042857Y-74264285D01*
X219014285Y-74292857D01*
X218985714Y-74350000D01*
X218957142Y-74464285D01*
X218928571Y-74521428D01*
X218900000Y-74550000D01*
X218842857Y-74578571D01*
X218785714Y-74578571D01*
X218728571Y-74550000D01*
X218700000Y-74521428D01*
X218671428Y-74464285D01*
X218671428Y-74321428D01*
X218700000Y-74235714D01*
X219271428Y-73978571D02*
X218671428Y-73978571D01*
X218671428Y-73835714D01*
X218700000Y-73750000D01*
X218757142Y-73692857D01*
X218814285Y-73664285D01*
X218928571Y-73635714D01*
X219014285Y-73635714D01*
X219128571Y-73664285D01*
X219185714Y-73692857D01*
X219242857Y-73750000D01*
X219271428Y-73835714D01*
X219271428Y-73978571D01*
X219100000Y-73407142D02*
X219100000Y-73121428D01*
X219271428Y-73464285D02*
X218671428Y-73264285D01*
X219271428Y-73064285D01*
X219271428Y-49178571D02*
X218671428Y-49178571D01*
X218671428Y-49035714D01*
X218700000Y-48950000D01*
X218757142Y-48892857D01*
X218814285Y-48864285D01*
X218928571Y-48835714D01*
X219014285Y-48835714D01*
X219128571Y-48864285D01*
X219185714Y-48892857D01*
X219242857Y-48950000D01*
X219271428Y-49035714D01*
X219271428Y-49178571D01*
X218957142Y-48378571D02*
X218957142Y-48578571D01*
X219271428Y-48578571D02*
X218671428Y-48578571D01*
X218671428Y-48292857D01*
X218671428Y-48064285D02*
X219157142Y-48064285D01*
X219214285Y-48035714D01*
X219242857Y-48007142D01*
X219271428Y-47950000D01*
X219271428Y-47835714D01*
X219242857Y-47778571D01*
X219214285Y-47750000D01*
X219157142Y-47721428D01*
X218671428Y-47721428D01*
X216731428Y-49021428D02*
X216731428Y-49364285D01*
X216731428Y-49192857D02*
X216131428Y-49192857D01*
X216217142Y-49250000D01*
X216274285Y-49307142D01*
X216302857Y-49364285D01*
X216131428Y-48392857D02*
X216131428Y-48050000D01*
X216731428Y-48221428D02*
X216131428Y-48221428D01*
X216131428Y-47907142D02*
X216731428Y-47507142D01*
X216131428Y-47507142D02*
X216731428Y-47907142D01*
X213591428Y-49292857D02*
X213591428Y-49235714D01*
X213620000Y-49178571D01*
X213648571Y-49150000D01*
X213705714Y-49121428D01*
X213820000Y-49092857D01*
X213962857Y-49092857D01*
X214077142Y-49121428D01*
X214134285Y-49150000D01*
X214162857Y-49178571D01*
X214191428Y-49235714D01*
X214191428Y-49292857D01*
X214162857Y-49350000D01*
X214134285Y-49378571D01*
X214077142Y-49407142D01*
X213962857Y-49435714D01*
X213820000Y-49435714D01*
X213705714Y-49407142D01*
X213648571Y-49378571D01*
X213620000Y-49350000D01*
X213591428Y-49292857D01*
X214191428Y-48035714D02*
X213905714Y-48235714D01*
X214191428Y-48378571D02*
X213591428Y-48378571D01*
X213591428Y-48150000D01*
X213620000Y-48092857D01*
X213648571Y-48064285D01*
X213705714Y-48035714D01*
X213791428Y-48035714D01*
X213848571Y-48064285D01*
X213877142Y-48092857D01*
X213905714Y-48150000D01*
X213905714Y-48378571D01*
X213591428Y-47835714D02*
X214191428Y-47435714D01*
X213591428Y-47435714D02*
X214191428Y-47835714D01*
X211651428Y-49392857D02*
X211051428Y-49392857D01*
X211480000Y-49192857D01*
X211051428Y-48992857D01*
X211651428Y-48992857D01*
X211651428Y-48707142D02*
X211051428Y-48707142D01*
X211622857Y-48450000D02*
X211651428Y-48364285D01*
X211651428Y-48221428D01*
X211622857Y-48164285D01*
X211594285Y-48135714D01*
X211537142Y-48107142D01*
X211480000Y-48107142D01*
X211422857Y-48135714D01*
X211394285Y-48164285D01*
X211365714Y-48221428D01*
X211337142Y-48335714D01*
X211308571Y-48392857D01*
X211280000Y-48421428D01*
X211222857Y-48450000D01*
X211165714Y-48450000D01*
X211108571Y-48421428D01*
X211080000Y-48392857D01*
X211051428Y-48335714D01*
X211051428Y-48192857D01*
X211080000Y-48107142D01*
X211051428Y-47735714D02*
X211051428Y-47621428D01*
X211080000Y-47564285D01*
X211137142Y-47507142D01*
X211251428Y-47478571D01*
X211451428Y-47478571D01*
X211565714Y-47507142D01*
X211622857Y-47564285D01*
X211651428Y-47621428D01*
X211651428Y-47735714D01*
X211622857Y-47792857D01*
X211565714Y-47850000D01*
X211451428Y-47878571D01*
X211251428Y-47878571D01*
X211137142Y-47850000D01*
X211080000Y-47792857D01*
X211051428Y-47735714D01*
X209111428Y-49392857D02*
X208511428Y-49392857D01*
X208940000Y-49192857D01*
X208511428Y-48992857D01*
X209111428Y-48992857D01*
X208511428Y-48592857D02*
X208511428Y-48478571D01*
X208540000Y-48421428D01*
X208597142Y-48364285D01*
X208711428Y-48335714D01*
X208911428Y-48335714D01*
X209025714Y-48364285D01*
X209082857Y-48421428D01*
X209111428Y-48478571D01*
X209111428Y-48592857D01*
X209082857Y-48650000D01*
X209025714Y-48707142D01*
X208911428Y-48735714D01*
X208711428Y-48735714D01*
X208597142Y-48707142D01*
X208540000Y-48650000D01*
X208511428Y-48592857D01*
X209082857Y-48107142D02*
X209111428Y-48021428D01*
X209111428Y-47878571D01*
X209082857Y-47821428D01*
X209054285Y-47792857D01*
X208997142Y-47764285D01*
X208940000Y-47764285D01*
X208882857Y-47792857D01*
X208854285Y-47821428D01*
X208825714Y-47878571D01*
X208797142Y-47992857D01*
X208768571Y-48050000D01*
X208740000Y-48078571D01*
X208682857Y-48107142D01*
X208625714Y-48107142D01*
X208568571Y-48078571D01*
X208540000Y-48050000D01*
X208511428Y-47992857D01*
X208511428Y-47850000D01*
X208540000Y-47764285D01*
X209111428Y-47507142D02*
X208511428Y-47507142D01*
X206542857Y-49221428D02*
X206571428Y-49135714D01*
X206571428Y-48992857D01*
X206542857Y-48935714D01*
X206514285Y-48907142D01*
X206457142Y-48878571D01*
X206400000Y-48878571D01*
X206342857Y-48907142D01*
X206314285Y-48935714D01*
X206285714Y-48992857D01*
X206257142Y-49107142D01*
X206228571Y-49164285D01*
X206200000Y-49192857D01*
X206142857Y-49221428D01*
X206085714Y-49221428D01*
X206028571Y-49192857D01*
X206000000Y-49164285D01*
X205971428Y-49107142D01*
X205971428Y-48964285D01*
X206000000Y-48878571D01*
X206514285Y-48278571D02*
X206542857Y-48307142D01*
X206571428Y-48392857D01*
X206571428Y-48450000D01*
X206542857Y-48535714D01*
X206485714Y-48592857D01*
X206428571Y-48621428D01*
X206314285Y-48650000D01*
X206228571Y-48650000D01*
X206114285Y-48621428D01*
X206057142Y-48592857D01*
X206000000Y-48535714D01*
X205971428Y-48450000D01*
X205971428Y-48392857D01*
X206000000Y-48307142D01*
X206028571Y-48278571D01*
X206571428Y-48021428D02*
X205971428Y-48021428D01*
X206571428Y-47678571D02*
X206228571Y-47935714D01*
X205971428Y-47678571D02*
X206314285Y-48021428D01*
X203860000Y-48878571D02*
X203860000Y-48592857D01*
X204031428Y-48935714D02*
X203431428Y-48735714D01*
X204031428Y-48535714D01*
X203431428Y-48050000D02*
X203431428Y-48335714D01*
X203717142Y-48364285D01*
X203688571Y-48335714D01*
X203660000Y-48278571D01*
X203660000Y-48135714D01*
X203688571Y-48078571D01*
X203717142Y-48050000D01*
X203774285Y-48021428D01*
X203917142Y-48021428D01*
X203974285Y-48050000D01*
X204002857Y-48078571D01*
X204031428Y-48135714D01*
X204031428Y-48278571D01*
X204002857Y-48335714D01*
X203974285Y-48364285D01*
X201320000Y-48878571D02*
X201320000Y-48592857D01*
X201491428Y-48935714D02*
X200891428Y-48735714D01*
X201491428Y-48535714D01*
X201091428Y-48078571D02*
X201491428Y-48078571D01*
X200862857Y-48221428D02*
X201291428Y-48364285D01*
X201291428Y-47992857D01*
X198780000Y-48878571D02*
X198780000Y-48592857D01*
X198951428Y-48935714D02*
X198351428Y-48735714D01*
X198951428Y-48535714D01*
X198351428Y-48392857D02*
X198351428Y-48021428D01*
X198580000Y-48221428D01*
X198580000Y-48135714D01*
X198608571Y-48078571D01*
X198637142Y-48050000D01*
X198694285Y-48021428D01*
X198837142Y-48021428D01*
X198894285Y-48050000D01*
X198922857Y-48078571D01*
X198951428Y-48135714D01*
X198951428Y-48307142D01*
X198922857Y-48364285D01*
X198894285Y-48392857D01*
X196240000Y-48878571D02*
X196240000Y-48592857D01*
X196411428Y-48935714D02*
X195811428Y-48735714D01*
X196411428Y-48535714D01*
X195868571Y-48364285D02*
X195840000Y-48335714D01*
X195811428Y-48278571D01*
X195811428Y-48135714D01*
X195840000Y-48078571D01*
X195868571Y-48050000D01*
X195925714Y-48021428D01*
X195982857Y-48021428D01*
X196068571Y-48050000D01*
X196411428Y-48392857D01*
X196411428Y-48021428D01*
X193700000Y-48878571D02*
X193700000Y-48592857D01*
X193871428Y-48935714D02*
X193271428Y-48735714D01*
X193871428Y-48535714D01*
X193871428Y-48021428D02*
X193871428Y-48364285D01*
X193871428Y-48192857D02*
X193271428Y-48192857D01*
X193357142Y-48250000D01*
X193414285Y-48307142D01*
X193442857Y-48364285D01*
X191160000Y-48878571D02*
X191160000Y-48592857D01*
X191331428Y-48935714D02*
X190731428Y-48735714D01*
X191331428Y-48535714D01*
X190731428Y-48221428D02*
X190731428Y-48164285D01*
X190760000Y-48107142D01*
X190788571Y-48078571D01*
X190845714Y-48050000D01*
X190960000Y-48021428D01*
X191102857Y-48021428D01*
X191217142Y-48050000D01*
X191274285Y-48078571D01*
X191302857Y-48107142D01*
X191331428Y-48164285D01*
X191331428Y-48221428D01*
X191302857Y-48278571D01*
X191274285Y-48307142D01*
X191217142Y-48335714D01*
X191102857Y-48364285D01*
X190960000Y-48364285D01*
X190845714Y-48335714D01*
X190788571Y-48307142D01*
X190760000Y-48278571D01*
X190731428Y-48221428D01*
X188220000Y-48907142D02*
X188191428Y-48964285D01*
X188191428Y-49050000D01*
X188220000Y-49135714D01*
X188277142Y-49192857D01*
X188334285Y-49221428D01*
X188448571Y-49250000D01*
X188534285Y-49250000D01*
X188648571Y-49221428D01*
X188705714Y-49192857D01*
X188762857Y-49135714D01*
X188791428Y-49050000D01*
X188791428Y-48992857D01*
X188762857Y-48907142D01*
X188734285Y-48878571D01*
X188534285Y-48878571D01*
X188534285Y-48992857D01*
X188791428Y-48621428D02*
X188191428Y-48621428D01*
X188791428Y-48278571D01*
X188191428Y-48278571D01*
X188791428Y-47992857D02*
X188191428Y-47992857D01*
X188191428Y-47850000D01*
X188220000Y-47764285D01*
X188277142Y-47707142D01*
X188334285Y-47678571D01*
X188448571Y-47650000D01*
X188534285Y-47650000D01*
X188648571Y-47678571D01*
X188705714Y-47707142D01*
X188762857Y-47764285D01*
X188791428Y-47850000D01*
X188791428Y-47992857D01*
X186080000Y-49421428D02*
X186080000Y-49135714D01*
X186251428Y-49478571D02*
X185651428Y-49278571D01*
X186251428Y-49078571D01*
X186251428Y-48535714D02*
X185965714Y-48735714D01*
X186251428Y-48878571D02*
X185651428Y-48878571D01*
X185651428Y-48650000D01*
X185680000Y-48592857D01*
X185708571Y-48564285D01*
X185765714Y-48535714D01*
X185851428Y-48535714D01*
X185908571Y-48564285D01*
X185937142Y-48592857D01*
X185965714Y-48650000D01*
X185965714Y-48878571D01*
X185937142Y-48278571D02*
X185937142Y-48078571D01*
X186251428Y-47992857D02*
X186251428Y-48278571D01*
X185651428Y-48278571D01*
X185651428Y-47992857D01*
X185937142Y-47535714D02*
X185937142Y-47735714D01*
X186251428Y-47735714D02*
X185651428Y-47735714D01*
X185651428Y-47450000D01*
X183111428Y-49192857D02*
X183111428Y-48821428D01*
X183340000Y-49021428D01*
X183340000Y-48935714D01*
X183368571Y-48878571D01*
X183397142Y-48850000D01*
X183454285Y-48821428D01*
X183597142Y-48821428D01*
X183654285Y-48850000D01*
X183682857Y-48878571D01*
X183711428Y-48935714D01*
X183711428Y-49107142D01*
X183682857Y-49164285D01*
X183654285Y-49192857D01*
X183111428Y-48650000D02*
X183711428Y-48450000D01*
X183111428Y-48250000D01*
X183111428Y-48107142D02*
X183111428Y-47735714D01*
X183340000Y-47935714D01*
X183340000Y-47850000D01*
X183368571Y-47792857D01*
X183397142Y-47764285D01*
X183454285Y-47735714D01*
X183597142Y-47735714D01*
X183654285Y-47764285D01*
X183682857Y-47792857D01*
X183711428Y-47850000D01*
X183711428Y-48021428D01*
X183682857Y-48078571D01*
X183654285Y-48107142D01*
X181171428Y-48778571D02*
X180885714Y-48978571D01*
X181171428Y-49121428D02*
X180571428Y-49121428D01*
X180571428Y-48892857D01*
X180600000Y-48835714D01*
X180628571Y-48807142D01*
X180685714Y-48778571D01*
X180771428Y-48778571D01*
X180828571Y-48807142D01*
X180857142Y-48835714D01*
X180885714Y-48892857D01*
X180885714Y-49121428D01*
X181142857Y-48550000D02*
X181171428Y-48464285D01*
X181171428Y-48321428D01*
X181142857Y-48264285D01*
X181114285Y-48235714D01*
X181057142Y-48207142D01*
X181000000Y-48207142D01*
X180942857Y-48235714D01*
X180914285Y-48264285D01*
X180885714Y-48321428D01*
X180857142Y-48435714D01*
X180828571Y-48492857D01*
X180800000Y-48521428D01*
X180742857Y-48550000D01*
X180685714Y-48550000D01*
X180628571Y-48521428D01*
X180600000Y-48492857D01*
X180571428Y-48435714D01*
X180571428Y-48292857D01*
X180600000Y-48207142D01*
X180571428Y-48035714D02*
X180571428Y-47692857D01*
X181171428Y-47864285D02*
X180571428Y-47864285D01*
X218484286Y-65167858D02*
X218570001Y-65196429D01*
X218712858Y-65196429D01*
X218770001Y-65167858D01*
X218798572Y-65139286D01*
X218827143Y-65082143D01*
X218827143Y-65025001D01*
X218798572Y-64967858D01*
X218770001Y-64939286D01*
X218712858Y-64910715D01*
X218598572Y-64882143D01*
X218541429Y-64853572D01*
X218512858Y-64825001D01*
X218484286Y-64767858D01*
X218484286Y-64710715D01*
X218512858Y-64653572D01*
X218541429Y-64625001D01*
X218598572Y-64596429D01*
X218741429Y-64596429D01*
X218827143Y-64625001D01*
X219027143Y-64596429D02*
X219170001Y-65196429D01*
X219284286Y-64767858D01*
X219398572Y-65196429D01*
X219541429Y-64596429D01*
X220084286Y-65196429D02*
X219741429Y-65196429D01*
X219912858Y-65196429D02*
X219912858Y-64596429D01*
X219855715Y-64682143D01*
X219798572Y-64739286D01*
X219741429Y-64767858D01*
X220370001Y-65196429D02*
X220484286Y-65196429D01*
X220541429Y-65167858D01*
X220570001Y-65139286D01*
X220627143Y-65053572D01*
X220655715Y-64939286D01*
X220655715Y-64710715D01*
X220627143Y-64653572D01*
X220598572Y-64625001D01*
X220541429Y-64596429D01*
X220427143Y-64596429D01*
X220370001Y-64625001D01*
X220341429Y-64653572D01*
X220312858Y-64710715D01*
X220312858Y-64853572D01*
X220341429Y-64910715D01*
X220370001Y-64939286D01*
X220427143Y-64967858D01*
X220541429Y-64967858D01*
X220598572Y-64939286D01*
X220627143Y-64910715D01*
X220655715Y-64853572D01*
X170091429Y-69021429D02*
X170091429Y-68421429D01*
X170234286Y-68421429D01*
X170320001Y-68450001D01*
X170377143Y-68507143D01*
X170405715Y-68564286D01*
X170434286Y-68678572D01*
X170434286Y-68764286D01*
X170405715Y-68878572D01*
X170377143Y-68935715D01*
X170320001Y-68992858D01*
X170234286Y-69021429D01*
X170091429Y-69021429D01*
X171005715Y-69021429D02*
X170662858Y-69021429D01*
X170834286Y-69021429D02*
X170834286Y-68421429D01*
X170777143Y-68507143D01*
X170720001Y-68564286D01*
X170662858Y-68592858D01*
X171520001Y-68421429D02*
X171405715Y-68421429D01*
X171348572Y-68450001D01*
X171320001Y-68478572D01*
X171262858Y-68564286D01*
X171234286Y-68678572D01*
X171234286Y-68907143D01*
X171262858Y-68964286D01*
X171291429Y-68992858D01*
X171348572Y-69021429D01*
X171462858Y-69021429D01*
X171520001Y-68992858D01*
X171548572Y-68964286D01*
X171577143Y-68907143D01*
X171577143Y-68764286D01*
X171548572Y-68707143D01*
X171520001Y-68678572D01*
X171462858Y-68650001D01*
X171348572Y-68650001D01*
X171291429Y-68678572D01*
X171262858Y-68707143D01*
X171234286Y-68764286D01*
X217037142Y-66853857D02*
X217065714Y-66768142D01*
X217094285Y-66739571D01*
X217151428Y-66711000D01*
X217237142Y-66711000D01*
X217294285Y-66739571D01*
X217322857Y-66768142D01*
X217351428Y-66825285D01*
X217351428Y-67053857D01*
X216751428Y-67053857D01*
X216751428Y-66853857D01*
X216780000Y-66796714D01*
X216808571Y-66768142D01*
X216865714Y-66739571D01*
X216922857Y-66739571D01*
X216980000Y-66768142D01*
X217008571Y-66796714D01*
X217037142Y-66853857D01*
X217037142Y-67053857D01*
X216808571Y-66482428D02*
X216780000Y-66453857D01*
X216751428Y-66396714D01*
X216751428Y-66253857D01*
X216780000Y-66196714D01*
X216808571Y-66168142D01*
X216865714Y-66139571D01*
X216922857Y-66139571D01*
X217008571Y-66168142D01*
X217351428Y-66511000D01*
X217351428Y-66139571D01*
X209417142Y-66811000D02*
X209417142Y-67011000D01*
X209731428Y-67011000D02*
X209131428Y-67011000D01*
X209131428Y-66725285D01*
X209131428Y-66553857D02*
X209131428Y-66153857D01*
X209731428Y-66411000D01*
X206877142Y-66811000D02*
X206877142Y-67011000D01*
X207191428Y-67011000D02*
X206591428Y-67011000D01*
X206591428Y-66725285D01*
X206591428Y-66239571D02*
X206591428Y-66353857D01*
X206620000Y-66411000D01*
X206648571Y-66439571D01*
X206734285Y-66496714D01*
X206848571Y-66525285D01*
X207077142Y-66525285D01*
X207134285Y-66496714D01*
X207162857Y-66468142D01*
X207191428Y-66411000D01*
X207191428Y-66296714D01*
X207162857Y-66239571D01*
X207134285Y-66211000D01*
X207077142Y-66182428D01*
X206934285Y-66182428D01*
X206877142Y-66211000D01*
X206848571Y-66239571D01*
X206820000Y-66296714D01*
X206820000Y-66411000D01*
X206848571Y-66468142D01*
X206877142Y-66496714D01*
X206934285Y-66525285D01*
X204337142Y-66811000D02*
X204337142Y-67011000D01*
X204651428Y-67011000D02*
X204051428Y-67011000D01*
X204051428Y-66725285D01*
X204051428Y-66211000D02*
X204051428Y-66496714D01*
X204337142Y-66525285D01*
X204308571Y-66496714D01*
X204280000Y-66439571D01*
X204280000Y-66296714D01*
X204308571Y-66239571D01*
X204337142Y-66211000D01*
X204394285Y-66182428D01*
X204537142Y-66182428D01*
X204594285Y-66211000D01*
X204622857Y-66239571D01*
X204651428Y-66296714D01*
X204651428Y-66439571D01*
X204622857Y-66496714D01*
X204594285Y-66525285D01*
X191951428Y-67025285D02*
X191665714Y-67225285D01*
X191951428Y-67368142D02*
X191351428Y-67368142D01*
X191351428Y-67139571D01*
X191380000Y-67082428D01*
X191408571Y-67053857D01*
X191465714Y-67025285D01*
X191551428Y-67025285D01*
X191608571Y-67053857D01*
X191637142Y-67082428D01*
X191665714Y-67139571D01*
X191665714Y-67368142D01*
X191780000Y-66796714D02*
X191780000Y-66511000D01*
X191951428Y-66853857D02*
X191351428Y-66653857D01*
X191951428Y-66453857D01*
X191351428Y-66311000D02*
X191951428Y-66168142D01*
X191522857Y-66053857D01*
X191951428Y-65939571D01*
X191351428Y-65796714D01*
X193920000Y-67068142D02*
X193891428Y-67125285D01*
X193891428Y-67211000D01*
X193920000Y-67296714D01*
X193977142Y-67353857D01*
X194034285Y-67382428D01*
X194148571Y-67411000D01*
X194234285Y-67411000D01*
X194348571Y-67382428D01*
X194405714Y-67353857D01*
X194462857Y-67296714D01*
X194491428Y-67211000D01*
X194491428Y-67153857D01*
X194462857Y-67068142D01*
X194434285Y-67039571D01*
X194234285Y-67039571D01*
X194234285Y-67153857D01*
X194491428Y-66782428D02*
X193891428Y-66782428D01*
X194491428Y-66439571D01*
X193891428Y-66439571D01*
X194491428Y-66153857D02*
X193891428Y-66153857D01*
X193891428Y-66011000D01*
X193920000Y-65925285D01*
X193977142Y-65868142D01*
X194034285Y-65839571D01*
X194148571Y-65811000D01*
X194234285Y-65811000D01*
X194348571Y-65839571D01*
X194405714Y-65868142D01*
X194462857Y-65925285D01*
X194491428Y-66011000D01*
X194491428Y-66153857D01*
X197001428Y-67211691D02*
X196715714Y-67411691D01*
X197001428Y-67554548D02*
X196401428Y-67554548D01*
X196401428Y-67325977D01*
X196430000Y-67268834D01*
X196458571Y-67240262D01*
X196515714Y-67211691D01*
X196601428Y-67211691D01*
X196658571Y-67240262D01*
X196687142Y-67268834D01*
X196715714Y-67325977D01*
X196715714Y-67554548D01*
X196972857Y-66983120D02*
X197001428Y-66897405D01*
X197001428Y-66754548D01*
X196972857Y-66697405D01*
X196944285Y-66668834D01*
X196887142Y-66640262D01*
X196830000Y-66640262D01*
X196772857Y-66668834D01*
X196744285Y-66697405D01*
X196715714Y-66754548D01*
X196687142Y-66868834D01*
X196658571Y-66925977D01*
X196630000Y-66954548D01*
X196572857Y-66983120D01*
X196515714Y-66983120D01*
X196458571Y-66954548D01*
X196430000Y-66925977D01*
X196401428Y-66868834D01*
X196401428Y-66725977D01*
X196430000Y-66640262D01*
X196401428Y-66468834D02*
X196401428Y-66125977D01*
X197001428Y-66297405D02*
X196401428Y-66297405D01*
X198971428Y-67411000D02*
X199571428Y-67211000D01*
X198971428Y-67011000D01*
X199514285Y-66468142D02*
X199542857Y-66496714D01*
X199571428Y-66582428D01*
X199571428Y-66639571D01*
X199542857Y-66725285D01*
X199485714Y-66782428D01*
X199428571Y-66811000D01*
X199314285Y-66839571D01*
X199228571Y-66839571D01*
X199114285Y-66811000D01*
X199057142Y-66782428D01*
X199000000Y-66725285D01*
X198971428Y-66639571D01*
X198971428Y-66582428D01*
X199000000Y-66496714D01*
X199028571Y-66468142D01*
X199514285Y-65868142D02*
X199542857Y-65896714D01*
X199571428Y-65982428D01*
X199571428Y-66039571D01*
X199542857Y-66125285D01*
X199485714Y-66182428D01*
X199428571Y-66211000D01*
X199314285Y-66239571D01*
X199228571Y-66239571D01*
X199114285Y-66211000D01*
X199057142Y-66182428D01*
X199000000Y-66125285D01*
X198971428Y-66039571D01*
X198971428Y-65982428D01*
X199000000Y-65896714D01*
X199028571Y-65868142D01*
X201797142Y-66811000D02*
X201797142Y-67011000D01*
X202111428Y-67011000D02*
X201511428Y-67011000D01*
X201511428Y-66725285D01*
X201711428Y-66239571D02*
X202111428Y-66239571D01*
X201482857Y-66382428D02*
X201911428Y-66525285D01*
X201911428Y-66153857D01*
X211957142Y-66853857D02*
X211985714Y-66768142D01*
X212014285Y-66739571D01*
X212071428Y-66711000D01*
X212157142Y-66711000D01*
X212214285Y-66739571D01*
X212242857Y-66768142D01*
X212271428Y-66825285D01*
X212271428Y-67053857D01*
X211671428Y-67053857D01*
X211671428Y-66853857D01*
X211700000Y-66796714D01*
X211728571Y-66768142D01*
X211785714Y-66739571D01*
X211842857Y-66739571D01*
X211900000Y-66768142D01*
X211928571Y-66796714D01*
X211957142Y-66853857D01*
X211957142Y-67053857D01*
X212271428Y-66139571D02*
X212271428Y-66482428D01*
X212271428Y-66311000D02*
X211671428Y-66311000D01*
X211757142Y-66368142D01*
X211814285Y-66425285D01*
X211842857Y-66482428D01*
X214497142Y-66853857D02*
X214525714Y-66768142D01*
X214554285Y-66739571D01*
X214611428Y-66711000D01*
X214697142Y-66711000D01*
X214754285Y-66739571D01*
X214782857Y-66768142D01*
X214811428Y-66825285D01*
X214811428Y-67053857D01*
X214211428Y-67053857D01*
X214211428Y-66853857D01*
X214240000Y-66796714D01*
X214268571Y-66768142D01*
X214325714Y-66739571D01*
X214382857Y-66739571D01*
X214440000Y-66768142D01*
X214468571Y-66796714D01*
X214497142Y-66853857D01*
X214497142Y-67053857D01*
X214211428Y-66511000D02*
X214211428Y-66139571D01*
X214440000Y-66339571D01*
X214440000Y-66253857D01*
X214468571Y-66196714D01*
X214497142Y-66168142D01*
X214554285Y-66139571D01*
X214697142Y-66139571D01*
X214754285Y-66168142D01*
X214782857Y-66196714D01*
X214811428Y-66253857D01*
X214811428Y-66425285D01*
X214782857Y-66482428D01*
X214754285Y-66511000D01*
X219577142Y-66853857D02*
X219605714Y-66768142D01*
X219634285Y-66739571D01*
X219691428Y-66711000D01*
X219777142Y-66711000D01*
X219834285Y-66739571D01*
X219862857Y-66768142D01*
X219891428Y-66825285D01*
X219891428Y-67053857D01*
X219291428Y-67053857D01*
X219291428Y-66853857D01*
X219320000Y-66796714D01*
X219348571Y-66768142D01*
X219405714Y-66739571D01*
X219462857Y-66739571D01*
X219520000Y-66768142D01*
X219548571Y-66796714D01*
X219577142Y-66853857D01*
X219577142Y-67053857D01*
X219291428Y-66196714D02*
X219291428Y-66311000D01*
X219320000Y-66368142D01*
X219348571Y-66396714D01*
X219434285Y-66453857D01*
X219548571Y-66482428D01*
X219777142Y-66482428D01*
X219834285Y-66453857D01*
X219862857Y-66425285D01*
X219891428Y-66368142D01*
X219891428Y-66253857D01*
X219862857Y-66196714D01*
X219834285Y-66168142D01*
X219777142Y-66139571D01*
X219634285Y-66139571D01*
X219577142Y-66168142D01*
X219548571Y-66196714D01*
X219520000Y-66253857D01*
X219520000Y-66368142D01*
X219548571Y-66425285D01*
X219577142Y-66453857D01*
X219634285Y-66482428D01*
X217037142Y-55931857D02*
X217065714Y-55846142D01*
X217094285Y-55817571D01*
X217151428Y-55789000D01*
X217237142Y-55789000D01*
X217294285Y-55817571D01*
X217322857Y-55846142D01*
X217351428Y-55903285D01*
X217351428Y-56131857D01*
X216751428Y-56131857D01*
X216751428Y-55931857D01*
X216780000Y-55874714D01*
X216808571Y-55846142D01*
X216865714Y-55817571D01*
X216922857Y-55817571D01*
X216980000Y-55846142D01*
X217008571Y-55874714D01*
X217037142Y-55931857D01*
X217037142Y-56131857D01*
X216951428Y-55274714D02*
X217351428Y-55274714D01*
X216722857Y-55417571D02*
X217151428Y-55560428D01*
X217151428Y-55189000D01*
X214497142Y-56103285D02*
X214497142Y-55903285D01*
X214811428Y-55817571D02*
X214811428Y-56103285D01*
X214211428Y-56103285D01*
X214211428Y-55817571D01*
X214211428Y-55303285D02*
X214211428Y-55417571D01*
X214240000Y-55474714D01*
X214268571Y-55503285D01*
X214354285Y-55560428D01*
X214468571Y-55589000D01*
X214697142Y-55589000D01*
X214754285Y-55560428D01*
X214782857Y-55531857D01*
X214811428Y-55474714D01*
X214811428Y-55360428D01*
X214782857Y-55303285D01*
X214754285Y-55274714D01*
X214697142Y-55246142D01*
X214554285Y-55246142D01*
X214497142Y-55274714D01*
X214468571Y-55303285D01*
X214440000Y-55360428D01*
X214440000Y-55474714D01*
X214468571Y-55531857D01*
X214497142Y-55560428D01*
X214554285Y-55589000D01*
X212271428Y-56131857D02*
X211671428Y-56131857D01*
X211671428Y-55989000D01*
X211700000Y-55903285D01*
X211757142Y-55846142D01*
X211814285Y-55817571D01*
X211928571Y-55789000D01*
X212014285Y-55789000D01*
X212128571Y-55817571D01*
X212185714Y-55846142D01*
X212242857Y-55903285D01*
X212271428Y-55989000D01*
X212271428Y-56131857D01*
X211671428Y-55589000D02*
X211671428Y-55189000D01*
X212271428Y-55446142D01*
X209674285Y-55789000D02*
X209702857Y-55817571D01*
X209731428Y-55903285D01*
X209731428Y-55960428D01*
X209702857Y-56046142D01*
X209645714Y-56103285D01*
X209588571Y-56131857D01*
X209474285Y-56160428D01*
X209388571Y-56160428D01*
X209274285Y-56131857D01*
X209217142Y-56103285D01*
X209160000Y-56046142D01*
X209131428Y-55960428D01*
X209131428Y-55903285D01*
X209160000Y-55817571D01*
X209188571Y-55789000D01*
X209131428Y-55274714D02*
X209131428Y-55389000D01*
X209160000Y-55446142D01*
X209188571Y-55474714D01*
X209274285Y-55531857D01*
X209388571Y-55560428D01*
X209617142Y-55560428D01*
X209674285Y-55531857D01*
X209702857Y-55503285D01*
X209731428Y-55446142D01*
X209731428Y-55331857D01*
X209702857Y-55274714D01*
X209674285Y-55246142D01*
X209617142Y-55217571D01*
X209474285Y-55217571D01*
X209417142Y-55246142D01*
X209388571Y-55274714D01*
X209360000Y-55331857D01*
X209360000Y-55446142D01*
X209388571Y-55503285D01*
X209417142Y-55531857D01*
X209474285Y-55560428D01*
X207191428Y-56131857D02*
X206591428Y-56131857D01*
X206591428Y-55989000D01*
X206620000Y-55903285D01*
X206677142Y-55846142D01*
X206734285Y-55817571D01*
X206848571Y-55789000D01*
X206934285Y-55789000D01*
X207048571Y-55817571D01*
X207105714Y-55846142D01*
X207162857Y-55903285D01*
X207191428Y-55989000D01*
X207191428Y-56131857D01*
X206791428Y-55274714D02*
X207191428Y-55274714D01*
X206562857Y-55417571D02*
X206991428Y-55560428D01*
X206991428Y-55189000D01*
X196460000Y-56146142D02*
X196431428Y-56203285D01*
X196431428Y-56289000D01*
X196460000Y-56374714D01*
X196517142Y-56431857D01*
X196574285Y-56460428D01*
X196688571Y-56489000D01*
X196774285Y-56489000D01*
X196888571Y-56460428D01*
X196945714Y-56431857D01*
X197002857Y-56374714D01*
X197031428Y-56289000D01*
X197031428Y-56231857D01*
X197002857Y-56146142D01*
X196974285Y-56117571D01*
X196774285Y-56117571D01*
X196774285Y-56231857D01*
X197031428Y-55860428D02*
X196431428Y-55860428D01*
X197031428Y-55517571D01*
X196431428Y-55517571D01*
X197031428Y-55231857D02*
X196431428Y-55231857D01*
X196431428Y-55089000D01*
X196460000Y-55003285D01*
X196517142Y-54946142D01*
X196574285Y-54917571D01*
X196688571Y-54889000D01*
X196774285Y-54889000D01*
X196888571Y-54917571D01*
X196945714Y-54946142D01*
X197002857Y-55003285D01*
X197031428Y-55089000D01*
X197031428Y-55231857D01*
X199000000Y-56146142D02*
X198971428Y-56203285D01*
X198971428Y-56289000D01*
X199000000Y-56374714D01*
X199057142Y-56431857D01*
X199114285Y-56460428D01*
X199228571Y-56489000D01*
X199314285Y-56489000D01*
X199428571Y-56460428D01*
X199485714Y-56431857D01*
X199542857Y-56374714D01*
X199571428Y-56289000D01*
X199571428Y-56231857D01*
X199542857Y-56146142D01*
X199514285Y-56117571D01*
X199314285Y-56117571D01*
X199314285Y-56231857D01*
X199571428Y-55860428D02*
X198971428Y-55860428D01*
X199571428Y-55517571D01*
X198971428Y-55517571D01*
X199571428Y-55231857D02*
X198971428Y-55231857D01*
X198971428Y-55089000D01*
X199000000Y-55003285D01*
X199057142Y-54946142D01*
X199114285Y-54917571D01*
X199228571Y-54889000D01*
X199314285Y-54889000D01*
X199428571Y-54917571D01*
X199485714Y-54946142D01*
X199542857Y-55003285D01*
X199571428Y-55089000D01*
X199571428Y-55231857D01*
X202111428Y-56131857D02*
X201511428Y-56131857D01*
X201511428Y-55989000D01*
X201540000Y-55903285D01*
X201597142Y-55846142D01*
X201654285Y-55817571D01*
X201768571Y-55789000D01*
X201854285Y-55789000D01*
X201968571Y-55817571D01*
X202025714Y-55846142D01*
X202082857Y-55903285D01*
X202111428Y-55989000D01*
X202111428Y-56131857D01*
X202111428Y-55217571D02*
X202111428Y-55560428D01*
X202111428Y-55389000D02*
X201511428Y-55389000D01*
X201597142Y-55446142D01*
X201654285Y-55503285D01*
X201682857Y-55560428D01*
X204651428Y-56131857D02*
X204051428Y-56131857D01*
X204051428Y-55989000D01*
X204080000Y-55903285D01*
X204137142Y-55846142D01*
X204194285Y-55817571D01*
X204308571Y-55789000D01*
X204394285Y-55789000D01*
X204508571Y-55817571D01*
X204565714Y-55846142D01*
X204622857Y-55903285D01*
X204651428Y-55989000D01*
X204651428Y-56131857D01*
X204051428Y-55417571D02*
X204051428Y-55360428D01*
X204080000Y-55303285D01*
X204108571Y-55274714D01*
X204165714Y-55246142D01*
X204280000Y-55217571D01*
X204422857Y-55217571D01*
X204537142Y-55246142D01*
X204594285Y-55274714D01*
X204622857Y-55303285D01*
X204651428Y-55360428D01*
X204651428Y-55417571D01*
X204622857Y-55474714D01*
X204594285Y-55503285D01*
X204537142Y-55531857D01*
X204422857Y-55560428D01*
X204280000Y-55560428D01*
X204165714Y-55531857D01*
X204108571Y-55503285D01*
X204080000Y-55474714D01*
X204051428Y-55417571D01*
X194521428Y-57292857D02*
X194235714Y-57492857D01*
X194521428Y-57635714D02*
X193921428Y-57635714D01*
X193921428Y-57407142D01*
X193950000Y-57350000D01*
X193978571Y-57321428D01*
X194035714Y-57292857D01*
X194121428Y-57292857D01*
X194178571Y-57321428D01*
X194207142Y-57350000D01*
X194235714Y-57407142D01*
X194235714Y-57635714D01*
X193921428Y-57092857D02*
X194521428Y-56692857D01*
X193921428Y-56692857D02*
X194521428Y-57092857D01*
X194521428Y-56464285D02*
X193921428Y-56464285D01*
X193892857Y-55750000D02*
X194664285Y-56264285D01*
X194521428Y-55550000D02*
X193921428Y-55550000D01*
X193921428Y-55407142D01*
X193950000Y-55321428D01*
X194007142Y-55264285D01*
X194064285Y-55235714D01*
X194178571Y-55207142D01*
X194264285Y-55207142D01*
X194378571Y-55235714D01*
X194435714Y-55264285D01*
X194492857Y-55321428D01*
X194521428Y-55407142D01*
X194521428Y-55550000D01*
X193978571Y-54978571D02*
X193950000Y-54950000D01*
X193921428Y-54892857D01*
X193921428Y-54750000D01*
X193950000Y-54692857D01*
X193978571Y-54664285D01*
X194035714Y-54635714D01*
X194092857Y-54635714D01*
X194178571Y-54664285D01*
X194521428Y-55007142D01*
X194521428Y-54635714D01*
X191351428Y-57712857D02*
X191351428Y-57370000D01*
X191951428Y-57541428D02*
X191351428Y-57541428D01*
X191351428Y-57227142D02*
X191951428Y-56827142D01*
X191351428Y-56827142D02*
X191951428Y-57227142D01*
X191351428Y-56484285D02*
X191351428Y-56427142D01*
X191380000Y-56370000D01*
X191408571Y-56341428D01*
X191465714Y-56312857D01*
X191580000Y-56284285D01*
X191722857Y-56284285D01*
X191837142Y-56312857D01*
X191894285Y-56341428D01*
X191922857Y-56370000D01*
X191951428Y-56427142D01*
X191951428Y-56484285D01*
X191922857Y-56541428D01*
X191894285Y-56570000D01*
X191837142Y-56598571D01*
X191722857Y-56627142D01*
X191580000Y-56627142D01*
X191465714Y-56598571D01*
X191408571Y-56570000D01*
X191380000Y-56541428D01*
X191351428Y-56484285D01*
X191322857Y-55598571D02*
X192094285Y-56112857D01*
X191951428Y-55398571D02*
X191351428Y-55398571D01*
X191351428Y-55255714D01*
X191380000Y-55170000D01*
X191437142Y-55112857D01*
X191494285Y-55084285D01*
X191608571Y-55055714D01*
X191694285Y-55055714D01*
X191808571Y-55084285D01*
X191865714Y-55112857D01*
X191922857Y-55170000D01*
X191951428Y-55255714D01*
X191951428Y-55398571D01*
X191351428Y-54855714D02*
X191351428Y-54484285D01*
X191580000Y-54684285D01*
X191580000Y-54598571D01*
X191608571Y-54541428D01*
X191637142Y-54512857D01*
X191694285Y-54484285D01*
X191837142Y-54484285D01*
X191894285Y-54512857D01*
X191922857Y-54541428D01*
X191951428Y-54598571D01*
X191951428Y-54770000D01*
X191922857Y-54827142D01*
X191894285Y-54855714D01*
X151984286Y-103167858D02*
X152070001Y-103196429D01*
X152212858Y-103196429D01*
X152270001Y-103167858D01*
X152298572Y-103139286D01*
X152327143Y-103082143D01*
X152327143Y-103025001D01*
X152298572Y-102967858D01*
X152270001Y-102939286D01*
X152212858Y-102910715D01*
X152098572Y-102882143D01*
X152041429Y-102853572D01*
X152012858Y-102825001D01*
X151984286Y-102767858D01*
X151984286Y-102710715D01*
X152012858Y-102653572D01*
X152041429Y-102625001D01*
X152098572Y-102596429D01*
X152241429Y-102596429D01*
X152327143Y-102625001D01*
X152527143Y-102596429D02*
X152670001Y-103196429D01*
X152784286Y-102767858D01*
X152898572Y-103196429D01*
X153041429Y-102596429D01*
X153212858Y-102596429D02*
X153584286Y-102596429D01*
X153384286Y-102825001D01*
X153470001Y-102825001D01*
X153527143Y-102853572D01*
X153555715Y-102882143D01*
X153584286Y-102939286D01*
X153584286Y-103082143D01*
X153555715Y-103139286D01*
X153527143Y-103167858D01*
X153470001Y-103196429D01*
X153298572Y-103196429D01*
X153241429Y-103167858D01*
X153212858Y-103139286D01*
X153870001Y-103196429D02*
X153984286Y-103196429D01*
X154041429Y-103167858D01*
X154070001Y-103139286D01*
X154127143Y-103053572D01*
X154155715Y-102939286D01*
X154155715Y-102710715D01*
X154127143Y-102653572D01*
X154098572Y-102625001D01*
X154041429Y-102596429D01*
X153927143Y-102596429D01*
X153870001Y-102625001D01*
X153841429Y-102653572D01*
X153812858Y-102710715D01*
X153812858Y-102853572D01*
X153841429Y-102910715D01*
X153870001Y-102939286D01*
X153927143Y-102967858D01*
X154041429Y-102967858D01*
X154098572Y-102939286D01*
X154127143Y-102910715D01*
X154155715Y-102853572D01*
X90520001Y-46167858D02*
X90605715Y-46196429D01*
X90748572Y-46196429D01*
X90805715Y-46167858D01*
X90834286Y-46139286D01*
X90862858Y-46082143D01*
X90862858Y-46025001D01*
X90834286Y-45967858D01*
X90805715Y-45939286D01*
X90748572Y-45910715D01*
X90634286Y-45882143D01*
X90577143Y-45853572D01*
X90548572Y-45825001D01*
X90520001Y-45767858D01*
X90520001Y-45710715D01*
X90548572Y-45653572D01*
X90577143Y-45625001D01*
X90634286Y-45596429D01*
X90777143Y-45596429D01*
X90862858Y-45625001D01*
X91062858Y-45596429D02*
X91205715Y-46196429D01*
X91320001Y-45767858D01*
X91434286Y-46196429D01*
X91577143Y-45596429D01*
X91920001Y-45596429D02*
X91977143Y-45596429D01*
X92034286Y-45625001D01*
X92062858Y-45653572D01*
X92091429Y-45710715D01*
X92120001Y-45825001D01*
X92120001Y-45967858D01*
X92091429Y-46082143D01*
X92062858Y-46139286D01*
X92034286Y-46167858D01*
X91977143Y-46196429D01*
X91920001Y-46196429D01*
X91862858Y-46167858D01*
X91834286Y-46139286D01*
X91805715Y-46082143D01*
X91777143Y-45967858D01*
X91777143Y-45825001D01*
X91805715Y-45710715D01*
X91834286Y-45653572D01*
X91862858Y-45625001D01*
X91920001Y-45596429D01*
X109520001Y-46167858D02*
X109605715Y-46196429D01*
X109748572Y-46196429D01*
X109805715Y-46167858D01*
X109834286Y-46139286D01*
X109862858Y-46082143D01*
X109862858Y-46025001D01*
X109834286Y-45967858D01*
X109805715Y-45939286D01*
X109748572Y-45910715D01*
X109634286Y-45882143D01*
X109577143Y-45853572D01*
X109548572Y-45825001D01*
X109520001Y-45767858D01*
X109520001Y-45710715D01*
X109548572Y-45653572D01*
X109577143Y-45625001D01*
X109634286Y-45596429D01*
X109777143Y-45596429D01*
X109862858Y-45625001D01*
X110062858Y-45596429D02*
X110205715Y-46196429D01*
X110320001Y-45767858D01*
X110434286Y-46196429D01*
X110577143Y-45596429D01*
X111120001Y-46196429D02*
X110777143Y-46196429D01*
X110948572Y-46196429D02*
X110948572Y-45596429D01*
X110891429Y-45682143D01*
X110834286Y-45739286D01*
X110777143Y-45767858D01*
X128520001Y-46167858D02*
X128605715Y-46196429D01*
X128748572Y-46196429D01*
X128805715Y-46167858D01*
X128834286Y-46139286D01*
X128862858Y-46082143D01*
X128862858Y-46025001D01*
X128834286Y-45967858D01*
X128805715Y-45939286D01*
X128748572Y-45910715D01*
X128634286Y-45882143D01*
X128577143Y-45853572D01*
X128548572Y-45825001D01*
X128520001Y-45767858D01*
X128520001Y-45710715D01*
X128548572Y-45653572D01*
X128577143Y-45625001D01*
X128634286Y-45596429D01*
X128777143Y-45596429D01*
X128862858Y-45625001D01*
X129062858Y-45596429D02*
X129205715Y-46196429D01*
X129320001Y-45767858D01*
X129434286Y-46196429D01*
X129577143Y-45596429D01*
X129777143Y-45653572D02*
X129805715Y-45625001D01*
X129862858Y-45596429D01*
X130005715Y-45596429D01*
X130062858Y-45625001D01*
X130091429Y-45653572D01*
X130120001Y-45710715D01*
X130120001Y-45767858D01*
X130091429Y-45853572D01*
X129748572Y-46196429D01*
X130120001Y-46196429D01*
X147520001Y-46167858D02*
X147605715Y-46196429D01*
X147748572Y-46196429D01*
X147805715Y-46167858D01*
X147834286Y-46139286D01*
X147862858Y-46082143D01*
X147862858Y-46025001D01*
X147834286Y-45967858D01*
X147805715Y-45939286D01*
X147748572Y-45910715D01*
X147634286Y-45882143D01*
X147577143Y-45853572D01*
X147548572Y-45825001D01*
X147520001Y-45767858D01*
X147520001Y-45710715D01*
X147548572Y-45653572D01*
X147577143Y-45625001D01*
X147634286Y-45596429D01*
X147777143Y-45596429D01*
X147862858Y-45625001D01*
X148062858Y-45596429D02*
X148205715Y-46196429D01*
X148320001Y-45767858D01*
X148434286Y-46196429D01*
X148577143Y-45596429D01*
X148748572Y-45596429D02*
X149120001Y-45596429D01*
X148920001Y-45825001D01*
X149005715Y-45825001D01*
X149062858Y-45853572D01*
X149091429Y-45882143D01*
X149120001Y-45939286D01*
X149120001Y-46082143D01*
X149091429Y-46139286D01*
X149062858Y-46167858D01*
X149005715Y-46196429D01*
X148834286Y-46196429D01*
X148777143Y-46167858D01*
X148748572Y-46139286D01*
X166520001Y-46167858D02*
X166605715Y-46196429D01*
X166748572Y-46196429D01*
X166805715Y-46167858D01*
X166834286Y-46139286D01*
X166862858Y-46082143D01*
X166862858Y-46025001D01*
X166834286Y-45967858D01*
X166805715Y-45939286D01*
X166748572Y-45910715D01*
X166634286Y-45882143D01*
X166577143Y-45853572D01*
X166548572Y-45825001D01*
X166520001Y-45767858D01*
X166520001Y-45710715D01*
X166548572Y-45653572D01*
X166577143Y-45625001D01*
X166634286Y-45596429D01*
X166777143Y-45596429D01*
X166862858Y-45625001D01*
X167062858Y-45596429D02*
X167205715Y-46196429D01*
X167320001Y-45767858D01*
X167434286Y-46196429D01*
X167577143Y-45596429D01*
X168062858Y-45796429D02*
X168062858Y-46196429D01*
X167920001Y-45567858D02*
X167777143Y-45996429D01*
X168148572Y-45996429D01*
X185520001Y-46167858D02*
X185605715Y-46196429D01*
X185748572Y-46196429D01*
X185805715Y-46167858D01*
X185834286Y-46139286D01*
X185862858Y-46082143D01*
X185862858Y-46025001D01*
X185834286Y-45967858D01*
X185805715Y-45939286D01*
X185748572Y-45910715D01*
X185634286Y-45882143D01*
X185577143Y-45853572D01*
X185548572Y-45825001D01*
X185520001Y-45767858D01*
X185520001Y-45710715D01*
X185548572Y-45653572D01*
X185577143Y-45625001D01*
X185634286Y-45596429D01*
X185777143Y-45596429D01*
X185862858Y-45625001D01*
X186062858Y-45596429D02*
X186205715Y-46196429D01*
X186320001Y-45767858D01*
X186434286Y-46196429D01*
X186577143Y-45596429D01*
X187091429Y-45596429D02*
X186805715Y-45596429D01*
X186777143Y-45882143D01*
X186805715Y-45853572D01*
X186862858Y-45825001D01*
X187005715Y-45825001D01*
X187062858Y-45853572D01*
X187091429Y-45882143D01*
X187120001Y-45939286D01*
X187120001Y-46082143D01*
X187091429Y-46139286D01*
X187062858Y-46167858D01*
X187005715Y-46196429D01*
X186862858Y-46196429D01*
X186805715Y-46167858D01*
X186777143Y-46139286D01*
X204520001Y-46167858D02*
X204605715Y-46196429D01*
X204748572Y-46196429D01*
X204805715Y-46167858D01*
X204834286Y-46139286D01*
X204862858Y-46082143D01*
X204862858Y-46025001D01*
X204834286Y-45967858D01*
X204805715Y-45939286D01*
X204748572Y-45910715D01*
X204634286Y-45882143D01*
X204577143Y-45853572D01*
X204548572Y-45825001D01*
X204520001Y-45767858D01*
X204520001Y-45710715D01*
X204548572Y-45653572D01*
X204577143Y-45625001D01*
X204634286Y-45596429D01*
X204777143Y-45596429D01*
X204862858Y-45625001D01*
X205062858Y-45596429D02*
X205205715Y-46196429D01*
X205320001Y-45767858D01*
X205434286Y-46196429D01*
X205577143Y-45596429D01*
X206062858Y-45596429D02*
X205948572Y-45596429D01*
X205891429Y-45625001D01*
X205862858Y-45653572D01*
X205805715Y-45739286D01*
X205777143Y-45853572D01*
X205777143Y-46082143D01*
X205805715Y-46139286D01*
X205834286Y-46167858D01*
X205891429Y-46196429D01*
X206005715Y-46196429D01*
X206062858Y-46167858D01*
X206091429Y-46139286D01*
X206120001Y-46082143D01*
X206120001Y-45939286D01*
X206091429Y-45882143D01*
X206062858Y-45853572D01*
X206005715Y-45825001D01*
X205891429Y-45825001D01*
X205834286Y-45853572D01*
X205805715Y-45882143D01*
X205777143Y-45939286D01*
X223520001Y-46167858D02*
X223605715Y-46196429D01*
X223748572Y-46196429D01*
X223805715Y-46167858D01*
X223834286Y-46139286D01*
X223862858Y-46082143D01*
X223862858Y-46025001D01*
X223834286Y-45967858D01*
X223805715Y-45939286D01*
X223748572Y-45910715D01*
X223634286Y-45882143D01*
X223577143Y-45853572D01*
X223548572Y-45825001D01*
X223520001Y-45767858D01*
X223520001Y-45710715D01*
X223548572Y-45653572D01*
X223577143Y-45625001D01*
X223634286Y-45596429D01*
X223777143Y-45596429D01*
X223862858Y-45625001D01*
X224062858Y-45596429D02*
X224205715Y-46196429D01*
X224320001Y-45767858D01*
X224434286Y-46196429D01*
X224577143Y-45596429D01*
X224748572Y-45596429D02*
X225148572Y-45596429D01*
X224891429Y-46196429D01*
X242520001Y-46167858D02*
X242605715Y-46196429D01*
X242748572Y-46196429D01*
X242805715Y-46167858D01*
X242834286Y-46139286D01*
X242862858Y-46082143D01*
X242862858Y-46025001D01*
X242834286Y-45967858D01*
X242805715Y-45939286D01*
X242748572Y-45910715D01*
X242634286Y-45882143D01*
X242577143Y-45853572D01*
X242548572Y-45825001D01*
X242520001Y-45767858D01*
X242520001Y-45710715D01*
X242548572Y-45653572D01*
X242577143Y-45625001D01*
X242634286Y-45596429D01*
X242777143Y-45596429D01*
X242862858Y-45625001D01*
X243062858Y-45596429D02*
X243205715Y-46196429D01*
X243320001Y-45767858D01*
X243434286Y-46196429D01*
X243577143Y-45596429D01*
X243891429Y-45853572D02*
X243834286Y-45825001D01*
X243805715Y-45796429D01*
X243777143Y-45739286D01*
X243777143Y-45710715D01*
X243805715Y-45653572D01*
X243834286Y-45625001D01*
X243891429Y-45596429D01*
X244005715Y-45596429D01*
X244062858Y-45625001D01*
X244091429Y-45653572D01*
X244120001Y-45710715D01*
X244120001Y-45739286D01*
X244091429Y-45796429D01*
X244062858Y-45825001D01*
X244005715Y-45853572D01*
X243891429Y-45853572D01*
X243834286Y-45882143D01*
X243805715Y-45910715D01*
X243777143Y-45967858D01*
X243777143Y-46082143D01*
X243805715Y-46139286D01*
X243834286Y-46167858D01*
X243891429Y-46196429D01*
X244005715Y-46196429D01*
X244062858Y-46167858D01*
X244091429Y-46139286D01*
X244120001Y-46082143D01*
X244120001Y-45967858D01*
X244091429Y-45910715D01*
X244062858Y-45882143D01*
X244005715Y-45853572D01*
X261520001Y-46167858D02*
X261605715Y-46196429D01*
X261748572Y-46196429D01*
X261805715Y-46167858D01*
X261834286Y-46139286D01*
X261862858Y-46082143D01*
X261862858Y-46025001D01*
X261834286Y-45967858D01*
X261805715Y-45939286D01*
X261748572Y-45910715D01*
X261634286Y-45882143D01*
X261577143Y-45853572D01*
X261548572Y-45825001D01*
X261520001Y-45767858D01*
X261520001Y-45710715D01*
X261548572Y-45653572D01*
X261577143Y-45625001D01*
X261634286Y-45596429D01*
X261777143Y-45596429D01*
X261862858Y-45625001D01*
X262062858Y-45596429D02*
X262205715Y-46196429D01*
X262320001Y-45767858D01*
X262434286Y-46196429D01*
X262577143Y-45596429D01*
X262834286Y-46196429D02*
X262948572Y-46196429D01*
X263005715Y-46167858D01*
X263034286Y-46139286D01*
X263091429Y-46053572D01*
X263120001Y-45939286D01*
X263120001Y-45710715D01*
X263091429Y-45653572D01*
X263062858Y-45625001D01*
X263005715Y-45596429D01*
X262891429Y-45596429D01*
X262834286Y-45625001D01*
X262805715Y-45653572D01*
X262777143Y-45710715D01*
X262777143Y-45853572D01*
X262805715Y-45910715D01*
X262834286Y-45939286D01*
X262891429Y-45967858D01*
X263005715Y-45967858D01*
X263062858Y-45939286D01*
X263091429Y-45910715D01*
X263120001Y-45853572D01*
X280234286Y-46167858D02*
X280320001Y-46196429D01*
X280462858Y-46196429D01*
X280520001Y-46167858D01*
X280548572Y-46139286D01*
X280577143Y-46082143D01*
X280577143Y-46025001D01*
X280548572Y-45967858D01*
X280520001Y-45939286D01*
X280462858Y-45910715D01*
X280348572Y-45882143D01*
X280291429Y-45853572D01*
X280262858Y-45825001D01*
X280234286Y-45767858D01*
X280234286Y-45710715D01*
X280262858Y-45653572D01*
X280291429Y-45625001D01*
X280348572Y-45596429D01*
X280491429Y-45596429D01*
X280577143Y-45625001D01*
X280777143Y-45596429D02*
X280920001Y-46196429D01*
X281034286Y-45767858D01*
X281148572Y-46196429D01*
X281291429Y-45596429D01*
X281834286Y-46196429D02*
X281491429Y-46196429D01*
X281662858Y-46196429D02*
X281662858Y-45596429D01*
X281605715Y-45682143D01*
X281548572Y-45739286D01*
X281491429Y-45767858D01*
X282205715Y-45596429D02*
X282262858Y-45596429D01*
X282320001Y-45625001D01*
X282348572Y-45653572D01*
X282377143Y-45710715D01*
X282405715Y-45825001D01*
X282405715Y-45967858D01*
X282377143Y-46082143D01*
X282348572Y-46139286D01*
X282320001Y-46167858D01*
X282262858Y-46196429D01*
X282205715Y-46196429D01*
X282148572Y-46167858D01*
X282120001Y-46139286D01*
X282091429Y-46082143D01*
X282062858Y-45967858D01*
X282062858Y-45825001D01*
X282091429Y-45710715D01*
X282120001Y-45653572D01*
X282148572Y-45625001D01*
X282205715Y-45596429D01*
X299234286Y-46167858D02*
X299320001Y-46196429D01*
X299462858Y-46196429D01*
X299520001Y-46167858D01*
X299548572Y-46139286D01*
X299577143Y-46082143D01*
X299577143Y-46025001D01*
X299548572Y-45967858D01*
X299520001Y-45939286D01*
X299462858Y-45910715D01*
X299348572Y-45882143D01*
X299291429Y-45853572D01*
X299262858Y-45825001D01*
X299234286Y-45767858D01*
X299234286Y-45710715D01*
X299262858Y-45653572D01*
X299291429Y-45625001D01*
X299348572Y-45596429D01*
X299491429Y-45596429D01*
X299577143Y-45625001D01*
X299777143Y-45596429D02*
X299920001Y-46196429D01*
X300034286Y-45767858D01*
X300148572Y-46196429D01*
X300291429Y-45596429D01*
X300834286Y-46196429D02*
X300491429Y-46196429D01*
X300662858Y-46196429D02*
X300662858Y-45596429D01*
X300605715Y-45682143D01*
X300548572Y-45739286D01*
X300491429Y-45767858D01*
X301405715Y-46196429D02*
X301062858Y-46196429D01*
X301234286Y-46196429D02*
X301234286Y-45596429D01*
X301177143Y-45682143D01*
X301120001Y-45739286D01*
X301062858Y-45767858D01*
X85484286Y-65167858D02*
X85570001Y-65196429D01*
X85712858Y-65196429D01*
X85770001Y-65167858D01*
X85798572Y-65139286D01*
X85827143Y-65082143D01*
X85827143Y-65025001D01*
X85798572Y-64967858D01*
X85770001Y-64939286D01*
X85712858Y-64910715D01*
X85598572Y-64882143D01*
X85541429Y-64853572D01*
X85512858Y-64825001D01*
X85484286Y-64767858D01*
X85484286Y-64710715D01*
X85512858Y-64653572D01*
X85541429Y-64625001D01*
X85598572Y-64596429D01*
X85741429Y-64596429D01*
X85827143Y-64625001D01*
X86027143Y-64596429D02*
X86170001Y-65196429D01*
X86284286Y-64767858D01*
X86398572Y-65196429D01*
X86541429Y-64596429D01*
X87084286Y-65196429D02*
X86741429Y-65196429D01*
X86912858Y-65196429D02*
X86912858Y-64596429D01*
X86855715Y-64682143D01*
X86798572Y-64739286D01*
X86741429Y-64767858D01*
X87312858Y-64653572D02*
X87341429Y-64625001D01*
X87398572Y-64596429D01*
X87541429Y-64596429D01*
X87598572Y-64625001D01*
X87627143Y-64653572D01*
X87655715Y-64710715D01*
X87655715Y-64767858D01*
X87627143Y-64853572D01*
X87284286Y-65196429D01*
X87655715Y-65196429D01*
X104484286Y-65167858D02*
X104570001Y-65196429D01*
X104712858Y-65196429D01*
X104770001Y-65167858D01*
X104798572Y-65139286D01*
X104827143Y-65082143D01*
X104827143Y-65025001D01*
X104798572Y-64967858D01*
X104770001Y-64939286D01*
X104712858Y-64910715D01*
X104598572Y-64882143D01*
X104541429Y-64853572D01*
X104512858Y-64825001D01*
X104484286Y-64767858D01*
X104484286Y-64710715D01*
X104512858Y-64653572D01*
X104541429Y-64625001D01*
X104598572Y-64596429D01*
X104741429Y-64596429D01*
X104827143Y-64625001D01*
X105027143Y-64596429D02*
X105170001Y-65196429D01*
X105284286Y-64767858D01*
X105398572Y-65196429D01*
X105541429Y-64596429D01*
X106084286Y-65196429D02*
X105741429Y-65196429D01*
X105912858Y-65196429D02*
X105912858Y-64596429D01*
X105855715Y-64682143D01*
X105798572Y-64739286D01*
X105741429Y-64767858D01*
X106284286Y-64596429D02*
X106655715Y-64596429D01*
X106455715Y-64825001D01*
X106541429Y-64825001D01*
X106598572Y-64853572D01*
X106627143Y-64882143D01*
X106655715Y-64939286D01*
X106655715Y-65082143D01*
X106627143Y-65139286D01*
X106598572Y-65167858D01*
X106541429Y-65196429D01*
X106370001Y-65196429D01*
X106312858Y-65167858D01*
X106284286Y-65139286D01*
X123484286Y-65167858D02*
X123570001Y-65196429D01*
X123712858Y-65196429D01*
X123770001Y-65167858D01*
X123798572Y-65139286D01*
X123827143Y-65082143D01*
X123827143Y-65025001D01*
X123798572Y-64967858D01*
X123770001Y-64939286D01*
X123712858Y-64910715D01*
X123598572Y-64882143D01*
X123541429Y-64853572D01*
X123512858Y-64825001D01*
X123484286Y-64767858D01*
X123484286Y-64710715D01*
X123512858Y-64653572D01*
X123541429Y-64625001D01*
X123598572Y-64596429D01*
X123741429Y-64596429D01*
X123827143Y-64625001D01*
X124027143Y-64596429D02*
X124170001Y-65196429D01*
X124284286Y-64767858D01*
X124398572Y-65196429D01*
X124541429Y-64596429D01*
X125084286Y-65196429D02*
X124741429Y-65196429D01*
X124912858Y-65196429D02*
X124912858Y-64596429D01*
X124855715Y-64682143D01*
X124798572Y-64739286D01*
X124741429Y-64767858D01*
X125598572Y-64796429D02*
X125598572Y-65196429D01*
X125455715Y-64567858D02*
X125312858Y-64996429D01*
X125684286Y-64996429D01*
X142484286Y-65167858D02*
X142570001Y-65196429D01*
X142712858Y-65196429D01*
X142770001Y-65167858D01*
X142798572Y-65139286D01*
X142827143Y-65082143D01*
X142827143Y-65025001D01*
X142798572Y-64967858D01*
X142770001Y-64939286D01*
X142712858Y-64910715D01*
X142598572Y-64882143D01*
X142541429Y-64853572D01*
X142512858Y-64825001D01*
X142484286Y-64767858D01*
X142484286Y-64710715D01*
X142512858Y-64653572D01*
X142541429Y-64625001D01*
X142598572Y-64596429D01*
X142741429Y-64596429D01*
X142827143Y-64625001D01*
X143027143Y-64596429D02*
X143170001Y-65196429D01*
X143284286Y-64767858D01*
X143398572Y-65196429D01*
X143541429Y-64596429D01*
X144084286Y-65196429D02*
X143741429Y-65196429D01*
X143912858Y-65196429D02*
X143912858Y-64596429D01*
X143855715Y-64682143D01*
X143798572Y-64739286D01*
X143741429Y-64767858D01*
X144627143Y-64596429D02*
X144341429Y-64596429D01*
X144312858Y-64882143D01*
X144341429Y-64853572D01*
X144398572Y-64825001D01*
X144541429Y-64825001D01*
X144598572Y-64853572D01*
X144627143Y-64882143D01*
X144655715Y-64939286D01*
X144655715Y-65082143D01*
X144627143Y-65139286D01*
X144598572Y-65167858D01*
X144541429Y-65196429D01*
X144398572Y-65196429D01*
X144341429Y-65167858D01*
X144312858Y-65139286D01*
X161484286Y-65167858D02*
X161570001Y-65196429D01*
X161712858Y-65196429D01*
X161770001Y-65167858D01*
X161798572Y-65139286D01*
X161827143Y-65082143D01*
X161827143Y-65025001D01*
X161798572Y-64967858D01*
X161770001Y-64939286D01*
X161712858Y-64910715D01*
X161598572Y-64882143D01*
X161541429Y-64853572D01*
X161512858Y-64825001D01*
X161484286Y-64767858D01*
X161484286Y-64710715D01*
X161512858Y-64653572D01*
X161541429Y-64625001D01*
X161598572Y-64596429D01*
X161741429Y-64596429D01*
X161827143Y-64625001D01*
X162027143Y-64596429D02*
X162170001Y-65196429D01*
X162284286Y-64767858D01*
X162398572Y-65196429D01*
X162541429Y-64596429D01*
X163084286Y-65196429D02*
X162741429Y-65196429D01*
X162912858Y-65196429D02*
X162912858Y-64596429D01*
X162855715Y-64682143D01*
X162798572Y-64739286D01*
X162741429Y-64767858D01*
X163598572Y-64596429D02*
X163484286Y-64596429D01*
X163427143Y-64625001D01*
X163398572Y-64653572D01*
X163341429Y-64739286D01*
X163312858Y-64853572D01*
X163312858Y-65082143D01*
X163341429Y-65139286D01*
X163370001Y-65167858D01*
X163427143Y-65196429D01*
X163541429Y-65196429D01*
X163598572Y-65167858D01*
X163627143Y-65139286D01*
X163655715Y-65082143D01*
X163655715Y-64939286D01*
X163627143Y-64882143D01*
X163598572Y-64853572D01*
X163541429Y-64825001D01*
X163427143Y-64825001D01*
X163370001Y-64853572D01*
X163341429Y-64882143D01*
X163312858Y-64939286D01*
X180484286Y-65167858D02*
X180570001Y-65196429D01*
X180712858Y-65196429D01*
X180770001Y-65167858D01*
X180798572Y-65139286D01*
X180827143Y-65082143D01*
X180827143Y-65025001D01*
X180798572Y-64967858D01*
X180770001Y-64939286D01*
X180712858Y-64910715D01*
X180598572Y-64882143D01*
X180541429Y-64853572D01*
X180512858Y-64825001D01*
X180484286Y-64767858D01*
X180484286Y-64710715D01*
X180512858Y-64653572D01*
X180541429Y-64625001D01*
X180598572Y-64596429D01*
X180741429Y-64596429D01*
X180827143Y-64625001D01*
X181027143Y-64596429D02*
X181170001Y-65196429D01*
X181284286Y-64767858D01*
X181398572Y-65196429D01*
X181541429Y-64596429D01*
X182084286Y-65196429D02*
X181741429Y-65196429D01*
X181912858Y-65196429D02*
X181912858Y-64596429D01*
X181855715Y-64682143D01*
X181798572Y-64739286D01*
X181741429Y-64767858D01*
X182284286Y-64596429D02*
X182684286Y-64596429D01*
X182427143Y-65196429D01*
X199484286Y-65167858D02*
X199570001Y-65196429D01*
X199712858Y-65196429D01*
X199770001Y-65167858D01*
X199798572Y-65139286D01*
X199827143Y-65082143D01*
X199827143Y-65025001D01*
X199798572Y-64967858D01*
X199770001Y-64939286D01*
X199712858Y-64910715D01*
X199598572Y-64882143D01*
X199541429Y-64853572D01*
X199512858Y-64825001D01*
X199484286Y-64767858D01*
X199484286Y-64710715D01*
X199512858Y-64653572D01*
X199541429Y-64625001D01*
X199598572Y-64596429D01*
X199741429Y-64596429D01*
X199827143Y-64625001D01*
X200027143Y-64596429D02*
X200170001Y-65196429D01*
X200284286Y-64767858D01*
X200398572Y-65196429D01*
X200541429Y-64596429D01*
X201084286Y-65196429D02*
X200741429Y-65196429D01*
X200912858Y-65196429D02*
X200912858Y-64596429D01*
X200855715Y-64682143D01*
X200798572Y-64739286D01*
X200741429Y-64767858D01*
X201427143Y-64853572D02*
X201370001Y-64825001D01*
X201341429Y-64796429D01*
X201312858Y-64739286D01*
X201312858Y-64710715D01*
X201341429Y-64653572D01*
X201370001Y-64625001D01*
X201427143Y-64596429D01*
X201541429Y-64596429D01*
X201598572Y-64625001D01*
X201627143Y-64653572D01*
X201655715Y-64710715D01*
X201655715Y-64739286D01*
X201627143Y-64796429D01*
X201598572Y-64825001D01*
X201541429Y-64853572D01*
X201427143Y-64853572D01*
X201370001Y-64882143D01*
X201341429Y-64910715D01*
X201312858Y-64967858D01*
X201312858Y-65082143D01*
X201341429Y-65139286D01*
X201370001Y-65167858D01*
X201427143Y-65196429D01*
X201541429Y-65196429D01*
X201598572Y-65167858D01*
X201627143Y-65139286D01*
X201655715Y-65082143D01*
X201655715Y-64967858D01*
X201627143Y-64910715D01*
X201598572Y-64882143D01*
X201541429Y-64853572D01*
X237484286Y-65167858D02*
X237570001Y-65196429D01*
X237712858Y-65196429D01*
X237770001Y-65167858D01*
X237798572Y-65139286D01*
X237827143Y-65082143D01*
X237827143Y-65025001D01*
X237798572Y-64967858D01*
X237770001Y-64939286D01*
X237712858Y-64910715D01*
X237598572Y-64882143D01*
X237541429Y-64853572D01*
X237512858Y-64825001D01*
X237484286Y-64767858D01*
X237484286Y-64710715D01*
X237512858Y-64653572D01*
X237541429Y-64625001D01*
X237598572Y-64596429D01*
X237741429Y-64596429D01*
X237827143Y-64625001D01*
X238027143Y-64596429D02*
X238170001Y-65196429D01*
X238284286Y-64767858D01*
X238398572Y-65196429D01*
X238541429Y-64596429D01*
X238741429Y-64653572D02*
X238770001Y-64625001D01*
X238827143Y-64596429D01*
X238970001Y-64596429D01*
X239027143Y-64625001D01*
X239055715Y-64653572D01*
X239084286Y-64710715D01*
X239084286Y-64767858D01*
X239055715Y-64853572D01*
X238712858Y-65196429D01*
X239084286Y-65196429D01*
X239455715Y-64596429D02*
X239512858Y-64596429D01*
X239570001Y-64625001D01*
X239598572Y-64653572D01*
X239627143Y-64710715D01*
X239655715Y-64825001D01*
X239655715Y-64967858D01*
X239627143Y-65082143D01*
X239598572Y-65139286D01*
X239570001Y-65167858D01*
X239512858Y-65196429D01*
X239455715Y-65196429D01*
X239398572Y-65167858D01*
X239370001Y-65139286D01*
X239341429Y-65082143D01*
X239312858Y-64967858D01*
X239312858Y-64825001D01*
X239341429Y-64710715D01*
X239370001Y-64653572D01*
X239398572Y-64625001D01*
X239455715Y-64596429D01*
X256484286Y-65167858D02*
X256570001Y-65196429D01*
X256712858Y-65196429D01*
X256770001Y-65167858D01*
X256798572Y-65139286D01*
X256827143Y-65082143D01*
X256827143Y-65025001D01*
X256798572Y-64967858D01*
X256770001Y-64939286D01*
X256712858Y-64910715D01*
X256598572Y-64882143D01*
X256541429Y-64853572D01*
X256512858Y-64825001D01*
X256484286Y-64767858D01*
X256484286Y-64710715D01*
X256512858Y-64653572D01*
X256541429Y-64625001D01*
X256598572Y-64596429D01*
X256741429Y-64596429D01*
X256827143Y-64625001D01*
X257027143Y-64596429D02*
X257170001Y-65196429D01*
X257284286Y-64767858D01*
X257398572Y-65196429D01*
X257541429Y-64596429D01*
X257741429Y-64653572D02*
X257770001Y-64625001D01*
X257827143Y-64596429D01*
X257970001Y-64596429D01*
X258027143Y-64625001D01*
X258055715Y-64653572D01*
X258084286Y-64710715D01*
X258084286Y-64767858D01*
X258055715Y-64853572D01*
X257712858Y-65196429D01*
X258084286Y-65196429D01*
X258655715Y-65196429D02*
X258312858Y-65196429D01*
X258484286Y-65196429D02*
X258484286Y-64596429D01*
X258427143Y-64682143D01*
X258370001Y-64739286D01*
X258312858Y-64767858D01*
X275484286Y-65167858D02*
X275570001Y-65196429D01*
X275712858Y-65196429D01*
X275770001Y-65167858D01*
X275798572Y-65139286D01*
X275827143Y-65082143D01*
X275827143Y-65025001D01*
X275798572Y-64967858D01*
X275770001Y-64939286D01*
X275712858Y-64910715D01*
X275598572Y-64882143D01*
X275541429Y-64853572D01*
X275512858Y-64825001D01*
X275484286Y-64767858D01*
X275484286Y-64710715D01*
X275512858Y-64653572D01*
X275541429Y-64625001D01*
X275598572Y-64596429D01*
X275741429Y-64596429D01*
X275827143Y-64625001D01*
X276027143Y-64596429D02*
X276170001Y-65196429D01*
X276284286Y-64767858D01*
X276398572Y-65196429D01*
X276541429Y-64596429D01*
X276741429Y-64653572D02*
X276770001Y-64625001D01*
X276827143Y-64596429D01*
X276970001Y-64596429D01*
X277027143Y-64625001D01*
X277055715Y-64653572D01*
X277084286Y-64710715D01*
X277084286Y-64767858D01*
X277055715Y-64853572D01*
X276712858Y-65196429D01*
X277084286Y-65196429D01*
X277312858Y-64653572D02*
X277341429Y-64625001D01*
X277398572Y-64596429D01*
X277541429Y-64596429D01*
X277598572Y-64625001D01*
X277627143Y-64653572D01*
X277655715Y-64710715D01*
X277655715Y-64767858D01*
X277627143Y-64853572D01*
X277284286Y-65196429D01*
X277655715Y-65196429D01*
X294484286Y-65167858D02*
X294570001Y-65196429D01*
X294712858Y-65196429D01*
X294770001Y-65167858D01*
X294798572Y-65139286D01*
X294827143Y-65082143D01*
X294827143Y-65025001D01*
X294798572Y-64967858D01*
X294770001Y-64939286D01*
X294712858Y-64910715D01*
X294598572Y-64882143D01*
X294541429Y-64853572D01*
X294512858Y-64825001D01*
X294484286Y-64767858D01*
X294484286Y-64710715D01*
X294512858Y-64653572D01*
X294541429Y-64625001D01*
X294598572Y-64596429D01*
X294741429Y-64596429D01*
X294827143Y-64625001D01*
X295027143Y-64596429D02*
X295170001Y-65196429D01*
X295284286Y-64767858D01*
X295398572Y-65196429D01*
X295541429Y-64596429D01*
X295741429Y-64653572D02*
X295770001Y-64625001D01*
X295827143Y-64596429D01*
X295970001Y-64596429D01*
X296027143Y-64625001D01*
X296055715Y-64653572D01*
X296084286Y-64710715D01*
X296084286Y-64767858D01*
X296055715Y-64853572D01*
X295712858Y-65196429D01*
X296084286Y-65196429D01*
X296284286Y-64596429D02*
X296655715Y-64596429D01*
X296455715Y-64825001D01*
X296541429Y-64825001D01*
X296598572Y-64853572D01*
X296627143Y-64882143D01*
X296655715Y-64939286D01*
X296655715Y-65082143D01*
X296627143Y-65139286D01*
X296598572Y-65167858D01*
X296541429Y-65196429D01*
X296370001Y-65196429D01*
X296312858Y-65167858D01*
X296284286Y-65139286D01*
X90234286Y-84167858D02*
X90320001Y-84196429D01*
X90462858Y-84196429D01*
X90520001Y-84167858D01*
X90548572Y-84139286D01*
X90577143Y-84082143D01*
X90577143Y-84025001D01*
X90548572Y-83967858D01*
X90520001Y-83939286D01*
X90462858Y-83910715D01*
X90348572Y-83882143D01*
X90291429Y-83853572D01*
X90262858Y-83825001D01*
X90234286Y-83767858D01*
X90234286Y-83710715D01*
X90262858Y-83653572D01*
X90291429Y-83625001D01*
X90348572Y-83596429D01*
X90491429Y-83596429D01*
X90577143Y-83625001D01*
X90777143Y-83596429D02*
X90920001Y-84196429D01*
X91034286Y-83767858D01*
X91148572Y-84196429D01*
X91291429Y-83596429D01*
X91491429Y-83653572D02*
X91520001Y-83625001D01*
X91577143Y-83596429D01*
X91720001Y-83596429D01*
X91777143Y-83625001D01*
X91805715Y-83653572D01*
X91834286Y-83710715D01*
X91834286Y-83767858D01*
X91805715Y-83853572D01*
X91462858Y-84196429D01*
X91834286Y-84196429D01*
X92348572Y-83796429D02*
X92348572Y-84196429D01*
X92205715Y-83567858D02*
X92062858Y-83996429D01*
X92434286Y-83996429D01*
X109234286Y-84167858D02*
X109320001Y-84196429D01*
X109462858Y-84196429D01*
X109520001Y-84167858D01*
X109548572Y-84139286D01*
X109577143Y-84082143D01*
X109577143Y-84025001D01*
X109548572Y-83967858D01*
X109520001Y-83939286D01*
X109462858Y-83910715D01*
X109348572Y-83882143D01*
X109291429Y-83853572D01*
X109262858Y-83825001D01*
X109234286Y-83767858D01*
X109234286Y-83710715D01*
X109262858Y-83653572D01*
X109291429Y-83625001D01*
X109348572Y-83596429D01*
X109491429Y-83596429D01*
X109577143Y-83625001D01*
X109777143Y-83596429D02*
X109920001Y-84196429D01*
X110034286Y-83767858D01*
X110148572Y-84196429D01*
X110291429Y-83596429D01*
X110491429Y-83653572D02*
X110520001Y-83625001D01*
X110577143Y-83596429D01*
X110720001Y-83596429D01*
X110777143Y-83625001D01*
X110805715Y-83653572D01*
X110834286Y-83710715D01*
X110834286Y-83767858D01*
X110805715Y-83853572D01*
X110462858Y-84196429D01*
X110834286Y-84196429D01*
X111377143Y-83596429D02*
X111091429Y-83596429D01*
X111062858Y-83882143D01*
X111091429Y-83853572D01*
X111148572Y-83825001D01*
X111291429Y-83825001D01*
X111348572Y-83853572D01*
X111377143Y-83882143D01*
X111405715Y-83939286D01*
X111405715Y-84082143D01*
X111377143Y-84139286D01*
X111348572Y-84167858D01*
X111291429Y-84196429D01*
X111148572Y-84196429D01*
X111091429Y-84167858D01*
X111062858Y-84139286D01*
X128234286Y-84167858D02*
X128320001Y-84196429D01*
X128462858Y-84196429D01*
X128520001Y-84167858D01*
X128548572Y-84139286D01*
X128577143Y-84082143D01*
X128577143Y-84025001D01*
X128548572Y-83967858D01*
X128520001Y-83939286D01*
X128462858Y-83910715D01*
X128348572Y-83882143D01*
X128291429Y-83853572D01*
X128262858Y-83825001D01*
X128234286Y-83767858D01*
X128234286Y-83710715D01*
X128262858Y-83653572D01*
X128291429Y-83625001D01*
X128348572Y-83596429D01*
X128491429Y-83596429D01*
X128577143Y-83625001D01*
X128777143Y-83596429D02*
X128920001Y-84196429D01*
X129034286Y-83767858D01*
X129148572Y-84196429D01*
X129291429Y-83596429D01*
X129491429Y-83653572D02*
X129520001Y-83625001D01*
X129577143Y-83596429D01*
X129720001Y-83596429D01*
X129777143Y-83625001D01*
X129805715Y-83653572D01*
X129834286Y-83710715D01*
X129834286Y-83767858D01*
X129805715Y-83853572D01*
X129462858Y-84196429D01*
X129834286Y-84196429D01*
X130348572Y-83596429D02*
X130234286Y-83596429D01*
X130177143Y-83625001D01*
X130148572Y-83653572D01*
X130091429Y-83739286D01*
X130062858Y-83853572D01*
X130062858Y-84082143D01*
X130091429Y-84139286D01*
X130120001Y-84167858D01*
X130177143Y-84196429D01*
X130291429Y-84196429D01*
X130348572Y-84167858D01*
X130377143Y-84139286D01*
X130405715Y-84082143D01*
X130405715Y-83939286D01*
X130377143Y-83882143D01*
X130348572Y-83853572D01*
X130291429Y-83825001D01*
X130177143Y-83825001D01*
X130120001Y-83853572D01*
X130091429Y-83882143D01*
X130062858Y-83939286D01*
X147234286Y-84167858D02*
X147320001Y-84196429D01*
X147462858Y-84196429D01*
X147520001Y-84167858D01*
X147548572Y-84139286D01*
X147577143Y-84082143D01*
X147577143Y-84025001D01*
X147548572Y-83967858D01*
X147520001Y-83939286D01*
X147462858Y-83910715D01*
X147348572Y-83882143D01*
X147291429Y-83853572D01*
X147262858Y-83825001D01*
X147234286Y-83767858D01*
X147234286Y-83710715D01*
X147262858Y-83653572D01*
X147291429Y-83625001D01*
X147348572Y-83596429D01*
X147491429Y-83596429D01*
X147577143Y-83625001D01*
X147777143Y-83596429D02*
X147920001Y-84196429D01*
X148034286Y-83767858D01*
X148148572Y-84196429D01*
X148291429Y-83596429D01*
X148491429Y-83653572D02*
X148520001Y-83625001D01*
X148577143Y-83596429D01*
X148720001Y-83596429D01*
X148777143Y-83625001D01*
X148805715Y-83653572D01*
X148834286Y-83710715D01*
X148834286Y-83767858D01*
X148805715Y-83853572D01*
X148462858Y-84196429D01*
X148834286Y-84196429D01*
X149034286Y-83596429D02*
X149434286Y-83596429D01*
X149177143Y-84196429D01*
X166234286Y-84167858D02*
X166320001Y-84196429D01*
X166462858Y-84196429D01*
X166520001Y-84167858D01*
X166548572Y-84139286D01*
X166577143Y-84082143D01*
X166577143Y-84025001D01*
X166548572Y-83967858D01*
X166520001Y-83939286D01*
X166462858Y-83910715D01*
X166348572Y-83882143D01*
X166291429Y-83853572D01*
X166262858Y-83825001D01*
X166234286Y-83767858D01*
X166234286Y-83710715D01*
X166262858Y-83653572D01*
X166291429Y-83625001D01*
X166348572Y-83596429D01*
X166491429Y-83596429D01*
X166577143Y-83625001D01*
X166777143Y-83596429D02*
X166920001Y-84196429D01*
X167034286Y-83767858D01*
X167148572Y-84196429D01*
X167291429Y-83596429D01*
X167491429Y-83653572D02*
X167520001Y-83625001D01*
X167577143Y-83596429D01*
X167720001Y-83596429D01*
X167777143Y-83625001D01*
X167805715Y-83653572D01*
X167834286Y-83710715D01*
X167834286Y-83767858D01*
X167805715Y-83853572D01*
X167462858Y-84196429D01*
X167834286Y-84196429D01*
X168177143Y-83853572D02*
X168120001Y-83825001D01*
X168091429Y-83796429D01*
X168062858Y-83739286D01*
X168062858Y-83710715D01*
X168091429Y-83653572D01*
X168120001Y-83625001D01*
X168177143Y-83596429D01*
X168291429Y-83596429D01*
X168348572Y-83625001D01*
X168377143Y-83653572D01*
X168405715Y-83710715D01*
X168405715Y-83739286D01*
X168377143Y-83796429D01*
X168348572Y-83825001D01*
X168291429Y-83853572D01*
X168177143Y-83853572D01*
X168120001Y-83882143D01*
X168091429Y-83910715D01*
X168062858Y-83967858D01*
X168062858Y-84082143D01*
X168091429Y-84139286D01*
X168120001Y-84167858D01*
X168177143Y-84196429D01*
X168291429Y-84196429D01*
X168348572Y-84167858D01*
X168377143Y-84139286D01*
X168405715Y-84082143D01*
X168405715Y-83967858D01*
X168377143Y-83910715D01*
X168348572Y-83882143D01*
X168291429Y-83853572D01*
X185234286Y-84167858D02*
X185320001Y-84196429D01*
X185462858Y-84196429D01*
X185520001Y-84167858D01*
X185548572Y-84139286D01*
X185577143Y-84082143D01*
X185577143Y-84025001D01*
X185548572Y-83967858D01*
X185520001Y-83939286D01*
X185462858Y-83910715D01*
X185348572Y-83882143D01*
X185291429Y-83853572D01*
X185262858Y-83825001D01*
X185234286Y-83767858D01*
X185234286Y-83710715D01*
X185262858Y-83653572D01*
X185291429Y-83625001D01*
X185348572Y-83596429D01*
X185491429Y-83596429D01*
X185577143Y-83625001D01*
X185777143Y-83596429D02*
X185920001Y-84196429D01*
X186034286Y-83767858D01*
X186148572Y-84196429D01*
X186291429Y-83596429D01*
X186491429Y-83653572D02*
X186520001Y-83625001D01*
X186577143Y-83596429D01*
X186720001Y-83596429D01*
X186777143Y-83625001D01*
X186805715Y-83653572D01*
X186834286Y-83710715D01*
X186834286Y-83767858D01*
X186805715Y-83853572D01*
X186462858Y-84196429D01*
X186834286Y-84196429D01*
X187120001Y-84196429D02*
X187234286Y-84196429D01*
X187291429Y-84167858D01*
X187320001Y-84139286D01*
X187377143Y-84053572D01*
X187405715Y-83939286D01*
X187405715Y-83710715D01*
X187377143Y-83653572D01*
X187348572Y-83625001D01*
X187291429Y-83596429D01*
X187177143Y-83596429D01*
X187120001Y-83625001D01*
X187091429Y-83653572D01*
X187062858Y-83710715D01*
X187062858Y-83853572D01*
X187091429Y-83910715D01*
X187120001Y-83939286D01*
X187177143Y-83967858D01*
X187291429Y-83967858D01*
X187348572Y-83939286D01*
X187377143Y-83910715D01*
X187405715Y-83853572D01*
X204234286Y-84167858D02*
X204320001Y-84196429D01*
X204462858Y-84196429D01*
X204520001Y-84167858D01*
X204548572Y-84139286D01*
X204577143Y-84082143D01*
X204577143Y-84025001D01*
X204548572Y-83967858D01*
X204520001Y-83939286D01*
X204462858Y-83910715D01*
X204348572Y-83882143D01*
X204291429Y-83853572D01*
X204262858Y-83825001D01*
X204234286Y-83767858D01*
X204234286Y-83710715D01*
X204262858Y-83653572D01*
X204291429Y-83625001D01*
X204348572Y-83596429D01*
X204491429Y-83596429D01*
X204577143Y-83625001D01*
X204777143Y-83596429D02*
X204920001Y-84196429D01*
X205034286Y-83767858D01*
X205148572Y-84196429D01*
X205291429Y-83596429D01*
X205462858Y-83596429D02*
X205834286Y-83596429D01*
X205634286Y-83825001D01*
X205720001Y-83825001D01*
X205777143Y-83853572D01*
X205805715Y-83882143D01*
X205834286Y-83939286D01*
X205834286Y-84082143D01*
X205805715Y-84139286D01*
X205777143Y-84167858D01*
X205720001Y-84196429D01*
X205548572Y-84196429D01*
X205491429Y-84167858D01*
X205462858Y-84139286D01*
X206205715Y-83596429D02*
X206262858Y-83596429D01*
X206320001Y-83625001D01*
X206348572Y-83653572D01*
X206377143Y-83710715D01*
X206405715Y-83825001D01*
X206405715Y-83967858D01*
X206377143Y-84082143D01*
X206348572Y-84139286D01*
X206320001Y-84167858D01*
X206262858Y-84196429D01*
X206205715Y-84196429D01*
X206148572Y-84167858D01*
X206120001Y-84139286D01*
X206091429Y-84082143D01*
X206062858Y-83967858D01*
X206062858Y-83825001D01*
X206091429Y-83710715D01*
X206120001Y-83653572D01*
X206148572Y-83625001D01*
X206205715Y-83596429D01*
X223234286Y-84167858D02*
X223320001Y-84196429D01*
X223462858Y-84196429D01*
X223520001Y-84167858D01*
X223548572Y-84139286D01*
X223577143Y-84082143D01*
X223577143Y-84025001D01*
X223548572Y-83967858D01*
X223520001Y-83939286D01*
X223462858Y-83910715D01*
X223348572Y-83882143D01*
X223291429Y-83853572D01*
X223262858Y-83825001D01*
X223234286Y-83767858D01*
X223234286Y-83710715D01*
X223262858Y-83653572D01*
X223291429Y-83625001D01*
X223348572Y-83596429D01*
X223491429Y-83596429D01*
X223577143Y-83625001D01*
X223777143Y-83596429D02*
X223920001Y-84196429D01*
X224034286Y-83767858D01*
X224148572Y-84196429D01*
X224291429Y-83596429D01*
X224462858Y-83596429D02*
X224834286Y-83596429D01*
X224634286Y-83825001D01*
X224720001Y-83825001D01*
X224777143Y-83853572D01*
X224805715Y-83882143D01*
X224834286Y-83939286D01*
X224834286Y-84082143D01*
X224805715Y-84139286D01*
X224777143Y-84167858D01*
X224720001Y-84196429D01*
X224548572Y-84196429D01*
X224491429Y-84167858D01*
X224462858Y-84139286D01*
X225405715Y-84196429D02*
X225062858Y-84196429D01*
X225234286Y-84196429D02*
X225234286Y-83596429D01*
X225177143Y-83682143D01*
X225120001Y-83739286D01*
X225062858Y-83767858D01*
X242234286Y-84167858D02*
X242320001Y-84196429D01*
X242462858Y-84196429D01*
X242520001Y-84167858D01*
X242548572Y-84139286D01*
X242577143Y-84082143D01*
X242577143Y-84025001D01*
X242548572Y-83967858D01*
X242520001Y-83939286D01*
X242462858Y-83910715D01*
X242348572Y-83882143D01*
X242291429Y-83853572D01*
X242262858Y-83825001D01*
X242234286Y-83767858D01*
X242234286Y-83710715D01*
X242262858Y-83653572D01*
X242291429Y-83625001D01*
X242348572Y-83596429D01*
X242491429Y-83596429D01*
X242577143Y-83625001D01*
X242777143Y-83596429D02*
X242920001Y-84196429D01*
X243034286Y-83767858D01*
X243148572Y-84196429D01*
X243291429Y-83596429D01*
X243462858Y-83596429D02*
X243834286Y-83596429D01*
X243634286Y-83825001D01*
X243720001Y-83825001D01*
X243777143Y-83853572D01*
X243805715Y-83882143D01*
X243834286Y-83939286D01*
X243834286Y-84082143D01*
X243805715Y-84139286D01*
X243777143Y-84167858D01*
X243720001Y-84196429D01*
X243548572Y-84196429D01*
X243491429Y-84167858D01*
X243462858Y-84139286D01*
X244062858Y-83653572D02*
X244091429Y-83625001D01*
X244148572Y-83596429D01*
X244291429Y-83596429D01*
X244348572Y-83625001D01*
X244377143Y-83653572D01*
X244405715Y-83710715D01*
X244405715Y-83767858D01*
X244377143Y-83853572D01*
X244034286Y-84196429D01*
X244405715Y-84196429D01*
X261234286Y-84167858D02*
X261320001Y-84196429D01*
X261462858Y-84196429D01*
X261520001Y-84167858D01*
X261548572Y-84139286D01*
X261577143Y-84082143D01*
X261577143Y-84025001D01*
X261548572Y-83967858D01*
X261520001Y-83939286D01*
X261462858Y-83910715D01*
X261348572Y-83882143D01*
X261291429Y-83853572D01*
X261262858Y-83825001D01*
X261234286Y-83767858D01*
X261234286Y-83710715D01*
X261262858Y-83653572D01*
X261291429Y-83625001D01*
X261348572Y-83596429D01*
X261491429Y-83596429D01*
X261577143Y-83625001D01*
X261777143Y-83596429D02*
X261920001Y-84196429D01*
X262034286Y-83767858D01*
X262148572Y-84196429D01*
X262291429Y-83596429D01*
X262462858Y-83596429D02*
X262834286Y-83596429D01*
X262634286Y-83825001D01*
X262720001Y-83825001D01*
X262777143Y-83853572D01*
X262805715Y-83882143D01*
X262834286Y-83939286D01*
X262834286Y-84082143D01*
X262805715Y-84139286D01*
X262777143Y-84167858D01*
X262720001Y-84196429D01*
X262548572Y-84196429D01*
X262491429Y-84167858D01*
X262462858Y-84139286D01*
X263034286Y-83596429D02*
X263405715Y-83596429D01*
X263205715Y-83825001D01*
X263291429Y-83825001D01*
X263348572Y-83853572D01*
X263377143Y-83882143D01*
X263405715Y-83939286D01*
X263405715Y-84082143D01*
X263377143Y-84139286D01*
X263348572Y-84167858D01*
X263291429Y-84196429D01*
X263120001Y-84196429D01*
X263062858Y-84167858D01*
X263034286Y-84139286D01*
X280234286Y-84167858D02*
X280320001Y-84196429D01*
X280462858Y-84196429D01*
X280520001Y-84167858D01*
X280548572Y-84139286D01*
X280577143Y-84082143D01*
X280577143Y-84025001D01*
X280548572Y-83967858D01*
X280520001Y-83939286D01*
X280462858Y-83910715D01*
X280348572Y-83882143D01*
X280291429Y-83853572D01*
X280262858Y-83825001D01*
X280234286Y-83767858D01*
X280234286Y-83710715D01*
X280262858Y-83653572D01*
X280291429Y-83625001D01*
X280348572Y-83596429D01*
X280491429Y-83596429D01*
X280577143Y-83625001D01*
X280777143Y-83596429D02*
X280920001Y-84196429D01*
X281034286Y-83767858D01*
X281148572Y-84196429D01*
X281291429Y-83596429D01*
X281462858Y-83596429D02*
X281834286Y-83596429D01*
X281634286Y-83825001D01*
X281720001Y-83825001D01*
X281777143Y-83853572D01*
X281805715Y-83882143D01*
X281834286Y-83939286D01*
X281834286Y-84082143D01*
X281805715Y-84139286D01*
X281777143Y-84167858D01*
X281720001Y-84196429D01*
X281548572Y-84196429D01*
X281491429Y-84167858D01*
X281462858Y-84139286D01*
X282348572Y-83796429D02*
X282348572Y-84196429D01*
X282205715Y-83567858D02*
X282062858Y-83996429D01*
X282434286Y-83996429D01*
X299234286Y-84167858D02*
X299320001Y-84196429D01*
X299462858Y-84196429D01*
X299520001Y-84167858D01*
X299548572Y-84139286D01*
X299577143Y-84082143D01*
X299577143Y-84025001D01*
X299548572Y-83967858D01*
X299520001Y-83939286D01*
X299462858Y-83910715D01*
X299348572Y-83882143D01*
X299291429Y-83853572D01*
X299262858Y-83825001D01*
X299234286Y-83767858D01*
X299234286Y-83710715D01*
X299262858Y-83653572D01*
X299291429Y-83625001D01*
X299348572Y-83596429D01*
X299491429Y-83596429D01*
X299577143Y-83625001D01*
X299777143Y-83596429D02*
X299920001Y-84196429D01*
X300034286Y-83767858D01*
X300148572Y-84196429D01*
X300291429Y-83596429D01*
X300462858Y-83596429D02*
X300834286Y-83596429D01*
X300634286Y-83825001D01*
X300720001Y-83825001D01*
X300777143Y-83853572D01*
X300805715Y-83882143D01*
X300834286Y-83939286D01*
X300834286Y-84082143D01*
X300805715Y-84139286D01*
X300777143Y-84167858D01*
X300720001Y-84196429D01*
X300548572Y-84196429D01*
X300491429Y-84167858D01*
X300462858Y-84139286D01*
X301377143Y-83596429D02*
X301091429Y-83596429D01*
X301062858Y-83882143D01*
X301091429Y-83853572D01*
X301148572Y-83825001D01*
X301291429Y-83825001D01*
X301348572Y-83853572D01*
X301377143Y-83882143D01*
X301405715Y-83939286D01*
X301405715Y-84082143D01*
X301377143Y-84139286D01*
X301348572Y-84167858D01*
X301291429Y-84196429D01*
X301148572Y-84196429D01*
X301091429Y-84167858D01*
X301062858Y-84139286D01*
X94984286Y-103167858D02*
X95070001Y-103196429D01*
X95212858Y-103196429D01*
X95270001Y-103167858D01*
X95298572Y-103139286D01*
X95327143Y-103082143D01*
X95327143Y-103025001D01*
X95298572Y-102967858D01*
X95270001Y-102939286D01*
X95212858Y-102910715D01*
X95098572Y-102882143D01*
X95041429Y-102853572D01*
X95012858Y-102825001D01*
X94984286Y-102767858D01*
X94984286Y-102710715D01*
X95012858Y-102653572D01*
X95041429Y-102625001D01*
X95098572Y-102596429D01*
X95241429Y-102596429D01*
X95327143Y-102625001D01*
X95527143Y-102596429D02*
X95670001Y-103196429D01*
X95784286Y-102767858D01*
X95898572Y-103196429D01*
X96041429Y-102596429D01*
X96212858Y-102596429D02*
X96584286Y-102596429D01*
X96384286Y-102825001D01*
X96470001Y-102825001D01*
X96527143Y-102853572D01*
X96555715Y-102882143D01*
X96584286Y-102939286D01*
X96584286Y-103082143D01*
X96555715Y-103139286D01*
X96527143Y-103167858D01*
X96470001Y-103196429D01*
X96298572Y-103196429D01*
X96241429Y-103167858D01*
X96212858Y-103139286D01*
X97098572Y-102596429D02*
X96984286Y-102596429D01*
X96927143Y-102625001D01*
X96898572Y-102653572D01*
X96841429Y-102739286D01*
X96812858Y-102853572D01*
X96812858Y-103082143D01*
X96841429Y-103139286D01*
X96870001Y-103167858D01*
X96927143Y-103196429D01*
X97041429Y-103196429D01*
X97098572Y-103167858D01*
X97127143Y-103139286D01*
X97155715Y-103082143D01*
X97155715Y-102939286D01*
X97127143Y-102882143D01*
X97098572Y-102853572D01*
X97041429Y-102825001D01*
X96927143Y-102825001D01*
X96870001Y-102853572D01*
X96841429Y-102882143D01*
X96812858Y-102939286D01*
X113984286Y-103167858D02*
X114070001Y-103196429D01*
X114212858Y-103196429D01*
X114270001Y-103167858D01*
X114298572Y-103139286D01*
X114327143Y-103082143D01*
X114327143Y-103025001D01*
X114298572Y-102967858D01*
X114270001Y-102939286D01*
X114212858Y-102910715D01*
X114098572Y-102882143D01*
X114041429Y-102853572D01*
X114012858Y-102825001D01*
X113984286Y-102767858D01*
X113984286Y-102710715D01*
X114012858Y-102653572D01*
X114041429Y-102625001D01*
X114098572Y-102596429D01*
X114241429Y-102596429D01*
X114327143Y-102625001D01*
X114527143Y-102596429D02*
X114670001Y-103196429D01*
X114784286Y-102767858D01*
X114898572Y-103196429D01*
X115041429Y-102596429D01*
X115212858Y-102596429D02*
X115584286Y-102596429D01*
X115384286Y-102825001D01*
X115470001Y-102825001D01*
X115527143Y-102853572D01*
X115555715Y-102882143D01*
X115584286Y-102939286D01*
X115584286Y-103082143D01*
X115555715Y-103139286D01*
X115527143Y-103167858D01*
X115470001Y-103196429D01*
X115298572Y-103196429D01*
X115241429Y-103167858D01*
X115212858Y-103139286D01*
X115784286Y-102596429D02*
X116184286Y-102596429D01*
X115927143Y-103196429D01*
X132984286Y-103167858D02*
X133070001Y-103196429D01*
X133212858Y-103196429D01*
X133270001Y-103167858D01*
X133298572Y-103139286D01*
X133327143Y-103082143D01*
X133327143Y-103025001D01*
X133298572Y-102967858D01*
X133270001Y-102939286D01*
X133212858Y-102910715D01*
X133098572Y-102882143D01*
X133041429Y-102853572D01*
X133012858Y-102825001D01*
X132984286Y-102767858D01*
X132984286Y-102710715D01*
X133012858Y-102653572D01*
X133041429Y-102625001D01*
X133098572Y-102596429D01*
X133241429Y-102596429D01*
X133327143Y-102625001D01*
X133527143Y-102596429D02*
X133670001Y-103196429D01*
X133784286Y-102767858D01*
X133898572Y-103196429D01*
X134041429Y-102596429D01*
X134212858Y-102596429D02*
X134584286Y-102596429D01*
X134384286Y-102825001D01*
X134470001Y-102825001D01*
X134527143Y-102853572D01*
X134555715Y-102882143D01*
X134584286Y-102939286D01*
X134584286Y-103082143D01*
X134555715Y-103139286D01*
X134527143Y-103167858D01*
X134470001Y-103196429D01*
X134298572Y-103196429D01*
X134241429Y-103167858D01*
X134212858Y-103139286D01*
X134927143Y-102853572D02*
X134870001Y-102825001D01*
X134841429Y-102796429D01*
X134812858Y-102739286D01*
X134812858Y-102710715D01*
X134841429Y-102653572D01*
X134870001Y-102625001D01*
X134927143Y-102596429D01*
X135041429Y-102596429D01*
X135098572Y-102625001D01*
X135127143Y-102653572D01*
X135155715Y-102710715D01*
X135155715Y-102739286D01*
X135127143Y-102796429D01*
X135098572Y-102825001D01*
X135041429Y-102853572D01*
X134927143Y-102853572D01*
X134870001Y-102882143D01*
X134841429Y-102910715D01*
X134812858Y-102967858D01*
X134812858Y-103082143D01*
X134841429Y-103139286D01*
X134870001Y-103167858D01*
X134927143Y-103196429D01*
X135041429Y-103196429D01*
X135098572Y-103167858D01*
X135127143Y-103139286D01*
X135155715Y-103082143D01*
X135155715Y-102967858D01*
X135127143Y-102910715D01*
X135098572Y-102882143D01*
X135041429Y-102853572D01*
X170984286Y-103167858D02*
X171070001Y-103196429D01*
X171212858Y-103196429D01*
X171270001Y-103167858D01*
X171298572Y-103139286D01*
X171327143Y-103082143D01*
X171327143Y-103025001D01*
X171298572Y-102967858D01*
X171270001Y-102939286D01*
X171212858Y-102910715D01*
X171098572Y-102882143D01*
X171041429Y-102853572D01*
X171012858Y-102825001D01*
X170984286Y-102767858D01*
X170984286Y-102710715D01*
X171012858Y-102653572D01*
X171041429Y-102625001D01*
X171098572Y-102596429D01*
X171241429Y-102596429D01*
X171327143Y-102625001D01*
X171527143Y-102596429D02*
X171670001Y-103196429D01*
X171784286Y-102767858D01*
X171898572Y-103196429D01*
X172041429Y-102596429D01*
X172527143Y-102796429D02*
X172527143Y-103196429D01*
X172384286Y-102567858D02*
X172241429Y-102996429D01*
X172612858Y-102996429D01*
X172955715Y-102596429D02*
X173012858Y-102596429D01*
X173070001Y-102625001D01*
X173098572Y-102653572D01*
X173127143Y-102710715D01*
X173155715Y-102825001D01*
X173155715Y-102967858D01*
X173127143Y-103082143D01*
X173098572Y-103139286D01*
X173070001Y-103167858D01*
X173012858Y-103196429D01*
X172955715Y-103196429D01*
X172898572Y-103167858D01*
X172870001Y-103139286D01*
X172841429Y-103082143D01*
X172812858Y-102967858D01*
X172812858Y-102825001D01*
X172841429Y-102710715D01*
X172870001Y-102653572D01*
X172898572Y-102625001D01*
X172955715Y-102596429D01*
X189984286Y-103167858D02*
X190070001Y-103196429D01*
X190212858Y-103196429D01*
X190270001Y-103167858D01*
X190298572Y-103139286D01*
X190327143Y-103082143D01*
X190327143Y-103025001D01*
X190298572Y-102967858D01*
X190270001Y-102939286D01*
X190212858Y-102910715D01*
X190098572Y-102882143D01*
X190041429Y-102853572D01*
X190012858Y-102825001D01*
X189984286Y-102767858D01*
X189984286Y-102710715D01*
X190012858Y-102653572D01*
X190041429Y-102625001D01*
X190098572Y-102596429D01*
X190241429Y-102596429D01*
X190327143Y-102625001D01*
X190527143Y-102596429D02*
X190670001Y-103196429D01*
X190784286Y-102767858D01*
X190898572Y-103196429D01*
X191041429Y-102596429D01*
X191527143Y-102796429D02*
X191527143Y-103196429D01*
X191384286Y-102567858D02*
X191241429Y-102996429D01*
X191612858Y-102996429D01*
X192155715Y-103196429D02*
X191812858Y-103196429D01*
X191984286Y-103196429D02*
X191984286Y-102596429D01*
X191927143Y-102682143D01*
X191870001Y-102739286D01*
X191812858Y-102767858D01*
X208984286Y-103167858D02*
X209070001Y-103196429D01*
X209212858Y-103196429D01*
X209270001Y-103167858D01*
X209298572Y-103139286D01*
X209327143Y-103082143D01*
X209327143Y-103025001D01*
X209298572Y-102967858D01*
X209270001Y-102939286D01*
X209212858Y-102910715D01*
X209098572Y-102882143D01*
X209041429Y-102853572D01*
X209012858Y-102825001D01*
X208984286Y-102767858D01*
X208984286Y-102710715D01*
X209012858Y-102653572D01*
X209041429Y-102625001D01*
X209098572Y-102596429D01*
X209241429Y-102596429D01*
X209327143Y-102625001D01*
X209527143Y-102596429D02*
X209670001Y-103196429D01*
X209784286Y-102767858D01*
X209898572Y-103196429D01*
X210041429Y-102596429D01*
X210527143Y-102796429D02*
X210527143Y-103196429D01*
X210384286Y-102567858D02*
X210241429Y-102996429D01*
X210612858Y-102996429D01*
X210812858Y-102653572D02*
X210841429Y-102625001D01*
X210898572Y-102596429D01*
X211041429Y-102596429D01*
X211098572Y-102625001D01*
X211127143Y-102653572D01*
X211155715Y-102710715D01*
X211155715Y-102767858D01*
X211127143Y-102853572D01*
X210784286Y-103196429D01*
X211155715Y-103196429D01*
X227984286Y-103167858D02*
X228070001Y-103196429D01*
X228212858Y-103196429D01*
X228270001Y-103167858D01*
X228298572Y-103139286D01*
X228327143Y-103082143D01*
X228327143Y-103025001D01*
X228298572Y-102967858D01*
X228270001Y-102939286D01*
X228212858Y-102910715D01*
X228098572Y-102882143D01*
X228041429Y-102853572D01*
X228012858Y-102825001D01*
X227984286Y-102767858D01*
X227984286Y-102710715D01*
X228012858Y-102653572D01*
X228041429Y-102625001D01*
X228098572Y-102596429D01*
X228241429Y-102596429D01*
X228327143Y-102625001D01*
X228527143Y-102596429D02*
X228670001Y-103196429D01*
X228784286Y-102767858D01*
X228898572Y-103196429D01*
X229041429Y-102596429D01*
X229527143Y-102796429D02*
X229527143Y-103196429D01*
X229384286Y-102567858D02*
X229241429Y-102996429D01*
X229612858Y-102996429D01*
X229784286Y-102596429D02*
X230155715Y-102596429D01*
X229955715Y-102825001D01*
X230041429Y-102825001D01*
X230098572Y-102853572D01*
X230127143Y-102882143D01*
X230155715Y-102939286D01*
X230155715Y-103082143D01*
X230127143Y-103139286D01*
X230098572Y-103167858D01*
X230041429Y-103196429D01*
X229870001Y-103196429D01*
X229812858Y-103167858D01*
X229784286Y-103139286D01*
X246984286Y-103167858D02*
X247070001Y-103196429D01*
X247212858Y-103196429D01*
X247270001Y-103167858D01*
X247298572Y-103139286D01*
X247327143Y-103082143D01*
X247327143Y-103025001D01*
X247298572Y-102967858D01*
X247270001Y-102939286D01*
X247212858Y-102910715D01*
X247098572Y-102882143D01*
X247041429Y-102853572D01*
X247012858Y-102825001D01*
X246984286Y-102767858D01*
X246984286Y-102710715D01*
X247012858Y-102653572D01*
X247041429Y-102625001D01*
X247098572Y-102596429D01*
X247241429Y-102596429D01*
X247327143Y-102625001D01*
X247527143Y-102596429D02*
X247670001Y-103196429D01*
X247784286Y-102767858D01*
X247898572Y-103196429D01*
X248041429Y-102596429D01*
X248527143Y-102796429D02*
X248527143Y-103196429D01*
X248384286Y-102567858D02*
X248241429Y-102996429D01*
X248612858Y-102996429D01*
X249098572Y-102796429D02*
X249098572Y-103196429D01*
X248955715Y-102567858D02*
X248812858Y-102996429D01*
X249184286Y-102996429D01*
X265984286Y-103167858D02*
X266070001Y-103196429D01*
X266212858Y-103196429D01*
X266270001Y-103167858D01*
X266298572Y-103139286D01*
X266327143Y-103082143D01*
X266327143Y-103025001D01*
X266298572Y-102967858D01*
X266270001Y-102939286D01*
X266212858Y-102910715D01*
X266098572Y-102882143D01*
X266041429Y-102853572D01*
X266012858Y-102825001D01*
X265984286Y-102767858D01*
X265984286Y-102710715D01*
X266012858Y-102653572D01*
X266041429Y-102625001D01*
X266098572Y-102596429D01*
X266241429Y-102596429D01*
X266327143Y-102625001D01*
X266527143Y-102596429D02*
X266670001Y-103196429D01*
X266784286Y-102767858D01*
X266898572Y-103196429D01*
X267041429Y-102596429D01*
X267527143Y-102796429D02*
X267527143Y-103196429D01*
X267384286Y-102567858D02*
X267241429Y-102996429D01*
X267612858Y-102996429D01*
X268127143Y-102596429D02*
X267841429Y-102596429D01*
X267812858Y-102882143D01*
X267841429Y-102853572D01*
X267898572Y-102825001D01*
X268041429Y-102825001D01*
X268098572Y-102853572D01*
X268127143Y-102882143D01*
X268155715Y-102939286D01*
X268155715Y-103082143D01*
X268127143Y-103139286D01*
X268098572Y-103167858D01*
X268041429Y-103196429D01*
X267898572Y-103196429D01*
X267841429Y-103167858D01*
X267812858Y-103139286D01*
X284984286Y-103167858D02*
X285070001Y-103196429D01*
X285212858Y-103196429D01*
X285270001Y-103167858D01*
X285298572Y-103139286D01*
X285327143Y-103082143D01*
X285327143Y-103025001D01*
X285298572Y-102967858D01*
X285270001Y-102939286D01*
X285212858Y-102910715D01*
X285098572Y-102882143D01*
X285041429Y-102853572D01*
X285012858Y-102825001D01*
X284984286Y-102767858D01*
X284984286Y-102710715D01*
X285012858Y-102653572D01*
X285041429Y-102625001D01*
X285098572Y-102596429D01*
X285241429Y-102596429D01*
X285327143Y-102625001D01*
X285527143Y-102596429D02*
X285670001Y-103196429D01*
X285784286Y-102767858D01*
X285898572Y-103196429D01*
X286041429Y-102596429D01*
X286527143Y-102796429D02*
X286527143Y-103196429D01*
X286384286Y-102567858D02*
X286241429Y-102996429D01*
X286612858Y-102996429D01*
X287098572Y-102596429D02*
X286984286Y-102596429D01*
X286927143Y-102625001D01*
X286898572Y-102653572D01*
X286841429Y-102739286D01*
X286812858Y-102853572D01*
X286812858Y-103082143D01*
X286841429Y-103139286D01*
X286870001Y-103167858D01*
X286927143Y-103196429D01*
X287041429Y-103196429D01*
X287098572Y-103167858D01*
X287127143Y-103139286D01*
X287155715Y-103082143D01*
X287155715Y-102939286D01*
X287127143Y-102882143D01*
X287098572Y-102853572D01*
X287041429Y-102825001D01*
X286927143Y-102825001D01*
X286870001Y-102853572D01*
X286841429Y-102882143D01*
X286812858Y-102939286D01*
X303984286Y-103167858D02*
X304070001Y-103196429D01*
X304212858Y-103196429D01*
X304270001Y-103167858D01*
X304298572Y-103139286D01*
X304327143Y-103082143D01*
X304327143Y-103025001D01*
X304298572Y-102967858D01*
X304270001Y-102939286D01*
X304212858Y-102910715D01*
X304098572Y-102882143D01*
X304041429Y-102853572D01*
X304012858Y-102825001D01*
X303984286Y-102767858D01*
X303984286Y-102710715D01*
X304012858Y-102653572D01*
X304041429Y-102625001D01*
X304098572Y-102596429D01*
X304241429Y-102596429D01*
X304327143Y-102625001D01*
X304527143Y-102596429D02*
X304670001Y-103196429D01*
X304784286Y-102767858D01*
X304898572Y-103196429D01*
X305041429Y-102596429D01*
X305527143Y-102796429D02*
X305527143Y-103196429D01*
X305384286Y-102567858D02*
X305241429Y-102996429D01*
X305612858Y-102996429D01*
X305784286Y-102596429D02*
X306184286Y-102596429D01*
X305927143Y-103196429D01*
X90234286Y-122167858D02*
X90320001Y-122196429D01*
X90462858Y-122196429D01*
X90520001Y-122167858D01*
X90548572Y-122139286D01*
X90577143Y-122082143D01*
X90577143Y-122025001D01*
X90548572Y-121967858D01*
X90520001Y-121939286D01*
X90462858Y-121910715D01*
X90348572Y-121882143D01*
X90291429Y-121853572D01*
X90262858Y-121825001D01*
X90234286Y-121767858D01*
X90234286Y-121710715D01*
X90262858Y-121653572D01*
X90291429Y-121625001D01*
X90348572Y-121596429D01*
X90491429Y-121596429D01*
X90577143Y-121625001D01*
X90777143Y-121596429D02*
X90920001Y-122196429D01*
X91034286Y-121767858D01*
X91148572Y-122196429D01*
X91291429Y-121596429D01*
X91777143Y-121796429D02*
X91777143Y-122196429D01*
X91634286Y-121567858D02*
X91491429Y-121996429D01*
X91862858Y-121996429D01*
X92177143Y-121853572D02*
X92120001Y-121825001D01*
X92091429Y-121796429D01*
X92062858Y-121739286D01*
X92062858Y-121710715D01*
X92091429Y-121653572D01*
X92120001Y-121625001D01*
X92177143Y-121596429D01*
X92291429Y-121596429D01*
X92348572Y-121625001D01*
X92377143Y-121653572D01*
X92405715Y-121710715D01*
X92405715Y-121739286D01*
X92377143Y-121796429D01*
X92348572Y-121825001D01*
X92291429Y-121853572D01*
X92177143Y-121853572D01*
X92120001Y-121882143D01*
X92091429Y-121910715D01*
X92062858Y-121967858D01*
X92062858Y-122082143D01*
X92091429Y-122139286D01*
X92120001Y-122167858D01*
X92177143Y-122196429D01*
X92291429Y-122196429D01*
X92348572Y-122167858D01*
X92377143Y-122139286D01*
X92405715Y-122082143D01*
X92405715Y-121967858D01*
X92377143Y-121910715D01*
X92348572Y-121882143D01*
X92291429Y-121853572D01*
X109234286Y-122167858D02*
X109320001Y-122196429D01*
X109462858Y-122196429D01*
X109520001Y-122167858D01*
X109548572Y-122139286D01*
X109577143Y-122082143D01*
X109577143Y-122025001D01*
X109548572Y-121967858D01*
X109520001Y-121939286D01*
X109462858Y-121910715D01*
X109348572Y-121882143D01*
X109291429Y-121853572D01*
X109262858Y-121825001D01*
X109234286Y-121767858D01*
X109234286Y-121710715D01*
X109262858Y-121653572D01*
X109291429Y-121625001D01*
X109348572Y-121596429D01*
X109491429Y-121596429D01*
X109577143Y-121625001D01*
X109777143Y-121596429D02*
X109920001Y-122196429D01*
X110034286Y-121767858D01*
X110148572Y-122196429D01*
X110291429Y-121596429D01*
X110777143Y-121796429D02*
X110777143Y-122196429D01*
X110634286Y-121567858D02*
X110491429Y-121996429D01*
X110862858Y-121996429D01*
X111120001Y-122196429D02*
X111234286Y-122196429D01*
X111291429Y-122167858D01*
X111320001Y-122139286D01*
X111377143Y-122053572D01*
X111405715Y-121939286D01*
X111405715Y-121710715D01*
X111377143Y-121653572D01*
X111348572Y-121625001D01*
X111291429Y-121596429D01*
X111177143Y-121596429D01*
X111120001Y-121625001D01*
X111091429Y-121653572D01*
X111062858Y-121710715D01*
X111062858Y-121853572D01*
X111091429Y-121910715D01*
X111120001Y-121939286D01*
X111177143Y-121967858D01*
X111291429Y-121967858D01*
X111348572Y-121939286D01*
X111377143Y-121910715D01*
X111405715Y-121853572D01*
X128234286Y-122167858D02*
X128320001Y-122196429D01*
X128462858Y-122196429D01*
X128520001Y-122167858D01*
X128548572Y-122139286D01*
X128577143Y-122082143D01*
X128577143Y-122025001D01*
X128548572Y-121967858D01*
X128520001Y-121939286D01*
X128462858Y-121910715D01*
X128348572Y-121882143D01*
X128291429Y-121853572D01*
X128262858Y-121825001D01*
X128234286Y-121767858D01*
X128234286Y-121710715D01*
X128262858Y-121653572D01*
X128291429Y-121625001D01*
X128348572Y-121596429D01*
X128491429Y-121596429D01*
X128577143Y-121625001D01*
X128777143Y-121596429D02*
X128920001Y-122196429D01*
X129034286Y-121767858D01*
X129148572Y-122196429D01*
X129291429Y-121596429D01*
X129805715Y-121596429D02*
X129520001Y-121596429D01*
X129491429Y-121882143D01*
X129520001Y-121853572D01*
X129577143Y-121825001D01*
X129720001Y-121825001D01*
X129777143Y-121853572D01*
X129805715Y-121882143D01*
X129834286Y-121939286D01*
X129834286Y-122082143D01*
X129805715Y-122139286D01*
X129777143Y-122167858D01*
X129720001Y-122196429D01*
X129577143Y-122196429D01*
X129520001Y-122167858D01*
X129491429Y-122139286D01*
X130205715Y-121596429D02*
X130262858Y-121596429D01*
X130320001Y-121625001D01*
X130348572Y-121653572D01*
X130377143Y-121710715D01*
X130405715Y-121825001D01*
X130405715Y-121967858D01*
X130377143Y-122082143D01*
X130348572Y-122139286D01*
X130320001Y-122167858D01*
X130262858Y-122196429D01*
X130205715Y-122196429D01*
X130148572Y-122167858D01*
X130120001Y-122139286D01*
X130091429Y-122082143D01*
X130062858Y-121967858D01*
X130062858Y-121825001D01*
X130091429Y-121710715D01*
X130120001Y-121653572D01*
X130148572Y-121625001D01*
X130205715Y-121596429D01*
X147234286Y-122167858D02*
X147320001Y-122196429D01*
X147462858Y-122196429D01*
X147520001Y-122167858D01*
X147548572Y-122139286D01*
X147577143Y-122082143D01*
X147577143Y-122025001D01*
X147548572Y-121967858D01*
X147520001Y-121939286D01*
X147462858Y-121910715D01*
X147348572Y-121882143D01*
X147291429Y-121853572D01*
X147262858Y-121825001D01*
X147234286Y-121767858D01*
X147234286Y-121710715D01*
X147262858Y-121653572D01*
X147291429Y-121625001D01*
X147348572Y-121596429D01*
X147491429Y-121596429D01*
X147577143Y-121625001D01*
X147777143Y-121596429D02*
X147920001Y-122196429D01*
X148034286Y-121767858D01*
X148148572Y-122196429D01*
X148291429Y-121596429D01*
X148805715Y-121596429D02*
X148520001Y-121596429D01*
X148491429Y-121882143D01*
X148520001Y-121853572D01*
X148577143Y-121825001D01*
X148720001Y-121825001D01*
X148777143Y-121853572D01*
X148805715Y-121882143D01*
X148834286Y-121939286D01*
X148834286Y-122082143D01*
X148805715Y-122139286D01*
X148777143Y-122167858D01*
X148720001Y-122196429D01*
X148577143Y-122196429D01*
X148520001Y-122167858D01*
X148491429Y-122139286D01*
X149405715Y-122196429D02*
X149062858Y-122196429D01*
X149234286Y-122196429D02*
X149234286Y-121596429D01*
X149177143Y-121682143D01*
X149120001Y-121739286D01*
X149062858Y-121767858D01*
X166234286Y-122167858D02*
X166320001Y-122196429D01*
X166462858Y-122196429D01*
X166520001Y-122167858D01*
X166548572Y-122139286D01*
X166577143Y-122082143D01*
X166577143Y-122025001D01*
X166548572Y-121967858D01*
X166520001Y-121939286D01*
X166462858Y-121910715D01*
X166348572Y-121882143D01*
X166291429Y-121853572D01*
X166262858Y-121825001D01*
X166234286Y-121767858D01*
X166234286Y-121710715D01*
X166262858Y-121653572D01*
X166291429Y-121625001D01*
X166348572Y-121596429D01*
X166491429Y-121596429D01*
X166577143Y-121625001D01*
X166777143Y-121596429D02*
X166920001Y-122196429D01*
X167034286Y-121767858D01*
X167148572Y-122196429D01*
X167291429Y-121596429D01*
X167805715Y-121596429D02*
X167520001Y-121596429D01*
X167491429Y-121882143D01*
X167520001Y-121853572D01*
X167577143Y-121825001D01*
X167720001Y-121825001D01*
X167777143Y-121853572D01*
X167805715Y-121882143D01*
X167834286Y-121939286D01*
X167834286Y-122082143D01*
X167805715Y-122139286D01*
X167777143Y-122167858D01*
X167720001Y-122196429D01*
X167577143Y-122196429D01*
X167520001Y-122167858D01*
X167491429Y-122139286D01*
X168062858Y-121653572D02*
X168091429Y-121625001D01*
X168148572Y-121596429D01*
X168291429Y-121596429D01*
X168348572Y-121625001D01*
X168377143Y-121653572D01*
X168405715Y-121710715D01*
X168405715Y-121767858D01*
X168377143Y-121853572D01*
X168034286Y-122196429D01*
X168405715Y-122196429D01*
X185234286Y-122167858D02*
X185320001Y-122196429D01*
X185462858Y-122196429D01*
X185520001Y-122167858D01*
X185548572Y-122139286D01*
X185577143Y-122082143D01*
X185577143Y-122025001D01*
X185548572Y-121967858D01*
X185520001Y-121939286D01*
X185462858Y-121910715D01*
X185348572Y-121882143D01*
X185291429Y-121853572D01*
X185262858Y-121825001D01*
X185234286Y-121767858D01*
X185234286Y-121710715D01*
X185262858Y-121653572D01*
X185291429Y-121625001D01*
X185348572Y-121596429D01*
X185491429Y-121596429D01*
X185577143Y-121625001D01*
X185777143Y-121596429D02*
X185920001Y-122196429D01*
X186034286Y-121767858D01*
X186148572Y-122196429D01*
X186291429Y-121596429D01*
X186805715Y-121596429D02*
X186520001Y-121596429D01*
X186491429Y-121882143D01*
X186520001Y-121853572D01*
X186577143Y-121825001D01*
X186720001Y-121825001D01*
X186777143Y-121853572D01*
X186805715Y-121882143D01*
X186834286Y-121939286D01*
X186834286Y-122082143D01*
X186805715Y-122139286D01*
X186777143Y-122167858D01*
X186720001Y-122196429D01*
X186577143Y-122196429D01*
X186520001Y-122167858D01*
X186491429Y-122139286D01*
X187034286Y-121596429D02*
X187405715Y-121596429D01*
X187205715Y-121825001D01*
X187291429Y-121825001D01*
X187348572Y-121853572D01*
X187377143Y-121882143D01*
X187405715Y-121939286D01*
X187405715Y-122082143D01*
X187377143Y-122139286D01*
X187348572Y-122167858D01*
X187291429Y-122196429D01*
X187120001Y-122196429D01*
X187062858Y-122167858D01*
X187034286Y-122139286D01*
X204234286Y-122167858D02*
X204320001Y-122196429D01*
X204462858Y-122196429D01*
X204520001Y-122167858D01*
X204548572Y-122139286D01*
X204577143Y-122082143D01*
X204577143Y-122025001D01*
X204548572Y-121967858D01*
X204520001Y-121939286D01*
X204462858Y-121910715D01*
X204348572Y-121882143D01*
X204291429Y-121853572D01*
X204262858Y-121825001D01*
X204234286Y-121767858D01*
X204234286Y-121710715D01*
X204262858Y-121653572D01*
X204291429Y-121625001D01*
X204348572Y-121596429D01*
X204491429Y-121596429D01*
X204577143Y-121625001D01*
X204777143Y-121596429D02*
X204920001Y-122196429D01*
X205034286Y-121767858D01*
X205148572Y-122196429D01*
X205291429Y-121596429D01*
X205805715Y-121596429D02*
X205520001Y-121596429D01*
X205491429Y-121882143D01*
X205520001Y-121853572D01*
X205577143Y-121825001D01*
X205720001Y-121825001D01*
X205777143Y-121853572D01*
X205805715Y-121882143D01*
X205834286Y-121939286D01*
X205834286Y-122082143D01*
X205805715Y-122139286D01*
X205777143Y-122167858D01*
X205720001Y-122196429D01*
X205577143Y-122196429D01*
X205520001Y-122167858D01*
X205491429Y-122139286D01*
X206348572Y-121796429D02*
X206348572Y-122196429D01*
X206205715Y-121567858D02*
X206062858Y-121996429D01*
X206434286Y-121996429D01*
X223234286Y-122167858D02*
X223320001Y-122196429D01*
X223462858Y-122196429D01*
X223520001Y-122167858D01*
X223548572Y-122139286D01*
X223577143Y-122082143D01*
X223577143Y-122025001D01*
X223548572Y-121967858D01*
X223520001Y-121939286D01*
X223462858Y-121910715D01*
X223348572Y-121882143D01*
X223291429Y-121853572D01*
X223262858Y-121825001D01*
X223234286Y-121767858D01*
X223234286Y-121710715D01*
X223262858Y-121653572D01*
X223291429Y-121625001D01*
X223348572Y-121596429D01*
X223491429Y-121596429D01*
X223577143Y-121625001D01*
X223777143Y-121596429D02*
X223920001Y-122196429D01*
X224034286Y-121767858D01*
X224148572Y-122196429D01*
X224291429Y-121596429D01*
X224805715Y-121596429D02*
X224520001Y-121596429D01*
X224491429Y-121882143D01*
X224520001Y-121853572D01*
X224577143Y-121825001D01*
X224720001Y-121825001D01*
X224777143Y-121853572D01*
X224805715Y-121882143D01*
X224834286Y-121939286D01*
X224834286Y-122082143D01*
X224805715Y-122139286D01*
X224777143Y-122167858D01*
X224720001Y-122196429D01*
X224577143Y-122196429D01*
X224520001Y-122167858D01*
X224491429Y-122139286D01*
X225377143Y-121596429D02*
X225091429Y-121596429D01*
X225062858Y-121882143D01*
X225091429Y-121853572D01*
X225148572Y-121825001D01*
X225291429Y-121825001D01*
X225348572Y-121853572D01*
X225377143Y-121882143D01*
X225405715Y-121939286D01*
X225405715Y-122082143D01*
X225377143Y-122139286D01*
X225348572Y-122167858D01*
X225291429Y-122196429D01*
X225148572Y-122196429D01*
X225091429Y-122167858D01*
X225062858Y-122139286D01*
X242234286Y-122167858D02*
X242320001Y-122196429D01*
X242462858Y-122196429D01*
X242520001Y-122167858D01*
X242548572Y-122139286D01*
X242577143Y-122082143D01*
X242577143Y-122025001D01*
X242548572Y-121967858D01*
X242520001Y-121939286D01*
X242462858Y-121910715D01*
X242348572Y-121882143D01*
X242291429Y-121853572D01*
X242262858Y-121825001D01*
X242234286Y-121767858D01*
X242234286Y-121710715D01*
X242262858Y-121653572D01*
X242291429Y-121625001D01*
X242348572Y-121596429D01*
X242491429Y-121596429D01*
X242577143Y-121625001D01*
X242777143Y-121596429D02*
X242920001Y-122196429D01*
X243034286Y-121767858D01*
X243148572Y-122196429D01*
X243291429Y-121596429D01*
X243805715Y-121596429D02*
X243520001Y-121596429D01*
X243491429Y-121882143D01*
X243520001Y-121853572D01*
X243577143Y-121825001D01*
X243720001Y-121825001D01*
X243777143Y-121853572D01*
X243805715Y-121882143D01*
X243834286Y-121939286D01*
X243834286Y-122082143D01*
X243805715Y-122139286D01*
X243777143Y-122167858D01*
X243720001Y-122196429D01*
X243577143Y-122196429D01*
X243520001Y-122167858D01*
X243491429Y-122139286D01*
X244348572Y-121596429D02*
X244234286Y-121596429D01*
X244177143Y-121625001D01*
X244148572Y-121653572D01*
X244091429Y-121739286D01*
X244062858Y-121853572D01*
X244062858Y-122082143D01*
X244091429Y-122139286D01*
X244120001Y-122167858D01*
X244177143Y-122196429D01*
X244291429Y-122196429D01*
X244348572Y-122167858D01*
X244377143Y-122139286D01*
X244405715Y-122082143D01*
X244405715Y-121939286D01*
X244377143Y-121882143D01*
X244348572Y-121853572D01*
X244291429Y-121825001D01*
X244177143Y-121825001D01*
X244120001Y-121853572D01*
X244091429Y-121882143D01*
X244062858Y-121939286D01*
X261234286Y-122167858D02*
X261320001Y-122196429D01*
X261462858Y-122196429D01*
X261520001Y-122167858D01*
X261548572Y-122139286D01*
X261577143Y-122082143D01*
X261577143Y-122025001D01*
X261548572Y-121967858D01*
X261520001Y-121939286D01*
X261462858Y-121910715D01*
X261348572Y-121882143D01*
X261291429Y-121853572D01*
X261262858Y-121825001D01*
X261234286Y-121767858D01*
X261234286Y-121710715D01*
X261262858Y-121653572D01*
X261291429Y-121625001D01*
X261348572Y-121596429D01*
X261491429Y-121596429D01*
X261577143Y-121625001D01*
X261777143Y-121596429D02*
X261920001Y-122196429D01*
X262034286Y-121767858D01*
X262148572Y-122196429D01*
X262291429Y-121596429D01*
X262805715Y-121596429D02*
X262520001Y-121596429D01*
X262491429Y-121882143D01*
X262520001Y-121853572D01*
X262577143Y-121825001D01*
X262720001Y-121825001D01*
X262777143Y-121853572D01*
X262805715Y-121882143D01*
X262834286Y-121939286D01*
X262834286Y-122082143D01*
X262805715Y-122139286D01*
X262777143Y-122167858D01*
X262720001Y-122196429D01*
X262577143Y-122196429D01*
X262520001Y-122167858D01*
X262491429Y-122139286D01*
X263034286Y-121596429D02*
X263434286Y-121596429D01*
X263177143Y-122196429D01*
X280234286Y-122167858D02*
X280320001Y-122196429D01*
X280462858Y-122196429D01*
X280520001Y-122167858D01*
X280548572Y-122139286D01*
X280577143Y-122082143D01*
X280577143Y-122025001D01*
X280548572Y-121967858D01*
X280520001Y-121939286D01*
X280462858Y-121910715D01*
X280348572Y-121882143D01*
X280291429Y-121853572D01*
X280262858Y-121825001D01*
X280234286Y-121767858D01*
X280234286Y-121710715D01*
X280262858Y-121653572D01*
X280291429Y-121625001D01*
X280348572Y-121596429D01*
X280491429Y-121596429D01*
X280577143Y-121625001D01*
X280777143Y-121596429D02*
X280920001Y-122196429D01*
X281034286Y-121767858D01*
X281148572Y-122196429D01*
X281291429Y-121596429D01*
X281805715Y-121596429D02*
X281520001Y-121596429D01*
X281491429Y-121882143D01*
X281520001Y-121853572D01*
X281577143Y-121825001D01*
X281720001Y-121825001D01*
X281777143Y-121853572D01*
X281805715Y-121882143D01*
X281834286Y-121939286D01*
X281834286Y-122082143D01*
X281805715Y-122139286D01*
X281777143Y-122167858D01*
X281720001Y-122196429D01*
X281577143Y-122196429D01*
X281520001Y-122167858D01*
X281491429Y-122139286D01*
X282177143Y-121853572D02*
X282120001Y-121825001D01*
X282091429Y-121796429D01*
X282062858Y-121739286D01*
X282062858Y-121710715D01*
X282091429Y-121653572D01*
X282120001Y-121625001D01*
X282177143Y-121596429D01*
X282291429Y-121596429D01*
X282348572Y-121625001D01*
X282377143Y-121653572D01*
X282405715Y-121710715D01*
X282405715Y-121739286D01*
X282377143Y-121796429D01*
X282348572Y-121825001D01*
X282291429Y-121853572D01*
X282177143Y-121853572D01*
X282120001Y-121882143D01*
X282091429Y-121910715D01*
X282062858Y-121967858D01*
X282062858Y-122082143D01*
X282091429Y-122139286D01*
X282120001Y-122167858D01*
X282177143Y-122196429D01*
X282291429Y-122196429D01*
X282348572Y-122167858D01*
X282377143Y-122139286D01*
X282405715Y-122082143D01*
X282405715Y-121967858D01*
X282377143Y-121910715D01*
X282348572Y-121882143D01*
X282291429Y-121853572D01*
X299234286Y-122167858D02*
X299320001Y-122196429D01*
X299462858Y-122196429D01*
X299520001Y-122167858D01*
X299548572Y-122139286D01*
X299577143Y-122082143D01*
X299577143Y-122025001D01*
X299548572Y-121967858D01*
X299520001Y-121939286D01*
X299462858Y-121910715D01*
X299348572Y-121882143D01*
X299291429Y-121853572D01*
X299262858Y-121825001D01*
X299234286Y-121767858D01*
X299234286Y-121710715D01*
X299262858Y-121653572D01*
X299291429Y-121625001D01*
X299348572Y-121596429D01*
X299491429Y-121596429D01*
X299577143Y-121625001D01*
X299777143Y-121596429D02*
X299920001Y-122196429D01*
X300034286Y-121767858D01*
X300148572Y-122196429D01*
X300291429Y-121596429D01*
X300805715Y-121596429D02*
X300520001Y-121596429D01*
X300491429Y-121882143D01*
X300520001Y-121853572D01*
X300577143Y-121825001D01*
X300720001Y-121825001D01*
X300777143Y-121853572D01*
X300805715Y-121882143D01*
X300834286Y-121939286D01*
X300834286Y-122082143D01*
X300805715Y-122139286D01*
X300777143Y-122167858D01*
X300720001Y-122196429D01*
X300577143Y-122196429D01*
X300520001Y-122167858D01*
X300491429Y-122139286D01*
X301120001Y-122196429D02*
X301234286Y-122196429D01*
X301291429Y-122167858D01*
X301320001Y-122139286D01*
X301377143Y-122053572D01*
X301405715Y-121939286D01*
X301405715Y-121710715D01*
X301377143Y-121653572D01*
X301348572Y-121625001D01*
X301291429Y-121596429D01*
X301177143Y-121596429D01*
X301120001Y-121625001D01*
X301091429Y-121653572D01*
X301062858Y-121710715D01*
X301062858Y-121853572D01*
X301091429Y-121910715D01*
X301120001Y-121939286D01*
X301177143Y-121967858D01*
X301291429Y-121967858D01*
X301348572Y-121939286D01*
X301377143Y-121910715D01*
X301405715Y-121853572D01*
X137127143Y-43021429D02*
X137127143Y-42421429D01*
X137270001Y-42421429D01*
X137355715Y-42450001D01*
X137412858Y-42507143D01*
X137441429Y-42564286D01*
X137470001Y-42678572D01*
X137470001Y-42764286D01*
X137441429Y-42878572D01*
X137412858Y-42935715D01*
X137355715Y-42992858D01*
X137270001Y-43021429D01*
X137127143Y-43021429D01*
X137698572Y-42478572D02*
X137727143Y-42450001D01*
X137784286Y-42421429D01*
X137927143Y-42421429D01*
X137984286Y-42450001D01*
X138012858Y-42478572D01*
X138041429Y-42535715D01*
X138041429Y-42592858D01*
X138012858Y-42678572D01*
X137670001Y-43021429D01*
X138041429Y-43021429D01*
X99127143Y-43021429D02*
X99127143Y-42421429D01*
X99270001Y-42421429D01*
X99355715Y-42450001D01*
X99412858Y-42507143D01*
X99441429Y-42564286D01*
X99470001Y-42678572D01*
X99470001Y-42764286D01*
X99441429Y-42878572D01*
X99412858Y-42935715D01*
X99355715Y-42992858D01*
X99270001Y-43021429D01*
X99127143Y-43021429D01*
X99841429Y-42421429D02*
X99898572Y-42421429D01*
X99955715Y-42450001D01*
X99984286Y-42478572D01*
X100012858Y-42535715D01*
X100041429Y-42650001D01*
X100041429Y-42792858D01*
X100012858Y-42907143D01*
X99984286Y-42964286D01*
X99955715Y-42992858D01*
X99898572Y-43021429D01*
X99841429Y-43021429D01*
X99784286Y-42992858D01*
X99755715Y-42964286D01*
X99727143Y-42907143D01*
X99698572Y-42792858D01*
X99698572Y-42650001D01*
X99727143Y-42535715D01*
X99755715Y-42478572D01*
X99784286Y-42450001D01*
X99841429Y-42421429D01*
X101627143Y-43021429D02*
X101627143Y-42421429D01*
X101770001Y-42421429D01*
X101855715Y-42450001D01*
X101912858Y-42507143D01*
X101941429Y-42564286D01*
X101970001Y-42678572D01*
X101970001Y-42764286D01*
X101941429Y-42878572D01*
X101912858Y-42935715D01*
X101855715Y-42992858D01*
X101770001Y-43021429D01*
X101627143Y-43021429D01*
X102541429Y-43021429D02*
X102198572Y-43021429D01*
X102370001Y-43021429D02*
X102370001Y-42421429D01*
X102312858Y-42507143D01*
X102255715Y-42564286D01*
X102198572Y-42592858D01*
X139627143Y-43021429D02*
X139627143Y-42421429D01*
X139770001Y-42421429D01*
X139855715Y-42450001D01*
X139912858Y-42507143D01*
X139941429Y-42564286D01*
X139970001Y-42678572D01*
X139970001Y-42764286D01*
X139941429Y-42878572D01*
X139912858Y-42935715D01*
X139855715Y-42992858D01*
X139770001Y-43021429D01*
X139627143Y-43021429D01*
X140170001Y-42421429D02*
X140541429Y-42421429D01*
X140341429Y-42650001D01*
X140427143Y-42650001D01*
X140484286Y-42678572D01*
X140512858Y-42707143D01*
X140541429Y-42764286D01*
X140541429Y-42907143D01*
X140512858Y-42964286D01*
X140484286Y-42992858D01*
X140427143Y-43021429D01*
X140255715Y-43021429D01*
X140198572Y-42992858D01*
X140170001Y-42964286D01*
X175127143Y-43021429D02*
X175127143Y-42421429D01*
X175270001Y-42421429D01*
X175355715Y-42450001D01*
X175412858Y-42507143D01*
X175441429Y-42564286D01*
X175470001Y-42678572D01*
X175470001Y-42764286D01*
X175441429Y-42878572D01*
X175412858Y-42935715D01*
X175355715Y-42992858D01*
X175270001Y-43021429D01*
X175127143Y-43021429D01*
X175984286Y-42621429D02*
X175984286Y-43021429D01*
X175841429Y-42392858D02*
X175698572Y-42821429D01*
X176070001Y-42821429D01*
X177627143Y-43021429D02*
X177627143Y-42421429D01*
X177770001Y-42421429D01*
X177855715Y-42450001D01*
X177912858Y-42507143D01*
X177941429Y-42564286D01*
X177970001Y-42678572D01*
X177970001Y-42764286D01*
X177941429Y-42878572D01*
X177912858Y-42935715D01*
X177855715Y-42992858D01*
X177770001Y-43021429D01*
X177627143Y-43021429D01*
X178512858Y-42421429D02*
X178227143Y-42421429D01*
X178198572Y-42707143D01*
X178227143Y-42678572D01*
X178284286Y-42650001D01*
X178427143Y-42650001D01*
X178484286Y-42678572D01*
X178512858Y-42707143D01*
X178541429Y-42764286D01*
X178541429Y-42907143D01*
X178512858Y-42964286D01*
X178484286Y-42992858D01*
X178427143Y-43021429D01*
X178284286Y-43021429D01*
X178227143Y-42992858D01*
X178198572Y-42964286D01*
X213127143Y-43021429D02*
X213127143Y-42421429D01*
X213270001Y-42421429D01*
X213355715Y-42450001D01*
X213412858Y-42507143D01*
X213441429Y-42564286D01*
X213470001Y-42678572D01*
X213470001Y-42764286D01*
X213441429Y-42878572D01*
X213412858Y-42935715D01*
X213355715Y-42992858D01*
X213270001Y-43021429D01*
X213127143Y-43021429D01*
X213984286Y-42421429D02*
X213870001Y-42421429D01*
X213812858Y-42450001D01*
X213784286Y-42478572D01*
X213727143Y-42564286D01*
X213698572Y-42678572D01*
X213698572Y-42907143D01*
X213727143Y-42964286D01*
X213755715Y-42992858D01*
X213812858Y-43021429D01*
X213927143Y-43021429D01*
X213984286Y-42992858D01*
X214012858Y-42964286D01*
X214041429Y-42907143D01*
X214041429Y-42764286D01*
X214012858Y-42707143D01*
X213984286Y-42678572D01*
X213927143Y-42650001D01*
X213812858Y-42650001D01*
X213755715Y-42678572D01*
X213727143Y-42707143D01*
X213698572Y-42764286D01*
X215627143Y-43021429D02*
X215627143Y-42421429D01*
X215770001Y-42421429D01*
X215855715Y-42450001D01*
X215912858Y-42507143D01*
X215941429Y-42564286D01*
X215970001Y-42678572D01*
X215970001Y-42764286D01*
X215941429Y-42878572D01*
X215912858Y-42935715D01*
X215855715Y-42992858D01*
X215770001Y-43021429D01*
X215627143Y-43021429D01*
X216170001Y-42421429D02*
X216570001Y-42421429D01*
X216312858Y-43021429D01*
X251127143Y-43021429D02*
X251127143Y-42421429D01*
X251270001Y-42421429D01*
X251355715Y-42450001D01*
X251412858Y-42507143D01*
X251441429Y-42564286D01*
X251470001Y-42678572D01*
X251470001Y-42764286D01*
X251441429Y-42878572D01*
X251412858Y-42935715D01*
X251355715Y-42992858D01*
X251270001Y-43021429D01*
X251127143Y-43021429D01*
X251812858Y-42678572D02*
X251755715Y-42650001D01*
X251727143Y-42621429D01*
X251698572Y-42564286D01*
X251698572Y-42535715D01*
X251727143Y-42478572D01*
X251755715Y-42450001D01*
X251812858Y-42421429D01*
X251927143Y-42421429D01*
X251984286Y-42450001D01*
X252012858Y-42478572D01*
X252041429Y-42535715D01*
X252041429Y-42564286D01*
X252012858Y-42621429D01*
X251984286Y-42650001D01*
X251927143Y-42678572D01*
X251812858Y-42678572D01*
X251755715Y-42707143D01*
X251727143Y-42735715D01*
X251698572Y-42792858D01*
X251698572Y-42907143D01*
X251727143Y-42964286D01*
X251755715Y-42992858D01*
X251812858Y-43021429D01*
X251927143Y-43021429D01*
X251984286Y-42992858D01*
X252012858Y-42964286D01*
X252041429Y-42907143D01*
X252041429Y-42792858D01*
X252012858Y-42735715D01*
X251984286Y-42707143D01*
X251927143Y-42678572D01*
X253627143Y-43021429D02*
X253627143Y-42421429D01*
X253770001Y-42421429D01*
X253855715Y-42450001D01*
X253912858Y-42507143D01*
X253941429Y-42564286D01*
X253970001Y-42678572D01*
X253970001Y-42764286D01*
X253941429Y-42878572D01*
X253912858Y-42935715D01*
X253855715Y-42992858D01*
X253770001Y-43021429D01*
X253627143Y-43021429D01*
X254255715Y-43021429D02*
X254370001Y-43021429D01*
X254427143Y-42992858D01*
X254455715Y-42964286D01*
X254512858Y-42878572D01*
X254541429Y-42764286D01*
X254541429Y-42535715D01*
X254512858Y-42478572D01*
X254484286Y-42450001D01*
X254427143Y-42421429D01*
X254312858Y-42421429D01*
X254255715Y-42450001D01*
X254227143Y-42478572D01*
X254198572Y-42535715D01*
X254198572Y-42678572D01*
X254227143Y-42735715D01*
X254255715Y-42764286D01*
X254312858Y-42792858D01*
X254427143Y-42792858D01*
X254484286Y-42764286D01*
X254512858Y-42735715D01*
X254541429Y-42678572D01*
X288841429Y-43021429D02*
X288841429Y-42421429D01*
X288984286Y-42421429D01*
X289070001Y-42450001D01*
X289127143Y-42507143D01*
X289155715Y-42564286D01*
X289184286Y-42678572D01*
X289184286Y-42764286D01*
X289155715Y-42878572D01*
X289127143Y-42935715D01*
X289070001Y-42992858D01*
X288984286Y-43021429D01*
X288841429Y-43021429D01*
X289755715Y-43021429D02*
X289412858Y-43021429D01*
X289584286Y-43021429D02*
X289584286Y-42421429D01*
X289527143Y-42507143D01*
X289470001Y-42564286D01*
X289412858Y-42592858D01*
X290127143Y-42421429D02*
X290184286Y-42421429D01*
X290241429Y-42450001D01*
X290270001Y-42478572D01*
X290298572Y-42535715D01*
X290327143Y-42650001D01*
X290327143Y-42792858D01*
X290298572Y-42907143D01*
X290270001Y-42964286D01*
X290241429Y-42992858D01*
X290184286Y-43021429D01*
X290127143Y-43021429D01*
X290070001Y-42992858D01*
X290041429Y-42964286D01*
X290012858Y-42907143D01*
X289984286Y-42792858D01*
X289984286Y-42650001D01*
X290012858Y-42535715D01*
X290041429Y-42478572D01*
X290070001Y-42450001D01*
X290127143Y-42421429D01*
X291341429Y-43021429D02*
X291341429Y-42421429D01*
X291484286Y-42421429D01*
X291570001Y-42450001D01*
X291627143Y-42507143D01*
X291655715Y-42564286D01*
X291684286Y-42678572D01*
X291684286Y-42764286D01*
X291655715Y-42878572D01*
X291627143Y-42935715D01*
X291570001Y-42992858D01*
X291484286Y-43021429D01*
X291341429Y-43021429D01*
X292255715Y-43021429D02*
X291912858Y-43021429D01*
X292084286Y-43021429D02*
X292084286Y-42421429D01*
X292027143Y-42507143D01*
X291970001Y-42564286D01*
X291912858Y-42592858D01*
X292827143Y-43021429D02*
X292484286Y-43021429D01*
X292655715Y-43021429D02*
X292655715Y-42421429D01*
X292598572Y-42507143D01*
X292541429Y-42564286D01*
X292484286Y-42592858D01*
X94091429Y-62021429D02*
X94091429Y-61421429D01*
X94234286Y-61421429D01*
X94320001Y-61450001D01*
X94377143Y-61507143D01*
X94405715Y-61564286D01*
X94434286Y-61678572D01*
X94434286Y-61764286D01*
X94405715Y-61878572D01*
X94377143Y-61935715D01*
X94320001Y-61992858D01*
X94234286Y-62021429D01*
X94091429Y-62021429D01*
X95005715Y-62021429D02*
X94662858Y-62021429D01*
X94834286Y-62021429D02*
X94834286Y-61421429D01*
X94777143Y-61507143D01*
X94720001Y-61564286D01*
X94662858Y-61592858D01*
X95234286Y-61478572D02*
X95262858Y-61450001D01*
X95320001Y-61421429D01*
X95462858Y-61421429D01*
X95520001Y-61450001D01*
X95548572Y-61478572D01*
X95577143Y-61535715D01*
X95577143Y-61592858D01*
X95548572Y-61678572D01*
X95205715Y-62021429D01*
X95577143Y-62021429D01*
X96591429Y-62021429D02*
X96591429Y-61421429D01*
X96734286Y-61421429D01*
X96820001Y-61450001D01*
X96877143Y-61507143D01*
X96905715Y-61564286D01*
X96934286Y-61678572D01*
X96934286Y-61764286D01*
X96905715Y-61878572D01*
X96877143Y-61935715D01*
X96820001Y-61992858D01*
X96734286Y-62021429D01*
X96591429Y-62021429D01*
X97505715Y-62021429D02*
X97162858Y-62021429D01*
X97334286Y-62021429D02*
X97334286Y-61421429D01*
X97277143Y-61507143D01*
X97220001Y-61564286D01*
X97162858Y-61592858D01*
X97705715Y-61421429D02*
X98077143Y-61421429D01*
X97877143Y-61650001D01*
X97962858Y-61650001D01*
X98020001Y-61678572D01*
X98048572Y-61707143D01*
X98077143Y-61764286D01*
X98077143Y-61907143D01*
X98048572Y-61964286D01*
X98020001Y-61992858D01*
X97962858Y-62021429D01*
X97791429Y-62021429D01*
X97734286Y-61992858D01*
X97705715Y-61964286D01*
X132091429Y-62021429D02*
X132091429Y-61421429D01*
X132234286Y-61421429D01*
X132320001Y-61450001D01*
X132377143Y-61507143D01*
X132405715Y-61564286D01*
X132434286Y-61678572D01*
X132434286Y-61764286D01*
X132405715Y-61878572D01*
X132377143Y-61935715D01*
X132320001Y-61992858D01*
X132234286Y-62021429D01*
X132091429Y-62021429D01*
X133005715Y-62021429D02*
X132662858Y-62021429D01*
X132834286Y-62021429D02*
X132834286Y-61421429D01*
X132777143Y-61507143D01*
X132720001Y-61564286D01*
X132662858Y-61592858D01*
X133520001Y-61621429D02*
X133520001Y-62021429D01*
X133377143Y-61392858D02*
X133234286Y-61821429D01*
X133605715Y-61821429D01*
X134591429Y-62021429D02*
X134591429Y-61421429D01*
X134734286Y-61421429D01*
X134820001Y-61450001D01*
X134877143Y-61507143D01*
X134905715Y-61564286D01*
X134934286Y-61678572D01*
X134934286Y-61764286D01*
X134905715Y-61878572D01*
X134877143Y-61935715D01*
X134820001Y-61992858D01*
X134734286Y-62021429D01*
X134591429Y-62021429D01*
X135505715Y-62021429D02*
X135162858Y-62021429D01*
X135334286Y-62021429D02*
X135334286Y-61421429D01*
X135277143Y-61507143D01*
X135220001Y-61564286D01*
X135162858Y-61592858D01*
X136048572Y-61421429D02*
X135762858Y-61421429D01*
X135734286Y-61707143D01*
X135762858Y-61678572D01*
X135820001Y-61650001D01*
X135962858Y-61650001D01*
X136020001Y-61678572D01*
X136048572Y-61707143D01*
X136077143Y-61764286D01*
X136077143Y-61907143D01*
X136048572Y-61964286D01*
X136020001Y-61992858D01*
X135962858Y-62021429D01*
X135820001Y-62021429D01*
X135762858Y-61992858D01*
X135734286Y-61964286D01*
X172591429Y-69021429D02*
X172591429Y-68421429D01*
X172734286Y-68421429D01*
X172820001Y-68450001D01*
X172877143Y-68507143D01*
X172905715Y-68564286D01*
X172934286Y-68678572D01*
X172934286Y-68764286D01*
X172905715Y-68878572D01*
X172877143Y-68935715D01*
X172820001Y-68992858D01*
X172734286Y-69021429D01*
X172591429Y-69021429D01*
X173505715Y-69021429D02*
X173162858Y-69021429D01*
X173334286Y-69021429D02*
X173334286Y-68421429D01*
X173277143Y-68507143D01*
X173220001Y-68564286D01*
X173162858Y-68592858D01*
X173705715Y-68421429D02*
X174105715Y-68421429D01*
X173848572Y-69021429D01*
X227091429Y-62021429D02*
X227091429Y-61421429D01*
X227234286Y-61421429D01*
X227320001Y-61450001D01*
X227377143Y-61507143D01*
X227405715Y-61564286D01*
X227434286Y-61678572D01*
X227434286Y-61764286D01*
X227405715Y-61878572D01*
X227377143Y-61935715D01*
X227320001Y-61992858D01*
X227234286Y-62021429D01*
X227091429Y-62021429D01*
X228005715Y-62021429D02*
X227662858Y-62021429D01*
X227834286Y-62021429D02*
X227834286Y-61421429D01*
X227777143Y-61507143D01*
X227720001Y-61564286D01*
X227662858Y-61592858D01*
X228348572Y-61678572D02*
X228291429Y-61650001D01*
X228262858Y-61621429D01*
X228234286Y-61564286D01*
X228234286Y-61535715D01*
X228262858Y-61478572D01*
X228291429Y-61450001D01*
X228348572Y-61421429D01*
X228462858Y-61421429D01*
X228520001Y-61450001D01*
X228548572Y-61478572D01*
X228577143Y-61535715D01*
X228577143Y-61564286D01*
X228548572Y-61621429D01*
X228520001Y-61650001D01*
X228462858Y-61678572D01*
X228348572Y-61678572D01*
X228291429Y-61707143D01*
X228262858Y-61735715D01*
X228234286Y-61792858D01*
X228234286Y-61907143D01*
X228262858Y-61964286D01*
X228291429Y-61992858D01*
X228348572Y-62021429D01*
X228462858Y-62021429D01*
X228520001Y-61992858D01*
X228548572Y-61964286D01*
X228577143Y-61907143D01*
X228577143Y-61792858D01*
X228548572Y-61735715D01*
X228520001Y-61707143D01*
X228462858Y-61678572D01*
X229591429Y-62021429D02*
X229591429Y-61421429D01*
X229734286Y-61421429D01*
X229820001Y-61450001D01*
X229877143Y-61507143D01*
X229905715Y-61564286D01*
X229934286Y-61678572D01*
X229934286Y-61764286D01*
X229905715Y-61878572D01*
X229877143Y-61935715D01*
X229820001Y-61992858D01*
X229734286Y-62021429D01*
X229591429Y-62021429D01*
X230505715Y-62021429D02*
X230162858Y-62021429D01*
X230334286Y-62021429D02*
X230334286Y-61421429D01*
X230277143Y-61507143D01*
X230220001Y-61564286D01*
X230162858Y-61592858D01*
X230791429Y-62021429D02*
X230905715Y-62021429D01*
X230962858Y-61992858D01*
X230991429Y-61964286D01*
X231048572Y-61878572D01*
X231077143Y-61764286D01*
X231077143Y-61535715D01*
X231048572Y-61478572D01*
X231020001Y-61450001D01*
X230962858Y-61421429D01*
X230848572Y-61421429D01*
X230791429Y-61450001D01*
X230762858Y-61478572D01*
X230734286Y-61535715D01*
X230734286Y-61678572D01*
X230762858Y-61735715D01*
X230791429Y-61764286D01*
X230848572Y-61792858D01*
X230962858Y-61792858D01*
X231020001Y-61764286D01*
X231048572Y-61735715D01*
X231077143Y-61678572D01*
X246091429Y-62021429D02*
X246091429Y-61421429D01*
X246234286Y-61421429D01*
X246320001Y-61450001D01*
X246377143Y-61507143D01*
X246405715Y-61564286D01*
X246434286Y-61678572D01*
X246434286Y-61764286D01*
X246405715Y-61878572D01*
X246377143Y-61935715D01*
X246320001Y-61992858D01*
X246234286Y-62021429D01*
X246091429Y-62021429D01*
X246662858Y-61478572D02*
X246691429Y-61450001D01*
X246748572Y-61421429D01*
X246891429Y-61421429D01*
X246948572Y-61450001D01*
X246977143Y-61478572D01*
X247005715Y-61535715D01*
X247005715Y-61592858D01*
X246977143Y-61678572D01*
X246634286Y-62021429D01*
X247005715Y-62021429D01*
X247377143Y-61421429D02*
X247434286Y-61421429D01*
X247491429Y-61450001D01*
X247520001Y-61478572D01*
X247548572Y-61535715D01*
X247577143Y-61650001D01*
X247577143Y-61792858D01*
X247548572Y-61907143D01*
X247520001Y-61964286D01*
X247491429Y-61992858D01*
X247434286Y-62021429D01*
X247377143Y-62021429D01*
X247320001Y-61992858D01*
X247291429Y-61964286D01*
X247262858Y-61907143D01*
X247234286Y-61792858D01*
X247234286Y-61650001D01*
X247262858Y-61535715D01*
X247291429Y-61478572D01*
X247320001Y-61450001D01*
X247377143Y-61421429D01*
X248591429Y-62021429D02*
X248591429Y-61421429D01*
X248734286Y-61421429D01*
X248820001Y-61450001D01*
X248877143Y-61507143D01*
X248905715Y-61564286D01*
X248934286Y-61678572D01*
X248934286Y-61764286D01*
X248905715Y-61878572D01*
X248877143Y-61935715D01*
X248820001Y-61992858D01*
X248734286Y-62021429D01*
X248591429Y-62021429D01*
X249162858Y-61478572D02*
X249191429Y-61450001D01*
X249248572Y-61421429D01*
X249391429Y-61421429D01*
X249448572Y-61450001D01*
X249477143Y-61478572D01*
X249505715Y-61535715D01*
X249505715Y-61592858D01*
X249477143Y-61678572D01*
X249134286Y-62021429D01*
X249505715Y-62021429D01*
X250077143Y-62021429D02*
X249734286Y-62021429D01*
X249905715Y-62021429D02*
X249905715Y-61421429D01*
X249848572Y-61507143D01*
X249791429Y-61564286D01*
X249734286Y-61592858D01*
X284091429Y-62021429D02*
X284091429Y-61421429D01*
X284234286Y-61421429D01*
X284320001Y-61450001D01*
X284377143Y-61507143D01*
X284405715Y-61564286D01*
X284434286Y-61678572D01*
X284434286Y-61764286D01*
X284405715Y-61878572D01*
X284377143Y-61935715D01*
X284320001Y-61992858D01*
X284234286Y-62021429D01*
X284091429Y-62021429D01*
X284662858Y-61478572D02*
X284691429Y-61450001D01*
X284748572Y-61421429D01*
X284891429Y-61421429D01*
X284948572Y-61450001D01*
X284977143Y-61478572D01*
X285005715Y-61535715D01*
X285005715Y-61592858D01*
X284977143Y-61678572D01*
X284634286Y-62021429D01*
X285005715Y-62021429D01*
X285234286Y-61478572D02*
X285262858Y-61450001D01*
X285320001Y-61421429D01*
X285462858Y-61421429D01*
X285520001Y-61450001D01*
X285548572Y-61478572D01*
X285577143Y-61535715D01*
X285577143Y-61592858D01*
X285548572Y-61678572D01*
X285205715Y-62021429D01*
X285577143Y-62021429D01*
X286591429Y-62021429D02*
X286591429Y-61421429D01*
X286734286Y-61421429D01*
X286820001Y-61450001D01*
X286877143Y-61507143D01*
X286905715Y-61564286D01*
X286934286Y-61678572D01*
X286934286Y-61764286D01*
X286905715Y-61878572D01*
X286877143Y-61935715D01*
X286820001Y-61992858D01*
X286734286Y-62021429D01*
X286591429Y-62021429D01*
X287162858Y-61478572D02*
X287191429Y-61450001D01*
X287248572Y-61421429D01*
X287391429Y-61421429D01*
X287448572Y-61450001D01*
X287477143Y-61478572D01*
X287505715Y-61535715D01*
X287505715Y-61592858D01*
X287477143Y-61678572D01*
X287134286Y-62021429D01*
X287505715Y-62021429D01*
X287705715Y-61421429D02*
X288077143Y-61421429D01*
X287877143Y-61650001D01*
X287962858Y-61650001D01*
X288020001Y-61678572D01*
X288048572Y-61707143D01*
X288077143Y-61764286D01*
X288077143Y-61907143D01*
X288048572Y-61964286D01*
X288020001Y-61992858D01*
X287962858Y-62021429D01*
X287791429Y-62021429D01*
X287734286Y-61992858D01*
X287705715Y-61964286D01*
X98841429Y-81021429D02*
X98841429Y-80421429D01*
X98984286Y-80421429D01*
X99070001Y-80450001D01*
X99127143Y-80507143D01*
X99155715Y-80564286D01*
X99184286Y-80678572D01*
X99184286Y-80764286D01*
X99155715Y-80878572D01*
X99127143Y-80935715D01*
X99070001Y-80992858D01*
X98984286Y-81021429D01*
X98841429Y-81021429D01*
X99412858Y-80478572D02*
X99441429Y-80450001D01*
X99498572Y-80421429D01*
X99641429Y-80421429D01*
X99698572Y-80450001D01*
X99727143Y-80478572D01*
X99755715Y-80535715D01*
X99755715Y-80592858D01*
X99727143Y-80678572D01*
X99384286Y-81021429D01*
X99755715Y-81021429D01*
X100270001Y-80621429D02*
X100270001Y-81021429D01*
X100127143Y-80392858D02*
X99984286Y-80821429D01*
X100355715Y-80821429D01*
X101341429Y-81021429D02*
X101341429Y-80421429D01*
X101484286Y-80421429D01*
X101570001Y-80450001D01*
X101627143Y-80507143D01*
X101655715Y-80564286D01*
X101684286Y-80678572D01*
X101684286Y-80764286D01*
X101655715Y-80878572D01*
X101627143Y-80935715D01*
X101570001Y-80992858D01*
X101484286Y-81021429D01*
X101341429Y-81021429D01*
X101912858Y-80478572D02*
X101941429Y-80450001D01*
X101998572Y-80421429D01*
X102141429Y-80421429D01*
X102198572Y-80450001D01*
X102227143Y-80478572D01*
X102255715Y-80535715D01*
X102255715Y-80592858D01*
X102227143Y-80678572D01*
X101884286Y-81021429D01*
X102255715Y-81021429D01*
X102798572Y-80421429D02*
X102512858Y-80421429D01*
X102484286Y-80707143D01*
X102512858Y-80678572D01*
X102570001Y-80650001D01*
X102712858Y-80650001D01*
X102770001Y-80678572D01*
X102798572Y-80707143D01*
X102827143Y-80764286D01*
X102827143Y-80907143D01*
X102798572Y-80964286D01*
X102770001Y-80992858D01*
X102712858Y-81021429D01*
X102570001Y-81021429D01*
X102512858Y-80992858D01*
X102484286Y-80964286D01*
X136841429Y-81021429D02*
X136841429Y-80421429D01*
X136984286Y-80421429D01*
X137070001Y-80450001D01*
X137127143Y-80507143D01*
X137155715Y-80564286D01*
X137184286Y-80678572D01*
X137184286Y-80764286D01*
X137155715Y-80878572D01*
X137127143Y-80935715D01*
X137070001Y-80992858D01*
X136984286Y-81021429D01*
X136841429Y-81021429D01*
X137412858Y-80478572D02*
X137441429Y-80450001D01*
X137498572Y-80421429D01*
X137641429Y-80421429D01*
X137698572Y-80450001D01*
X137727143Y-80478572D01*
X137755715Y-80535715D01*
X137755715Y-80592858D01*
X137727143Y-80678572D01*
X137384286Y-81021429D01*
X137755715Y-81021429D01*
X138270001Y-80421429D02*
X138155715Y-80421429D01*
X138098572Y-80450001D01*
X138070001Y-80478572D01*
X138012858Y-80564286D01*
X137984286Y-80678572D01*
X137984286Y-80907143D01*
X138012858Y-80964286D01*
X138041429Y-80992858D01*
X138098572Y-81021429D01*
X138212858Y-81021429D01*
X138270001Y-80992858D01*
X138298572Y-80964286D01*
X138327143Y-80907143D01*
X138327143Y-80764286D01*
X138298572Y-80707143D01*
X138270001Y-80678572D01*
X138212858Y-80650001D01*
X138098572Y-80650001D01*
X138041429Y-80678572D01*
X138012858Y-80707143D01*
X137984286Y-80764286D01*
X139341429Y-81021429D02*
X139341429Y-80421429D01*
X139484286Y-80421429D01*
X139570001Y-80450001D01*
X139627143Y-80507143D01*
X139655715Y-80564286D01*
X139684286Y-80678572D01*
X139684286Y-80764286D01*
X139655715Y-80878572D01*
X139627143Y-80935715D01*
X139570001Y-80992858D01*
X139484286Y-81021429D01*
X139341429Y-81021429D01*
X139912858Y-80478572D02*
X139941429Y-80450001D01*
X139998572Y-80421429D01*
X140141429Y-80421429D01*
X140198572Y-80450001D01*
X140227143Y-80478572D01*
X140255715Y-80535715D01*
X140255715Y-80592858D01*
X140227143Y-80678572D01*
X139884286Y-81021429D01*
X140255715Y-81021429D01*
X140455715Y-80421429D02*
X140855715Y-80421429D01*
X140598572Y-81021429D01*
X174841429Y-81021429D02*
X174841429Y-80421429D01*
X174984286Y-80421429D01*
X175070001Y-80450001D01*
X175127143Y-80507143D01*
X175155715Y-80564286D01*
X175184286Y-80678572D01*
X175184286Y-80764286D01*
X175155715Y-80878572D01*
X175127143Y-80935715D01*
X175070001Y-80992858D01*
X174984286Y-81021429D01*
X174841429Y-81021429D01*
X175412858Y-80478572D02*
X175441429Y-80450001D01*
X175498572Y-80421429D01*
X175641429Y-80421429D01*
X175698572Y-80450001D01*
X175727143Y-80478572D01*
X175755715Y-80535715D01*
X175755715Y-80592858D01*
X175727143Y-80678572D01*
X175384286Y-81021429D01*
X175755715Y-81021429D01*
X176098572Y-80678572D02*
X176041429Y-80650001D01*
X176012858Y-80621429D01*
X175984286Y-80564286D01*
X175984286Y-80535715D01*
X176012858Y-80478572D01*
X176041429Y-80450001D01*
X176098572Y-80421429D01*
X176212858Y-80421429D01*
X176270001Y-80450001D01*
X176298572Y-80478572D01*
X176327143Y-80535715D01*
X176327143Y-80564286D01*
X176298572Y-80621429D01*
X176270001Y-80650001D01*
X176212858Y-80678572D01*
X176098572Y-80678572D01*
X176041429Y-80707143D01*
X176012858Y-80735715D01*
X175984286Y-80792858D01*
X175984286Y-80907143D01*
X176012858Y-80964286D01*
X176041429Y-80992858D01*
X176098572Y-81021429D01*
X176212858Y-81021429D01*
X176270001Y-80992858D01*
X176298572Y-80964286D01*
X176327143Y-80907143D01*
X176327143Y-80792858D01*
X176298572Y-80735715D01*
X176270001Y-80707143D01*
X176212858Y-80678572D01*
X177341429Y-81021429D02*
X177341429Y-80421429D01*
X177484286Y-80421429D01*
X177570001Y-80450001D01*
X177627143Y-80507143D01*
X177655715Y-80564286D01*
X177684286Y-80678572D01*
X177684286Y-80764286D01*
X177655715Y-80878572D01*
X177627143Y-80935715D01*
X177570001Y-80992858D01*
X177484286Y-81021429D01*
X177341429Y-81021429D01*
X177912858Y-80478572D02*
X177941429Y-80450001D01*
X177998572Y-80421429D01*
X178141429Y-80421429D01*
X178198572Y-80450001D01*
X178227143Y-80478572D01*
X178255715Y-80535715D01*
X178255715Y-80592858D01*
X178227143Y-80678572D01*
X177884286Y-81021429D01*
X178255715Y-81021429D01*
X178541429Y-81021429D02*
X178655715Y-81021429D01*
X178712858Y-80992858D01*
X178741429Y-80964286D01*
X178798572Y-80878572D01*
X178827143Y-80764286D01*
X178827143Y-80535715D01*
X178798572Y-80478572D01*
X178770001Y-80450001D01*
X178712858Y-80421429D01*
X178598572Y-80421429D01*
X178541429Y-80450001D01*
X178512858Y-80478572D01*
X178484286Y-80535715D01*
X178484286Y-80678572D01*
X178512858Y-80735715D01*
X178541429Y-80764286D01*
X178598572Y-80792858D01*
X178712858Y-80792858D01*
X178770001Y-80764286D01*
X178798572Y-80735715D01*
X178827143Y-80678572D01*
X212841429Y-81021429D02*
X212841429Y-80421429D01*
X212984286Y-80421429D01*
X213070001Y-80450001D01*
X213127143Y-80507143D01*
X213155715Y-80564286D01*
X213184286Y-80678572D01*
X213184286Y-80764286D01*
X213155715Y-80878572D01*
X213127143Y-80935715D01*
X213070001Y-80992858D01*
X212984286Y-81021429D01*
X212841429Y-81021429D01*
X213384286Y-80421429D02*
X213755715Y-80421429D01*
X213555715Y-80650001D01*
X213641429Y-80650001D01*
X213698572Y-80678572D01*
X213727143Y-80707143D01*
X213755715Y-80764286D01*
X213755715Y-80907143D01*
X213727143Y-80964286D01*
X213698572Y-80992858D01*
X213641429Y-81021429D01*
X213470001Y-81021429D01*
X213412858Y-80992858D01*
X213384286Y-80964286D01*
X214127143Y-80421429D02*
X214184286Y-80421429D01*
X214241429Y-80450001D01*
X214270001Y-80478572D01*
X214298572Y-80535715D01*
X214327143Y-80650001D01*
X214327143Y-80792858D01*
X214298572Y-80907143D01*
X214270001Y-80964286D01*
X214241429Y-80992858D01*
X214184286Y-81021429D01*
X214127143Y-81021429D01*
X214070001Y-80992858D01*
X214041429Y-80964286D01*
X214012858Y-80907143D01*
X213984286Y-80792858D01*
X213984286Y-80650001D01*
X214012858Y-80535715D01*
X214041429Y-80478572D01*
X214070001Y-80450001D01*
X214127143Y-80421429D01*
X215341429Y-81021429D02*
X215341429Y-80421429D01*
X215484286Y-80421429D01*
X215570001Y-80450001D01*
X215627143Y-80507143D01*
X215655715Y-80564286D01*
X215684286Y-80678572D01*
X215684286Y-80764286D01*
X215655715Y-80878572D01*
X215627143Y-80935715D01*
X215570001Y-80992858D01*
X215484286Y-81021429D01*
X215341429Y-81021429D01*
X215884286Y-80421429D02*
X216255715Y-80421429D01*
X216055715Y-80650001D01*
X216141429Y-80650001D01*
X216198572Y-80678572D01*
X216227143Y-80707143D01*
X216255715Y-80764286D01*
X216255715Y-80907143D01*
X216227143Y-80964286D01*
X216198572Y-80992858D01*
X216141429Y-81021429D01*
X215970001Y-81021429D01*
X215912858Y-80992858D01*
X215884286Y-80964286D01*
X216827143Y-81021429D02*
X216484286Y-81021429D01*
X216655715Y-81021429D02*
X216655715Y-80421429D01*
X216598572Y-80507143D01*
X216541429Y-80564286D01*
X216484286Y-80592858D01*
X250841429Y-81021429D02*
X250841429Y-80421429D01*
X250984286Y-80421429D01*
X251070001Y-80450001D01*
X251127143Y-80507143D01*
X251155715Y-80564286D01*
X251184286Y-80678572D01*
X251184286Y-80764286D01*
X251155715Y-80878572D01*
X251127143Y-80935715D01*
X251070001Y-80992858D01*
X250984286Y-81021429D01*
X250841429Y-81021429D01*
X251384286Y-80421429D02*
X251755715Y-80421429D01*
X251555715Y-80650001D01*
X251641429Y-80650001D01*
X251698572Y-80678572D01*
X251727143Y-80707143D01*
X251755715Y-80764286D01*
X251755715Y-80907143D01*
X251727143Y-80964286D01*
X251698572Y-80992858D01*
X251641429Y-81021429D01*
X251470001Y-81021429D01*
X251412858Y-80992858D01*
X251384286Y-80964286D01*
X251984286Y-80478572D02*
X252012858Y-80450001D01*
X252070001Y-80421429D01*
X252212858Y-80421429D01*
X252270001Y-80450001D01*
X252298572Y-80478572D01*
X252327143Y-80535715D01*
X252327143Y-80592858D01*
X252298572Y-80678572D01*
X251955715Y-81021429D01*
X252327143Y-81021429D01*
X253341429Y-81021429D02*
X253341429Y-80421429D01*
X253484286Y-80421429D01*
X253570001Y-80450001D01*
X253627143Y-80507143D01*
X253655715Y-80564286D01*
X253684286Y-80678572D01*
X253684286Y-80764286D01*
X253655715Y-80878572D01*
X253627143Y-80935715D01*
X253570001Y-80992858D01*
X253484286Y-81021429D01*
X253341429Y-81021429D01*
X253884286Y-80421429D02*
X254255715Y-80421429D01*
X254055715Y-80650001D01*
X254141429Y-80650001D01*
X254198572Y-80678572D01*
X254227143Y-80707143D01*
X254255715Y-80764286D01*
X254255715Y-80907143D01*
X254227143Y-80964286D01*
X254198572Y-80992858D01*
X254141429Y-81021429D01*
X253970001Y-81021429D01*
X253912858Y-80992858D01*
X253884286Y-80964286D01*
X254455715Y-80421429D02*
X254827143Y-80421429D01*
X254627143Y-80650001D01*
X254712858Y-80650001D01*
X254770001Y-80678572D01*
X254798572Y-80707143D01*
X254827143Y-80764286D01*
X254827143Y-80907143D01*
X254798572Y-80964286D01*
X254770001Y-80992858D01*
X254712858Y-81021429D01*
X254541429Y-81021429D01*
X254484286Y-80992858D01*
X254455715Y-80964286D01*
X288841429Y-81021429D02*
X288841429Y-80421429D01*
X288984286Y-80421429D01*
X289070001Y-80450001D01*
X289127143Y-80507143D01*
X289155715Y-80564286D01*
X289184286Y-80678572D01*
X289184286Y-80764286D01*
X289155715Y-80878572D01*
X289127143Y-80935715D01*
X289070001Y-80992858D01*
X288984286Y-81021429D01*
X288841429Y-81021429D01*
X289384286Y-80421429D02*
X289755715Y-80421429D01*
X289555715Y-80650001D01*
X289641429Y-80650001D01*
X289698572Y-80678572D01*
X289727143Y-80707143D01*
X289755715Y-80764286D01*
X289755715Y-80907143D01*
X289727143Y-80964286D01*
X289698572Y-80992858D01*
X289641429Y-81021429D01*
X289470001Y-81021429D01*
X289412858Y-80992858D01*
X289384286Y-80964286D01*
X290270001Y-80621429D02*
X290270001Y-81021429D01*
X290127143Y-80392858D02*
X289984286Y-80821429D01*
X290355715Y-80821429D01*
X291341429Y-81021429D02*
X291341429Y-80421429D01*
X291484286Y-80421429D01*
X291570001Y-80450001D01*
X291627143Y-80507143D01*
X291655715Y-80564286D01*
X291684286Y-80678572D01*
X291684286Y-80764286D01*
X291655715Y-80878572D01*
X291627143Y-80935715D01*
X291570001Y-80992858D01*
X291484286Y-81021429D01*
X291341429Y-81021429D01*
X291884286Y-80421429D02*
X292255715Y-80421429D01*
X292055715Y-80650001D01*
X292141429Y-80650001D01*
X292198572Y-80678572D01*
X292227143Y-80707143D01*
X292255715Y-80764286D01*
X292255715Y-80907143D01*
X292227143Y-80964286D01*
X292198572Y-80992858D01*
X292141429Y-81021429D01*
X291970001Y-81021429D01*
X291912858Y-80992858D01*
X291884286Y-80964286D01*
X292798572Y-80421429D02*
X292512858Y-80421429D01*
X292484286Y-80707143D01*
X292512858Y-80678572D01*
X292570001Y-80650001D01*
X292712858Y-80650001D01*
X292770001Y-80678572D01*
X292798572Y-80707143D01*
X292827143Y-80764286D01*
X292827143Y-80907143D01*
X292798572Y-80964286D01*
X292770001Y-80992858D01*
X292712858Y-81021429D01*
X292570001Y-81021429D01*
X292512858Y-80992858D01*
X292484286Y-80964286D01*
X103591429Y-100021429D02*
X103591429Y-99421429D01*
X103734286Y-99421429D01*
X103820001Y-99450001D01*
X103877143Y-99507143D01*
X103905715Y-99564286D01*
X103934286Y-99678572D01*
X103934286Y-99764286D01*
X103905715Y-99878572D01*
X103877143Y-99935715D01*
X103820001Y-99992858D01*
X103734286Y-100021429D01*
X103591429Y-100021429D01*
X104134286Y-99421429D02*
X104505715Y-99421429D01*
X104305715Y-99650001D01*
X104391429Y-99650001D01*
X104448572Y-99678572D01*
X104477143Y-99707143D01*
X104505715Y-99764286D01*
X104505715Y-99907143D01*
X104477143Y-99964286D01*
X104448572Y-99992858D01*
X104391429Y-100021429D01*
X104220001Y-100021429D01*
X104162858Y-99992858D01*
X104134286Y-99964286D01*
X105020001Y-99421429D02*
X104905715Y-99421429D01*
X104848572Y-99450001D01*
X104820001Y-99478572D01*
X104762858Y-99564286D01*
X104734286Y-99678572D01*
X104734286Y-99907143D01*
X104762858Y-99964286D01*
X104791429Y-99992858D01*
X104848572Y-100021429D01*
X104962858Y-100021429D01*
X105020001Y-99992858D01*
X105048572Y-99964286D01*
X105077143Y-99907143D01*
X105077143Y-99764286D01*
X105048572Y-99707143D01*
X105020001Y-99678572D01*
X104962858Y-99650001D01*
X104848572Y-99650001D01*
X104791429Y-99678572D01*
X104762858Y-99707143D01*
X104734286Y-99764286D01*
X106091429Y-100021429D02*
X106091429Y-99421429D01*
X106234286Y-99421429D01*
X106320001Y-99450001D01*
X106377143Y-99507143D01*
X106405715Y-99564286D01*
X106434286Y-99678572D01*
X106434286Y-99764286D01*
X106405715Y-99878572D01*
X106377143Y-99935715D01*
X106320001Y-99992858D01*
X106234286Y-100021429D01*
X106091429Y-100021429D01*
X106634286Y-99421429D02*
X107005715Y-99421429D01*
X106805715Y-99650001D01*
X106891429Y-99650001D01*
X106948572Y-99678572D01*
X106977143Y-99707143D01*
X107005715Y-99764286D01*
X107005715Y-99907143D01*
X106977143Y-99964286D01*
X106948572Y-99992858D01*
X106891429Y-100021429D01*
X106720001Y-100021429D01*
X106662858Y-99992858D01*
X106634286Y-99964286D01*
X107205715Y-99421429D02*
X107605715Y-99421429D01*
X107348572Y-100021429D01*
X141591429Y-100021429D02*
X141591429Y-99421429D01*
X141734286Y-99421429D01*
X141820001Y-99450001D01*
X141877143Y-99507143D01*
X141905715Y-99564286D01*
X141934286Y-99678572D01*
X141934286Y-99764286D01*
X141905715Y-99878572D01*
X141877143Y-99935715D01*
X141820001Y-99992858D01*
X141734286Y-100021429D01*
X141591429Y-100021429D01*
X142134286Y-99421429D02*
X142505715Y-99421429D01*
X142305715Y-99650001D01*
X142391429Y-99650001D01*
X142448572Y-99678572D01*
X142477143Y-99707143D01*
X142505715Y-99764286D01*
X142505715Y-99907143D01*
X142477143Y-99964286D01*
X142448572Y-99992858D01*
X142391429Y-100021429D01*
X142220001Y-100021429D01*
X142162858Y-99992858D01*
X142134286Y-99964286D01*
X142848572Y-99678572D02*
X142791429Y-99650001D01*
X142762858Y-99621429D01*
X142734286Y-99564286D01*
X142734286Y-99535715D01*
X142762858Y-99478572D01*
X142791429Y-99450001D01*
X142848572Y-99421429D01*
X142962858Y-99421429D01*
X143020001Y-99450001D01*
X143048572Y-99478572D01*
X143077143Y-99535715D01*
X143077143Y-99564286D01*
X143048572Y-99621429D01*
X143020001Y-99650001D01*
X142962858Y-99678572D01*
X142848572Y-99678572D01*
X142791429Y-99707143D01*
X142762858Y-99735715D01*
X142734286Y-99792858D01*
X142734286Y-99907143D01*
X142762858Y-99964286D01*
X142791429Y-99992858D01*
X142848572Y-100021429D01*
X142962858Y-100021429D01*
X143020001Y-99992858D01*
X143048572Y-99964286D01*
X143077143Y-99907143D01*
X143077143Y-99792858D01*
X143048572Y-99735715D01*
X143020001Y-99707143D01*
X142962858Y-99678572D01*
X144091429Y-100021429D02*
X144091429Y-99421429D01*
X144234286Y-99421429D01*
X144320001Y-99450001D01*
X144377143Y-99507143D01*
X144405715Y-99564286D01*
X144434286Y-99678572D01*
X144434286Y-99764286D01*
X144405715Y-99878572D01*
X144377143Y-99935715D01*
X144320001Y-99992858D01*
X144234286Y-100021429D01*
X144091429Y-100021429D01*
X144634286Y-99421429D02*
X145005715Y-99421429D01*
X144805715Y-99650001D01*
X144891429Y-99650001D01*
X144948572Y-99678572D01*
X144977143Y-99707143D01*
X145005715Y-99764286D01*
X145005715Y-99907143D01*
X144977143Y-99964286D01*
X144948572Y-99992858D01*
X144891429Y-100021429D01*
X144720001Y-100021429D01*
X144662858Y-99992858D01*
X144634286Y-99964286D01*
X145291429Y-100021429D02*
X145405715Y-100021429D01*
X145462858Y-99992858D01*
X145491429Y-99964286D01*
X145548572Y-99878572D01*
X145577143Y-99764286D01*
X145577143Y-99535715D01*
X145548572Y-99478572D01*
X145520001Y-99450001D01*
X145462858Y-99421429D01*
X145348572Y-99421429D01*
X145291429Y-99450001D01*
X145262858Y-99478572D01*
X145234286Y-99535715D01*
X145234286Y-99678572D01*
X145262858Y-99735715D01*
X145291429Y-99764286D01*
X145348572Y-99792858D01*
X145462858Y-99792858D01*
X145520001Y-99764286D01*
X145548572Y-99735715D01*
X145577143Y-99678572D01*
X179591429Y-100021429D02*
X179591429Y-99421429D01*
X179734286Y-99421429D01*
X179820001Y-99450001D01*
X179877143Y-99507143D01*
X179905715Y-99564286D01*
X179934286Y-99678572D01*
X179934286Y-99764286D01*
X179905715Y-99878572D01*
X179877143Y-99935715D01*
X179820001Y-99992858D01*
X179734286Y-100021429D01*
X179591429Y-100021429D01*
X180448572Y-99621429D02*
X180448572Y-100021429D01*
X180305715Y-99392858D02*
X180162858Y-99821429D01*
X180534286Y-99821429D01*
X180877143Y-99421429D02*
X180934286Y-99421429D01*
X180991429Y-99450001D01*
X181020001Y-99478572D01*
X181048572Y-99535715D01*
X181077143Y-99650001D01*
X181077143Y-99792858D01*
X181048572Y-99907143D01*
X181020001Y-99964286D01*
X180991429Y-99992858D01*
X180934286Y-100021429D01*
X180877143Y-100021429D01*
X180820001Y-99992858D01*
X180791429Y-99964286D01*
X180762858Y-99907143D01*
X180734286Y-99792858D01*
X180734286Y-99650001D01*
X180762858Y-99535715D01*
X180791429Y-99478572D01*
X180820001Y-99450001D01*
X180877143Y-99421429D01*
X182091429Y-100021429D02*
X182091429Y-99421429D01*
X182234286Y-99421429D01*
X182320001Y-99450001D01*
X182377143Y-99507143D01*
X182405715Y-99564286D01*
X182434286Y-99678572D01*
X182434286Y-99764286D01*
X182405715Y-99878572D01*
X182377143Y-99935715D01*
X182320001Y-99992858D01*
X182234286Y-100021429D01*
X182091429Y-100021429D01*
X182948572Y-99621429D02*
X182948572Y-100021429D01*
X182805715Y-99392858D02*
X182662858Y-99821429D01*
X183034286Y-99821429D01*
X183577143Y-100021429D02*
X183234286Y-100021429D01*
X183405715Y-100021429D02*
X183405715Y-99421429D01*
X183348572Y-99507143D01*
X183291429Y-99564286D01*
X183234286Y-99592858D01*
X217591429Y-100021429D02*
X217591429Y-99421429D01*
X217734286Y-99421429D01*
X217820001Y-99450001D01*
X217877143Y-99507143D01*
X217905715Y-99564286D01*
X217934286Y-99678572D01*
X217934286Y-99764286D01*
X217905715Y-99878572D01*
X217877143Y-99935715D01*
X217820001Y-99992858D01*
X217734286Y-100021429D01*
X217591429Y-100021429D01*
X218448572Y-99621429D02*
X218448572Y-100021429D01*
X218305715Y-99392858D02*
X218162858Y-99821429D01*
X218534286Y-99821429D01*
X218734286Y-99478572D02*
X218762858Y-99450001D01*
X218820001Y-99421429D01*
X218962858Y-99421429D01*
X219020001Y-99450001D01*
X219048572Y-99478572D01*
X219077143Y-99535715D01*
X219077143Y-99592858D01*
X219048572Y-99678572D01*
X218705715Y-100021429D01*
X219077143Y-100021429D01*
X220091429Y-100021429D02*
X220091429Y-99421429D01*
X220234286Y-99421429D01*
X220320001Y-99450001D01*
X220377143Y-99507143D01*
X220405715Y-99564286D01*
X220434286Y-99678572D01*
X220434286Y-99764286D01*
X220405715Y-99878572D01*
X220377143Y-99935715D01*
X220320001Y-99992858D01*
X220234286Y-100021429D01*
X220091429Y-100021429D01*
X220948572Y-99621429D02*
X220948572Y-100021429D01*
X220805715Y-99392858D02*
X220662858Y-99821429D01*
X221034286Y-99821429D01*
X221205715Y-99421429D02*
X221577143Y-99421429D01*
X221377143Y-99650001D01*
X221462858Y-99650001D01*
X221520001Y-99678572D01*
X221548572Y-99707143D01*
X221577143Y-99764286D01*
X221577143Y-99907143D01*
X221548572Y-99964286D01*
X221520001Y-99992858D01*
X221462858Y-100021429D01*
X221291429Y-100021429D01*
X221234286Y-99992858D01*
X221205715Y-99964286D01*
X255591429Y-100021429D02*
X255591429Y-99421429D01*
X255734286Y-99421429D01*
X255820001Y-99450001D01*
X255877143Y-99507143D01*
X255905715Y-99564286D01*
X255934286Y-99678572D01*
X255934286Y-99764286D01*
X255905715Y-99878572D01*
X255877143Y-99935715D01*
X255820001Y-99992858D01*
X255734286Y-100021429D01*
X255591429Y-100021429D01*
X256448572Y-99621429D02*
X256448572Y-100021429D01*
X256305715Y-99392858D02*
X256162858Y-99821429D01*
X256534286Y-99821429D01*
X257020001Y-99621429D02*
X257020001Y-100021429D01*
X256877143Y-99392858D02*
X256734286Y-99821429D01*
X257105715Y-99821429D01*
X258091429Y-100021429D02*
X258091429Y-99421429D01*
X258234286Y-99421429D01*
X258320001Y-99450001D01*
X258377143Y-99507143D01*
X258405715Y-99564286D01*
X258434286Y-99678572D01*
X258434286Y-99764286D01*
X258405715Y-99878572D01*
X258377143Y-99935715D01*
X258320001Y-99992858D01*
X258234286Y-100021429D01*
X258091429Y-100021429D01*
X258948572Y-99621429D02*
X258948572Y-100021429D01*
X258805715Y-99392858D02*
X258662858Y-99821429D01*
X259034286Y-99821429D01*
X259548572Y-99421429D02*
X259262858Y-99421429D01*
X259234286Y-99707143D01*
X259262858Y-99678572D01*
X259320001Y-99650001D01*
X259462858Y-99650001D01*
X259520001Y-99678572D01*
X259548572Y-99707143D01*
X259577143Y-99764286D01*
X259577143Y-99907143D01*
X259548572Y-99964286D01*
X259520001Y-99992858D01*
X259462858Y-100021429D01*
X259320001Y-100021429D01*
X259262858Y-99992858D01*
X259234286Y-99964286D01*
X293591429Y-100021429D02*
X293591429Y-99421429D01*
X293734286Y-99421429D01*
X293820001Y-99450001D01*
X293877143Y-99507143D01*
X293905715Y-99564286D01*
X293934286Y-99678572D01*
X293934286Y-99764286D01*
X293905715Y-99878572D01*
X293877143Y-99935715D01*
X293820001Y-99992858D01*
X293734286Y-100021429D01*
X293591429Y-100021429D01*
X294448572Y-99621429D02*
X294448572Y-100021429D01*
X294305715Y-99392858D02*
X294162858Y-99821429D01*
X294534286Y-99821429D01*
X295020001Y-99421429D02*
X294905715Y-99421429D01*
X294848572Y-99450001D01*
X294820001Y-99478572D01*
X294762858Y-99564286D01*
X294734286Y-99678572D01*
X294734286Y-99907143D01*
X294762858Y-99964286D01*
X294791429Y-99992858D01*
X294848572Y-100021429D01*
X294962858Y-100021429D01*
X295020001Y-99992858D01*
X295048572Y-99964286D01*
X295077143Y-99907143D01*
X295077143Y-99764286D01*
X295048572Y-99707143D01*
X295020001Y-99678572D01*
X294962858Y-99650001D01*
X294848572Y-99650001D01*
X294791429Y-99678572D01*
X294762858Y-99707143D01*
X294734286Y-99764286D01*
X296091429Y-100021429D02*
X296091429Y-99421429D01*
X296234286Y-99421429D01*
X296320001Y-99450001D01*
X296377143Y-99507143D01*
X296405715Y-99564286D01*
X296434286Y-99678572D01*
X296434286Y-99764286D01*
X296405715Y-99878572D01*
X296377143Y-99935715D01*
X296320001Y-99992858D01*
X296234286Y-100021429D01*
X296091429Y-100021429D01*
X296948572Y-99621429D02*
X296948572Y-100021429D01*
X296805715Y-99392858D02*
X296662858Y-99821429D01*
X297034286Y-99821429D01*
X297205715Y-99421429D02*
X297605715Y-99421429D01*
X297348572Y-100021429D01*
X98841429Y-119021429D02*
X98841429Y-118421429D01*
X98984286Y-118421429D01*
X99070001Y-118450001D01*
X99127143Y-118507143D01*
X99155715Y-118564286D01*
X99184286Y-118678572D01*
X99184286Y-118764286D01*
X99155715Y-118878572D01*
X99127143Y-118935715D01*
X99070001Y-118992858D01*
X98984286Y-119021429D01*
X98841429Y-119021429D01*
X99698572Y-118621429D02*
X99698572Y-119021429D01*
X99555715Y-118392858D02*
X99412858Y-118821429D01*
X99784286Y-118821429D01*
X100098572Y-118678572D02*
X100041429Y-118650001D01*
X100012858Y-118621429D01*
X99984286Y-118564286D01*
X99984286Y-118535715D01*
X100012858Y-118478572D01*
X100041429Y-118450001D01*
X100098572Y-118421429D01*
X100212858Y-118421429D01*
X100270001Y-118450001D01*
X100298572Y-118478572D01*
X100327143Y-118535715D01*
X100327143Y-118564286D01*
X100298572Y-118621429D01*
X100270001Y-118650001D01*
X100212858Y-118678572D01*
X100098572Y-118678572D01*
X100041429Y-118707143D01*
X100012858Y-118735715D01*
X99984286Y-118792858D01*
X99984286Y-118907143D01*
X100012858Y-118964286D01*
X100041429Y-118992858D01*
X100098572Y-119021429D01*
X100212858Y-119021429D01*
X100270001Y-118992858D01*
X100298572Y-118964286D01*
X100327143Y-118907143D01*
X100327143Y-118792858D01*
X100298572Y-118735715D01*
X100270001Y-118707143D01*
X100212858Y-118678572D01*
X101341429Y-119021429D02*
X101341429Y-118421429D01*
X101484286Y-118421429D01*
X101570001Y-118450001D01*
X101627143Y-118507143D01*
X101655715Y-118564286D01*
X101684286Y-118678572D01*
X101684286Y-118764286D01*
X101655715Y-118878572D01*
X101627143Y-118935715D01*
X101570001Y-118992858D01*
X101484286Y-119021429D01*
X101341429Y-119021429D01*
X102198572Y-118621429D02*
X102198572Y-119021429D01*
X102055715Y-118392858D02*
X101912858Y-118821429D01*
X102284286Y-118821429D01*
X102541429Y-119021429D02*
X102655715Y-119021429D01*
X102712858Y-118992858D01*
X102741429Y-118964286D01*
X102798572Y-118878572D01*
X102827143Y-118764286D01*
X102827143Y-118535715D01*
X102798572Y-118478572D01*
X102770001Y-118450001D01*
X102712858Y-118421429D01*
X102598572Y-118421429D01*
X102541429Y-118450001D01*
X102512858Y-118478572D01*
X102484286Y-118535715D01*
X102484286Y-118678572D01*
X102512858Y-118735715D01*
X102541429Y-118764286D01*
X102598572Y-118792858D01*
X102712858Y-118792858D01*
X102770001Y-118764286D01*
X102798572Y-118735715D01*
X102827143Y-118678572D01*
X136841429Y-119021429D02*
X136841429Y-118421429D01*
X136984286Y-118421429D01*
X137070001Y-118450001D01*
X137127143Y-118507143D01*
X137155715Y-118564286D01*
X137184286Y-118678572D01*
X137184286Y-118764286D01*
X137155715Y-118878572D01*
X137127143Y-118935715D01*
X137070001Y-118992858D01*
X136984286Y-119021429D01*
X136841429Y-119021429D01*
X137727143Y-118421429D02*
X137441429Y-118421429D01*
X137412858Y-118707143D01*
X137441429Y-118678572D01*
X137498572Y-118650001D01*
X137641429Y-118650001D01*
X137698572Y-118678572D01*
X137727143Y-118707143D01*
X137755715Y-118764286D01*
X137755715Y-118907143D01*
X137727143Y-118964286D01*
X137698572Y-118992858D01*
X137641429Y-119021429D01*
X137498572Y-119021429D01*
X137441429Y-118992858D01*
X137412858Y-118964286D01*
X138127143Y-118421429D02*
X138184286Y-118421429D01*
X138241429Y-118450001D01*
X138270001Y-118478572D01*
X138298572Y-118535715D01*
X138327143Y-118650001D01*
X138327143Y-118792858D01*
X138298572Y-118907143D01*
X138270001Y-118964286D01*
X138241429Y-118992858D01*
X138184286Y-119021429D01*
X138127143Y-119021429D01*
X138070001Y-118992858D01*
X138041429Y-118964286D01*
X138012858Y-118907143D01*
X137984286Y-118792858D01*
X137984286Y-118650001D01*
X138012858Y-118535715D01*
X138041429Y-118478572D01*
X138070001Y-118450001D01*
X138127143Y-118421429D01*
X139341429Y-119021429D02*
X139341429Y-118421429D01*
X139484286Y-118421429D01*
X139570001Y-118450001D01*
X139627143Y-118507143D01*
X139655715Y-118564286D01*
X139684286Y-118678572D01*
X139684286Y-118764286D01*
X139655715Y-118878572D01*
X139627143Y-118935715D01*
X139570001Y-118992858D01*
X139484286Y-119021429D01*
X139341429Y-119021429D01*
X140227143Y-118421429D02*
X139941429Y-118421429D01*
X139912858Y-118707143D01*
X139941429Y-118678572D01*
X139998572Y-118650001D01*
X140141429Y-118650001D01*
X140198572Y-118678572D01*
X140227143Y-118707143D01*
X140255715Y-118764286D01*
X140255715Y-118907143D01*
X140227143Y-118964286D01*
X140198572Y-118992858D01*
X140141429Y-119021429D01*
X139998572Y-119021429D01*
X139941429Y-118992858D01*
X139912858Y-118964286D01*
X140827143Y-119021429D02*
X140484286Y-119021429D01*
X140655715Y-119021429D02*
X140655715Y-118421429D01*
X140598572Y-118507143D01*
X140541429Y-118564286D01*
X140484286Y-118592858D01*
X174841429Y-111921429D02*
X174841429Y-111321429D01*
X174984286Y-111321429D01*
X175070001Y-111350001D01*
X175127143Y-111407143D01*
X175155715Y-111464286D01*
X175184286Y-111578572D01*
X175184286Y-111664286D01*
X175155715Y-111778572D01*
X175127143Y-111835715D01*
X175070001Y-111892858D01*
X174984286Y-111921429D01*
X174841429Y-111921429D01*
X175727143Y-111321429D02*
X175441429Y-111321429D01*
X175412858Y-111607143D01*
X175441429Y-111578572D01*
X175498572Y-111550001D01*
X175641429Y-111550001D01*
X175698572Y-111578572D01*
X175727143Y-111607143D01*
X175755715Y-111664286D01*
X175755715Y-111807143D01*
X175727143Y-111864286D01*
X175698572Y-111892858D01*
X175641429Y-111921429D01*
X175498572Y-111921429D01*
X175441429Y-111892858D01*
X175412858Y-111864286D01*
X175984286Y-111378572D02*
X176012858Y-111350001D01*
X176070001Y-111321429D01*
X176212858Y-111321429D01*
X176270001Y-111350001D01*
X176298572Y-111378572D01*
X176327143Y-111435715D01*
X176327143Y-111492858D01*
X176298572Y-111578572D01*
X175955715Y-111921429D01*
X176327143Y-111921429D01*
X177341429Y-111921429D02*
X177341429Y-111321429D01*
X177484286Y-111321429D01*
X177570001Y-111350001D01*
X177627143Y-111407143D01*
X177655715Y-111464286D01*
X177684286Y-111578572D01*
X177684286Y-111664286D01*
X177655715Y-111778572D01*
X177627143Y-111835715D01*
X177570001Y-111892858D01*
X177484286Y-111921429D01*
X177341429Y-111921429D01*
X178227143Y-111321429D02*
X177941429Y-111321429D01*
X177912858Y-111607143D01*
X177941429Y-111578572D01*
X177998572Y-111550001D01*
X178141429Y-111550001D01*
X178198572Y-111578572D01*
X178227143Y-111607143D01*
X178255715Y-111664286D01*
X178255715Y-111807143D01*
X178227143Y-111864286D01*
X178198572Y-111892858D01*
X178141429Y-111921429D01*
X177998572Y-111921429D01*
X177941429Y-111892858D01*
X177912858Y-111864286D01*
X178455715Y-111321429D02*
X178827143Y-111321429D01*
X178627143Y-111550001D01*
X178712858Y-111550001D01*
X178770001Y-111578572D01*
X178798572Y-111607143D01*
X178827143Y-111664286D01*
X178827143Y-111807143D01*
X178798572Y-111864286D01*
X178770001Y-111892858D01*
X178712858Y-111921429D01*
X178541429Y-111921429D01*
X178484286Y-111892858D01*
X178455715Y-111864286D01*
X212841429Y-111921429D02*
X212841429Y-111321429D01*
X212984286Y-111321429D01*
X213070001Y-111350001D01*
X213127143Y-111407143D01*
X213155715Y-111464286D01*
X213184286Y-111578572D01*
X213184286Y-111664286D01*
X213155715Y-111778572D01*
X213127143Y-111835715D01*
X213070001Y-111892858D01*
X212984286Y-111921429D01*
X212841429Y-111921429D01*
X213727143Y-111321429D02*
X213441429Y-111321429D01*
X213412858Y-111607143D01*
X213441429Y-111578572D01*
X213498572Y-111550001D01*
X213641429Y-111550001D01*
X213698572Y-111578572D01*
X213727143Y-111607143D01*
X213755715Y-111664286D01*
X213755715Y-111807143D01*
X213727143Y-111864286D01*
X213698572Y-111892858D01*
X213641429Y-111921429D01*
X213498572Y-111921429D01*
X213441429Y-111892858D01*
X213412858Y-111864286D01*
X214270001Y-111521429D02*
X214270001Y-111921429D01*
X214127143Y-111292858D02*
X213984286Y-111721429D01*
X214355715Y-111721429D01*
X215341429Y-111921429D02*
X215341429Y-111321429D01*
X215484286Y-111321429D01*
X215570001Y-111350001D01*
X215627143Y-111407143D01*
X215655715Y-111464286D01*
X215684286Y-111578572D01*
X215684286Y-111664286D01*
X215655715Y-111778572D01*
X215627143Y-111835715D01*
X215570001Y-111892858D01*
X215484286Y-111921429D01*
X215341429Y-111921429D01*
X216227143Y-111321429D02*
X215941429Y-111321429D01*
X215912858Y-111607143D01*
X215941429Y-111578572D01*
X215998572Y-111550001D01*
X216141429Y-111550001D01*
X216198572Y-111578572D01*
X216227143Y-111607143D01*
X216255715Y-111664286D01*
X216255715Y-111807143D01*
X216227143Y-111864286D01*
X216198572Y-111892858D01*
X216141429Y-111921429D01*
X215998572Y-111921429D01*
X215941429Y-111892858D01*
X215912858Y-111864286D01*
X216798572Y-111321429D02*
X216512858Y-111321429D01*
X216484286Y-111607143D01*
X216512858Y-111578572D01*
X216570001Y-111550001D01*
X216712858Y-111550001D01*
X216770001Y-111578572D01*
X216798572Y-111607143D01*
X216827143Y-111664286D01*
X216827143Y-111807143D01*
X216798572Y-111864286D01*
X216770001Y-111892858D01*
X216712858Y-111921429D01*
X216570001Y-111921429D01*
X216512858Y-111892858D01*
X216484286Y-111864286D01*
X250841429Y-119021429D02*
X250841429Y-118421429D01*
X250984286Y-118421429D01*
X251070001Y-118450001D01*
X251127143Y-118507143D01*
X251155715Y-118564286D01*
X251184286Y-118678572D01*
X251184286Y-118764286D01*
X251155715Y-118878572D01*
X251127143Y-118935715D01*
X251070001Y-118992858D01*
X250984286Y-119021429D01*
X250841429Y-119021429D01*
X251727143Y-118421429D02*
X251441429Y-118421429D01*
X251412858Y-118707143D01*
X251441429Y-118678572D01*
X251498572Y-118650001D01*
X251641429Y-118650001D01*
X251698572Y-118678572D01*
X251727143Y-118707143D01*
X251755715Y-118764286D01*
X251755715Y-118907143D01*
X251727143Y-118964286D01*
X251698572Y-118992858D01*
X251641429Y-119021429D01*
X251498572Y-119021429D01*
X251441429Y-118992858D01*
X251412858Y-118964286D01*
X252270001Y-118421429D02*
X252155715Y-118421429D01*
X252098572Y-118450001D01*
X252070001Y-118478572D01*
X252012858Y-118564286D01*
X251984286Y-118678572D01*
X251984286Y-118907143D01*
X252012858Y-118964286D01*
X252041429Y-118992858D01*
X252098572Y-119021429D01*
X252212858Y-119021429D01*
X252270001Y-118992858D01*
X252298572Y-118964286D01*
X252327143Y-118907143D01*
X252327143Y-118764286D01*
X252298572Y-118707143D01*
X252270001Y-118678572D01*
X252212858Y-118650001D01*
X252098572Y-118650001D01*
X252041429Y-118678572D01*
X252012858Y-118707143D01*
X251984286Y-118764286D01*
X253341429Y-119021429D02*
X253341429Y-118421429D01*
X253484286Y-118421429D01*
X253570001Y-118450001D01*
X253627143Y-118507143D01*
X253655715Y-118564286D01*
X253684286Y-118678572D01*
X253684286Y-118764286D01*
X253655715Y-118878572D01*
X253627143Y-118935715D01*
X253570001Y-118992858D01*
X253484286Y-119021429D01*
X253341429Y-119021429D01*
X254227143Y-118421429D02*
X253941429Y-118421429D01*
X253912858Y-118707143D01*
X253941429Y-118678572D01*
X253998572Y-118650001D01*
X254141429Y-118650001D01*
X254198572Y-118678572D01*
X254227143Y-118707143D01*
X254255715Y-118764286D01*
X254255715Y-118907143D01*
X254227143Y-118964286D01*
X254198572Y-118992858D01*
X254141429Y-119021429D01*
X253998572Y-119021429D01*
X253941429Y-118992858D01*
X253912858Y-118964286D01*
X254455715Y-118421429D02*
X254855715Y-118421429D01*
X254598572Y-119021429D01*
X288841429Y-119021429D02*
X288841429Y-118421429D01*
X288984286Y-118421429D01*
X289070001Y-118450001D01*
X289127143Y-118507143D01*
X289155715Y-118564286D01*
X289184286Y-118678572D01*
X289184286Y-118764286D01*
X289155715Y-118878572D01*
X289127143Y-118935715D01*
X289070001Y-118992858D01*
X288984286Y-119021429D01*
X288841429Y-119021429D01*
X289727143Y-118421429D02*
X289441429Y-118421429D01*
X289412858Y-118707143D01*
X289441429Y-118678572D01*
X289498572Y-118650001D01*
X289641429Y-118650001D01*
X289698572Y-118678572D01*
X289727143Y-118707143D01*
X289755715Y-118764286D01*
X289755715Y-118907143D01*
X289727143Y-118964286D01*
X289698572Y-118992858D01*
X289641429Y-119021429D01*
X289498572Y-119021429D01*
X289441429Y-118992858D01*
X289412858Y-118964286D01*
X290098572Y-118678572D02*
X290041429Y-118650001D01*
X290012858Y-118621429D01*
X289984286Y-118564286D01*
X289984286Y-118535715D01*
X290012858Y-118478572D01*
X290041429Y-118450001D01*
X290098572Y-118421429D01*
X290212858Y-118421429D01*
X290270001Y-118450001D01*
X290298572Y-118478572D01*
X290327143Y-118535715D01*
X290327143Y-118564286D01*
X290298572Y-118621429D01*
X290270001Y-118650001D01*
X290212858Y-118678572D01*
X290098572Y-118678572D01*
X290041429Y-118707143D01*
X290012858Y-118735715D01*
X289984286Y-118792858D01*
X289984286Y-118907143D01*
X290012858Y-118964286D01*
X290041429Y-118992858D01*
X290098572Y-119021429D01*
X290212858Y-119021429D01*
X290270001Y-118992858D01*
X290298572Y-118964286D01*
X290327143Y-118907143D01*
X290327143Y-118792858D01*
X290298572Y-118735715D01*
X290270001Y-118707143D01*
X290212858Y-118678572D01*
X291341429Y-119021429D02*
X291341429Y-118421429D01*
X291484286Y-118421429D01*
X291570001Y-118450001D01*
X291627143Y-118507143D01*
X291655715Y-118564286D01*
X291684286Y-118678572D01*
X291684286Y-118764286D01*
X291655715Y-118878572D01*
X291627143Y-118935715D01*
X291570001Y-118992858D01*
X291484286Y-119021429D01*
X291341429Y-119021429D01*
X292227143Y-118421429D02*
X291941429Y-118421429D01*
X291912858Y-118707143D01*
X291941429Y-118678572D01*
X291998572Y-118650001D01*
X292141429Y-118650001D01*
X292198572Y-118678572D01*
X292227143Y-118707143D01*
X292255715Y-118764286D01*
X292255715Y-118907143D01*
X292227143Y-118964286D01*
X292198572Y-118992858D01*
X292141429Y-119021429D01*
X291998572Y-119021429D01*
X291941429Y-118992858D01*
X291912858Y-118964286D01*
X292541429Y-119021429D02*
X292655715Y-119021429D01*
X292712858Y-118992858D01*
X292741429Y-118964286D01*
X292798572Y-118878572D01*
X292827143Y-118764286D01*
X292827143Y-118535715D01*
X292798572Y-118478572D01*
X292770001Y-118450001D01*
X292712858Y-118421429D01*
X292598572Y-118421429D01*
X292541429Y-118450001D01*
X292512858Y-118478572D01*
X292484286Y-118535715D01*
X292484286Y-118678572D01*
X292512858Y-118735715D01*
X292541429Y-118764286D01*
X292598572Y-118792858D01*
X292712858Y-118792858D01*
X292770001Y-118764286D01*
X292798572Y-118735715D01*
X292827143Y-118678572D01*
M02*
