G04 #@! TF.GenerationSoftware,KiCad,Pcbnew,(5.1.5-0-10_14)*
G04 #@! TF.CreationDate,2020-04-26T12:32:38-07:00*
G04 #@! TF.ProjectId,BRZ60_BLE_0.1,42525a36-305f-4424-9c45-5f302e312e6b,rev?*
G04 #@! TF.SameCoordinates,Original*
G04 #@! TF.FileFunction,Legend,Bot*
G04 #@! TF.FilePolarity,Positive*
%FSLAX46Y46*%
G04 Gerber Fmt 4.6, Leading zero omitted, Abs format (unit mm)*
G04 Created by KiCad (PCBNEW (5.1.5-0-10_14)) date 2020-04-26 12:32:38*
%MOMM*%
%LPD*%
G04 APERTURE LIST*
%ADD10C,0.120000*%
%ADD11C,0.150000*%
%ADD12C,0.200000*%
G04 APERTURE END LIST*
D10*
X126307142Y-50150000D02*
X126364285Y-50121428D01*
X126450000Y-50121428D01*
X126535714Y-50150000D01*
X126592857Y-50207142D01*
X126621428Y-50264285D01*
X126650000Y-50378571D01*
X126650000Y-50464285D01*
X126621428Y-50578571D01*
X126592857Y-50635714D01*
X126535714Y-50692857D01*
X126450000Y-50721428D01*
X126392857Y-50721428D01*
X126307142Y-50692857D01*
X126278571Y-50664285D01*
X126278571Y-50464285D01*
X126392857Y-50464285D01*
X126021428Y-50721428D02*
X126021428Y-50121428D01*
X125678571Y-50721428D01*
X125678571Y-50121428D01*
X125392857Y-50721428D02*
X125392857Y-50121428D01*
X125250000Y-50121428D01*
X125164285Y-50150000D01*
X125107142Y-50207142D01*
X125078571Y-50264285D01*
X125050000Y-50378571D01*
X125050000Y-50464285D01*
X125078571Y-50578571D01*
X125107142Y-50635714D01*
X125164285Y-50692857D01*
X125250000Y-50721428D01*
X125392857Y-50721428D01*
X124328571Y-50721428D02*
X124328571Y-50121428D01*
X124185714Y-50121428D01*
X124100000Y-50150000D01*
X124042857Y-50207142D01*
X124014285Y-50264285D01*
X123985714Y-50378571D01*
X123985714Y-50464285D01*
X124014285Y-50578571D01*
X124042857Y-50635714D01*
X124100000Y-50692857D01*
X124185714Y-50721428D01*
X124328571Y-50721428D01*
X123728571Y-50492857D02*
X123271428Y-50492857D01*
X122278571Y-50671428D02*
X122278571Y-50071428D01*
X122135714Y-50071428D01*
X122050000Y-50100000D01*
X121992857Y-50157142D01*
X121964285Y-50214285D01*
X121935714Y-50328571D01*
X121935714Y-50414285D01*
X121964285Y-50528571D01*
X121992857Y-50585714D01*
X122050000Y-50642857D01*
X122135714Y-50671428D01*
X122278571Y-50671428D01*
X121678571Y-50442857D02*
X121221428Y-50442857D01*
X121450000Y-50671428D02*
X121450000Y-50214285D01*
X120600000Y-50071428D02*
X120400000Y-50671428D01*
X120200000Y-50071428D01*
X119657142Y-50614285D02*
X119685714Y-50642857D01*
X119771428Y-50671428D01*
X119828571Y-50671428D01*
X119914285Y-50642857D01*
X119971428Y-50585714D01*
X120000000Y-50528571D01*
X120028571Y-50414285D01*
X120028571Y-50328571D01*
X120000000Y-50214285D01*
X119971428Y-50157142D01*
X119914285Y-50100000D01*
X119828571Y-50071428D01*
X119771428Y-50071428D01*
X119685714Y-50100000D01*
X119657142Y-50128571D01*
X119057142Y-50614285D02*
X119085714Y-50642857D01*
X119171428Y-50671428D01*
X119228571Y-50671428D01*
X119314285Y-50642857D01*
X119371428Y-50585714D01*
X119400000Y-50528571D01*
X119428571Y-50414285D01*
X119428571Y-50328571D01*
X119400000Y-50214285D01*
X119371428Y-50157142D01*
X119314285Y-50100000D01*
X119228571Y-50071428D01*
X119171428Y-50071428D01*
X119085714Y-50100000D01*
X119057142Y-50128571D01*
D11*
X304967857Y-51547619D02*
X305005952Y-51661904D01*
X305044047Y-51700000D01*
X305120238Y-51738095D01*
X305234523Y-51738095D01*
X305310714Y-51700000D01*
X305348809Y-51661904D01*
X305386904Y-51585714D01*
X305386904Y-51280952D01*
X304586904Y-51280952D01*
X304586904Y-51547619D01*
X304625000Y-51623809D01*
X304663095Y-51661904D01*
X304739285Y-51700000D01*
X304815476Y-51700000D01*
X304891666Y-51661904D01*
X304929761Y-51623809D01*
X304967857Y-51547619D01*
X304967857Y-51280952D01*
X305386904Y-52080952D02*
X304853571Y-52080952D01*
X305005952Y-52080952D02*
X304929761Y-52119047D01*
X304891666Y-52157142D01*
X304853571Y-52233333D01*
X304853571Y-52309523D01*
X305348809Y-52880952D02*
X305386904Y-52804761D01*
X305386904Y-52652380D01*
X305348809Y-52576190D01*
X305272619Y-52538095D01*
X304967857Y-52538095D01*
X304891666Y-52576190D01*
X304853571Y-52652380D01*
X304853571Y-52804761D01*
X304891666Y-52880952D01*
X304967857Y-52919047D01*
X305044047Y-52919047D01*
X305120238Y-52538095D01*
X305348809Y-53566666D02*
X305386904Y-53490476D01*
X305386904Y-53338095D01*
X305348809Y-53261904D01*
X305272619Y-53223809D01*
X304967857Y-53223809D01*
X304891666Y-53261904D01*
X304853571Y-53338095D01*
X304853571Y-53490476D01*
X304891666Y-53566666D01*
X304967857Y-53604761D01*
X305044047Y-53604761D01*
X305120238Y-53223809D01*
X304853571Y-53871428D02*
X304853571Y-54290476D01*
X305386904Y-53871428D01*
X305386904Y-54290476D01*
X305348809Y-54900000D02*
X305386904Y-54823809D01*
X305386904Y-54671428D01*
X305348809Y-54595238D01*
X305272619Y-54557142D01*
X304967857Y-54557142D01*
X304891666Y-54595238D01*
X304853571Y-54671428D01*
X304853571Y-54823809D01*
X304891666Y-54900000D01*
X304967857Y-54938095D01*
X305044047Y-54938095D01*
X305120238Y-54557142D01*
X305386904Y-55280952D02*
X304586904Y-55280952D01*
X304891666Y-55280952D02*
X304853571Y-55357142D01*
X304853571Y-55509523D01*
X304891666Y-55585714D01*
X304929761Y-55623809D01*
X305005952Y-55661904D01*
X305234523Y-55661904D01*
X305310714Y-55623809D01*
X305348809Y-55585714D01*
X305386904Y-55509523D01*
X305386904Y-55357142D01*
X305348809Y-55280952D01*
X305386904Y-56119047D02*
X305348809Y-56042857D01*
X305272619Y-56004761D01*
X304586904Y-56004761D01*
X305386904Y-56538095D02*
X305348809Y-56461904D01*
X305310714Y-56423809D01*
X305234523Y-56385714D01*
X305005952Y-56385714D01*
X304929761Y-56423809D01*
X304891666Y-56461904D01*
X304853571Y-56538095D01*
X304853571Y-56652380D01*
X304891666Y-56728571D01*
X304929761Y-56766666D01*
X305005952Y-56804761D01*
X305234523Y-56804761D01*
X305310714Y-56766666D01*
X305348809Y-56728571D01*
X305386904Y-56652380D01*
X305386904Y-56538095D01*
X305348809Y-57490476D02*
X305386904Y-57414285D01*
X305386904Y-57261904D01*
X305348809Y-57185714D01*
X305310714Y-57147619D01*
X305234523Y-57109523D01*
X305005952Y-57109523D01*
X304929761Y-57147619D01*
X304891666Y-57185714D01*
X304853571Y-57261904D01*
X304853571Y-57414285D01*
X304891666Y-57490476D01*
X305386904Y-57833333D02*
X304586904Y-57833333D01*
X305082142Y-57909523D02*
X305386904Y-58138095D01*
X304853571Y-58138095D02*
X305158333Y-57833333D01*
X304967857Y-59357142D02*
X305005952Y-59471428D01*
X305044047Y-59509523D01*
X305120238Y-59547619D01*
X305234523Y-59547619D01*
X305310714Y-59509523D01*
X305348809Y-59471428D01*
X305386904Y-59395238D01*
X305386904Y-59090476D01*
X304586904Y-59090476D01*
X304586904Y-59357142D01*
X304625000Y-59433333D01*
X304663095Y-59471428D01*
X304739285Y-59509523D01*
X304815476Y-59509523D01*
X304891666Y-59471428D01*
X304929761Y-59433333D01*
X304967857Y-59357142D01*
X304967857Y-59090476D01*
X305386904Y-60004761D02*
X305348809Y-59928571D01*
X305272619Y-59890476D01*
X304586904Y-59890476D01*
X304853571Y-60652380D02*
X305386904Y-60652380D01*
X304853571Y-60309523D02*
X305272619Y-60309523D01*
X305348809Y-60347619D01*
X305386904Y-60423809D01*
X305386904Y-60538095D01*
X305348809Y-60614285D01*
X305310714Y-60652380D01*
X305348809Y-61338095D02*
X305386904Y-61261904D01*
X305386904Y-61109523D01*
X305348809Y-61033333D01*
X305272619Y-60995238D01*
X304967857Y-60995238D01*
X304891666Y-61033333D01*
X304853571Y-61109523D01*
X304853571Y-61261904D01*
X304891666Y-61338095D01*
X304967857Y-61376190D01*
X305044047Y-61376190D01*
X305120238Y-60995238D01*
X304853571Y-61604761D02*
X304853571Y-61909523D01*
X304586904Y-61719047D02*
X305272619Y-61719047D01*
X305348809Y-61757142D01*
X305386904Y-61833333D01*
X305386904Y-61909523D01*
X305386904Y-62290476D02*
X305348809Y-62214285D01*
X305310714Y-62176190D01*
X305234523Y-62138095D01*
X305005952Y-62138095D01*
X304929761Y-62176190D01*
X304891666Y-62214285D01*
X304853571Y-62290476D01*
X304853571Y-62404761D01*
X304891666Y-62480952D01*
X304929761Y-62519047D01*
X305005952Y-62557142D01*
X305234523Y-62557142D01*
X305310714Y-62519047D01*
X305348809Y-62480952D01*
X305386904Y-62404761D01*
X305386904Y-62290476D01*
X305386904Y-63014285D02*
X305348809Y-62938095D01*
X305310714Y-62900000D01*
X305234523Y-62861904D01*
X305005952Y-62861904D01*
X304929761Y-62900000D01*
X304891666Y-62938095D01*
X304853571Y-63014285D01*
X304853571Y-63128571D01*
X304891666Y-63204761D01*
X304929761Y-63242857D01*
X305005952Y-63280952D01*
X305234523Y-63280952D01*
X305310714Y-63242857D01*
X305348809Y-63204761D01*
X305386904Y-63128571D01*
X305386904Y-63014285D01*
X304853571Y-63509523D02*
X304853571Y-63814285D01*
X304586904Y-63623809D02*
X305272619Y-63623809D01*
X305348809Y-63661904D01*
X305386904Y-63738095D01*
X305386904Y-63814285D01*
X305386904Y-64080952D02*
X304586904Y-64080952D01*
X305386904Y-64423809D02*
X304967857Y-64423809D01*
X304891666Y-64385714D01*
X304853571Y-64309523D01*
X304853571Y-64195238D01*
X304891666Y-64119047D01*
X304929761Y-64080952D01*
X305386904Y-65414285D02*
X304586904Y-65414285D01*
X305386904Y-65871428D02*
X304929761Y-65528571D01*
X304586904Y-65871428D02*
X305044047Y-65414285D01*
X305348809Y-66519047D02*
X305386904Y-66442857D01*
X305386904Y-66290476D01*
X305348809Y-66214285D01*
X305272619Y-66176190D01*
X304967857Y-66176190D01*
X304891666Y-66214285D01*
X304853571Y-66290476D01*
X304853571Y-66442857D01*
X304891666Y-66519047D01*
X304967857Y-66557142D01*
X305044047Y-66557142D01*
X305120238Y-66176190D01*
X304853571Y-66823809D02*
X305386904Y-67014285D01*
X304853571Y-67204761D02*
X305386904Y-67014285D01*
X305577380Y-66938095D01*
X305615476Y-66900000D01*
X305653571Y-66823809D01*
X305386904Y-67509523D02*
X304586904Y-67509523D01*
X304891666Y-67509523D02*
X304853571Y-67585714D01*
X304853571Y-67738095D01*
X304891666Y-67814285D01*
X304929761Y-67852380D01*
X305005952Y-67890476D01*
X305234523Y-67890476D01*
X305310714Y-67852380D01*
X305348809Y-67814285D01*
X305386904Y-67738095D01*
X305386904Y-67585714D01*
X305348809Y-67509523D01*
X305386904Y-68347619D02*
X305348809Y-68271428D01*
X305310714Y-68233333D01*
X305234523Y-68195238D01*
X305005952Y-68195238D01*
X304929761Y-68233333D01*
X304891666Y-68271428D01*
X304853571Y-68347619D01*
X304853571Y-68461904D01*
X304891666Y-68538095D01*
X304929761Y-68576190D01*
X305005952Y-68614285D01*
X305234523Y-68614285D01*
X305310714Y-68576190D01*
X305348809Y-68538095D01*
X305386904Y-68461904D01*
X305386904Y-68347619D01*
X305386904Y-69300000D02*
X304967857Y-69300000D01*
X304891666Y-69261904D01*
X304853571Y-69185714D01*
X304853571Y-69033333D01*
X304891666Y-68957142D01*
X305348809Y-69300000D02*
X305386904Y-69223809D01*
X305386904Y-69033333D01*
X305348809Y-68957142D01*
X305272619Y-68919047D01*
X305196428Y-68919047D01*
X305120238Y-68957142D01*
X305082142Y-69033333D01*
X305082142Y-69223809D01*
X305044047Y-69300000D01*
X305386904Y-69680952D02*
X304853571Y-69680952D01*
X305005952Y-69680952D02*
X304929761Y-69719047D01*
X304891666Y-69757142D01*
X304853571Y-69833333D01*
X304853571Y-69909523D01*
X305386904Y-70519047D02*
X304586904Y-70519047D01*
X305348809Y-70519047D02*
X305386904Y-70442857D01*
X305386904Y-70290476D01*
X305348809Y-70214285D01*
X305310714Y-70176190D01*
X305234523Y-70138095D01*
X305005952Y-70138095D01*
X304929761Y-70176190D01*
X304891666Y-70214285D01*
X304853571Y-70290476D01*
X304853571Y-70442857D01*
X304891666Y-70519047D01*
X306317857Y-57052380D02*
X306355952Y-57166666D01*
X306394047Y-57204761D01*
X306470238Y-57242857D01*
X306584523Y-57242857D01*
X306660714Y-57204761D01*
X306698809Y-57166666D01*
X306736904Y-57090476D01*
X306736904Y-56785714D01*
X305936904Y-56785714D01*
X305936904Y-57052380D01*
X305975000Y-57128571D01*
X306013095Y-57166666D01*
X306089285Y-57204761D01*
X306165476Y-57204761D01*
X306241666Y-57166666D01*
X306279761Y-57128571D01*
X306317857Y-57052380D01*
X306317857Y-56785714D01*
X306736904Y-58042857D02*
X306355952Y-57776190D01*
X306736904Y-57585714D02*
X305936904Y-57585714D01*
X305936904Y-57890476D01*
X305975000Y-57966666D01*
X306013095Y-58004761D01*
X306089285Y-58042857D01*
X306203571Y-58042857D01*
X306279761Y-58004761D01*
X306317857Y-57966666D01*
X306355952Y-57890476D01*
X306355952Y-57585714D01*
X305936904Y-58309523D02*
X305936904Y-58842857D01*
X306736904Y-58309523D01*
X306736904Y-58842857D01*
X305936904Y-59490476D02*
X305936904Y-59338095D01*
X305975000Y-59261904D01*
X306013095Y-59223809D01*
X306127380Y-59147619D01*
X306279761Y-59109523D01*
X306584523Y-59109523D01*
X306660714Y-59147619D01*
X306698809Y-59185714D01*
X306736904Y-59261904D01*
X306736904Y-59414285D01*
X306698809Y-59490476D01*
X306660714Y-59528571D01*
X306584523Y-59566666D01*
X306394047Y-59566666D01*
X306317857Y-59528571D01*
X306279761Y-59490476D01*
X306241666Y-59414285D01*
X306241666Y-59261904D01*
X306279761Y-59185714D01*
X306317857Y-59147619D01*
X306394047Y-59109523D01*
X305936904Y-60061904D02*
X305936904Y-60138095D01*
X305975000Y-60214285D01*
X306013095Y-60252380D01*
X306089285Y-60290476D01*
X306241666Y-60328571D01*
X306432142Y-60328571D01*
X306584523Y-60290476D01*
X306660714Y-60252380D01*
X306698809Y-60214285D01*
X306736904Y-60138095D01*
X306736904Y-60061904D01*
X306698809Y-59985714D01*
X306660714Y-59947619D01*
X306584523Y-59909523D01*
X306432142Y-59871428D01*
X306241666Y-59871428D01*
X306089285Y-59909523D01*
X306013095Y-59947619D01*
X305975000Y-59985714D01*
X305936904Y-60061904D01*
X306432142Y-61280952D02*
X306432142Y-61890476D01*
X306203571Y-62804761D02*
X306736904Y-62995238D01*
X306203571Y-63185714D01*
X305936904Y-63642857D02*
X305936904Y-63719047D01*
X305975000Y-63795238D01*
X306013095Y-63833333D01*
X306089285Y-63871428D01*
X306241666Y-63909523D01*
X306432142Y-63909523D01*
X306584523Y-63871428D01*
X306660714Y-63833333D01*
X306698809Y-63795238D01*
X306736904Y-63719047D01*
X306736904Y-63642857D01*
X306698809Y-63566666D01*
X306660714Y-63528571D01*
X306584523Y-63490476D01*
X306432142Y-63452380D01*
X306241666Y-63452380D01*
X306089285Y-63490476D01*
X306013095Y-63528571D01*
X305975000Y-63566666D01*
X305936904Y-63642857D01*
X306660714Y-64252380D02*
X306698809Y-64290476D01*
X306736904Y-64252380D01*
X306698809Y-64214285D01*
X306660714Y-64252380D01*
X306736904Y-64252380D01*
X306736904Y-65052380D02*
X306736904Y-64595238D01*
X306736904Y-64823809D02*
X305936904Y-64823809D01*
X306051190Y-64747619D01*
X306127380Y-64671428D01*
X306165476Y-64595238D01*
X308086904Y-56690476D02*
X307286904Y-56690476D01*
X308086904Y-57147619D01*
X307286904Y-57147619D01*
X308086904Y-57642857D02*
X308048809Y-57566666D01*
X308010714Y-57528571D01*
X307934523Y-57490476D01*
X307705952Y-57490476D01*
X307629761Y-57528571D01*
X307591666Y-57566666D01*
X307553571Y-57642857D01*
X307553571Y-57757142D01*
X307591666Y-57833333D01*
X307629761Y-57871428D01*
X307705952Y-57909523D01*
X307934523Y-57909523D01*
X308010714Y-57871428D01*
X308048809Y-57833333D01*
X308086904Y-57757142D01*
X308086904Y-57642857D01*
X307667857Y-58252380D02*
X307667857Y-58519047D01*
X308086904Y-58633333D02*
X308086904Y-58252380D01*
X307286904Y-58252380D01*
X307286904Y-58633333D01*
X307553571Y-58900000D02*
X308086904Y-59090476D01*
X307553571Y-59280952D02*
X308086904Y-59090476D01*
X308277380Y-59014285D01*
X308315476Y-58976190D01*
X308353571Y-58900000D01*
X308048809Y-59890476D02*
X308086904Y-59814285D01*
X308086904Y-59661904D01*
X308048809Y-59585714D01*
X307972619Y-59547619D01*
X307667857Y-59547619D01*
X307591666Y-59585714D01*
X307553571Y-59661904D01*
X307553571Y-59814285D01*
X307591666Y-59890476D01*
X307667857Y-59928571D01*
X307744047Y-59928571D01*
X307820238Y-59547619D01*
X308048809Y-60233333D02*
X308086904Y-60309523D01*
X308086904Y-60461904D01*
X308048809Y-60538095D01*
X307972619Y-60576190D01*
X307934523Y-60576190D01*
X307858333Y-60538095D01*
X307820238Y-60461904D01*
X307820238Y-60347619D01*
X307782142Y-60271428D01*
X307705952Y-60233333D01*
X307667857Y-60233333D01*
X307591666Y-60271428D01*
X307553571Y-60347619D01*
X307553571Y-60461904D01*
X307591666Y-60538095D01*
X307286904Y-61147619D02*
X307858333Y-61147619D01*
X307972619Y-61109523D01*
X308048809Y-61033333D01*
X308086904Y-60919047D01*
X308086904Y-60842857D01*
X307553571Y-61871428D02*
X308086904Y-61871428D01*
X307553571Y-61528571D02*
X307972619Y-61528571D01*
X308048809Y-61566666D01*
X308086904Y-61642857D01*
X308086904Y-61757142D01*
X308048809Y-61833333D01*
X308010714Y-61871428D01*
X308048809Y-62214285D02*
X308086904Y-62290476D01*
X308086904Y-62442857D01*
X308048809Y-62519047D01*
X307972619Y-62557142D01*
X307934523Y-62557142D01*
X307858333Y-62519047D01*
X307820238Y-62442857D01*
X307820238Y-62328571D01*
X307782142Y-62252380D01*
X307705952Y-62214285D01*
X307667857Y-62214285D01*
X307591666Y-62252380D01*
X307553571Y-62328571D01*
X307553571Y-62442857D01*
X307591666Y-62519047D01*
X307553571Y-62785714D02*
X307553571Y-63090476D01*
X307286904Y-62900000D02*
X307972619Y-62900000D01*
X308048809Y-62938095D01*
X308086904Y-63014285D01*
X308086904Y-63090476D01*
X307667857Y-63623809D02*
X307667857Y-63357142D01*
X308086904Y-63357142D02*
X307286904Y-63357142D01*
X307286904Y-63738095D01*
X307553571Y-64385714D02*
X308086904Y-64385714D01*
X307553571Y-64042857D02*
X307972619Y-64042857D01*
X308048809Y-64080952D01*
X308086904Y-64157142D01*
X308086904Y-64271428D01*
X308048809Y-64347619D01*
X308010714Y-64385714D01*
X307553571Y-64766666D02*
X308086904Y-64766666D01*
X307629761Y-64766666D02*
X307591666Y-64804761D01*
X307553571Y-64880952D01*
X307553571Y-64995238D01*
X307591666Y-65071428D01*
X307667857Y-65109523D01*
X308086904Y-65109523D01*
X309208333Y-57871428D02*
X309208333Y-58252380D01*
X309436904Y-57795238D02*
X308636904Y-58061904D01*
X309436904Y-58328571D01*
X308903571Y-58595238D02*
X309703571Y-58595238D01*
X308941666Y-58595238D02*
X308903571Y-58671428D01*
X308903571Y-58823809D01*
X308941666Y-58900000D01*
X308979761Y-58938095D01*
X309055952Y-58976190D01*
X309284523Y-58976190D01*
X309360714Y-58938095D01*
X309398809Y-58900000D01*
X309436904Y-58823809D01*
X309436904Y-58671428D01*
X309398809Y-58595238D01*
X309436904Y-59319047D02*
X308903571Y-59319047D01*
X309055952Y-59319047D02*
X308979761Y-59357142D01*
X308941666Y-59395238D01*
X308903571Y-59471428D01*
X308903571Y-59547619D01*
X309436904Y-59814285D02*
X308903571Y-59814285D01*
X308636904Y-59814285D02*
X308675000Y-59776190D01*
X308713095Y-59814285D01*
X308675000Y-59852380D01*
X308636904Y-59814285D01*
X308713095Y-59814285D01*
X309436904Y-60309523D02*
X309398809Y-60233333D01*
X309322619Y-60195238D01*
X308636904Y-60195238D01*
X308713095Y-61185714D02*
X308675000Y-61223809D01*
X308636904Y-61300000D01*
X308636904Y-61490476D01*
X308675000Y-61566666D01*
X308713095Y-61604761D01*
X308789285Y-61642857D01*
X308865476Y-61642857D01*
X308979761Y-61604761D01*
X309436904Y-61147619D01*
X309436904Y-61642857D01*
X308636904Y-62138095D02*
X308636904Y-62214285D01*
X308675000Y-62290476D01*
X308713095Y-62328571D01*
X308789285Y-62366666D01*
X308941666Y-62404761D01*
X309132142Y-62404761D01*
X309284523Y-62366666D01*
X309360714Y-62328571D01*
X309398809Y-62290476D01*
X309436904Y-62214285D01*
X309436904Y-62138095D01*
X309398809Y-62061904D01*
X309360714Y-62023809D01*
X309284523Y-61985714D01*
X309132142Y-61947619D01*
X308941666Y-61947619D01*
X308789285Y-61985714D01*
X308713095Y-62023809D01*
X308675000Y-62061904D01*
X308636904Y-62138095D01*
X308713095Y-62709523D02*
X308675000Y-62747619D01*
X308636904Y-62823809D01*
X308636904Y-63014285D01*
X308675000Y-63090476D01*
X308713095Y-63128571D01*
X308789285Y-63166666D01*
X308865476Y-63166666D01*
X308979761Y-63128571D01*
X309436904Y-62671428D01*
X309436904Y-63166666D01*
X308636904Y-63661904D02*
X308636904Y-63738095D01*
X308675000Y-63814285D01*
X308713095Y-63852380D01*
X308789285Y-63890476D01*
X308941666Y-63928571D01*
X309132142Y-63928571D01*
X309284523Y-63890476D01*
X309360714Y-63852380D01*
X309398809Y-63814285D01*
X309436904Y-63738095D01*
X309436904Y-63661904D01*
X309398809Y-63585714D01*
X309360714Y-63547619D01*
X309284523Y-63509523D01*
X309132142Y-63471428D01*
X308941666Y-63471428D01*
X308789285Y-63509523D01*
X308713095Y-63547619D01*
X308675000Y-63585714D01*
X308636904Y-63661904D01*
D10*
X177090000Y-49720000D02*
G75*
G03X174550000Y-52260000I0J-2540000D01*
G01*
X174550000Y-70040000D02*
G75*
G03X177090000Y-72580000I2540000J0D01*
G01*
X222810000Y-72580000D02*
G75*
G03X225350000Y-70040000I0J2540000D01*
G01*
X225350000Y-52260000D02*
G75*
G03X222810000Y-49720000I-2540000J0D01*
G01*
D11*
X170058001Y-70782001D02*
X170058001Y-71036001D01*
X171582001Y-71036001D02*
X171582001Y-70782001D01*
X170058001Y-70909001D02*
X171582001Y-70909001D01*
X171582001Y-71036001D02*
X170058001Y-71036001D01*
X171582001Y-70782001D02*
X170058001Y-70782001D01*
D10*
X187870000Y-52260000D02*
X190410000Y-52260000D01*
X187870000Y-54800000D02*
X187870000Y-52260000D01*
X187870000Y-70040000D02*
X187870000Y-67500000D01*
X187870000Y-70040000D02*
X190410000Y-70040000D01*
X218350000Y-52260000D02*
X220890000Y-52260000D01*
X220890000Y-54800000D02*
X220890000Y-52260000D01*
X220890000Y-70040000D02*
X220890000Y-67500000D01*
X218350000Y-70040000D02*
X220890000Y-70040000D01*
X195650000Y-38500000D02*
X198150000Y-38500000D01*
X194150000Y-36750000D02*
X194150000Y-34750000D01*
X195650000Y-33000000D02*
X198150000Y-33000000D01*
X199650000Y-36750000D02*
X199650000Y-34750000D01*
X195200000Y-38050000D02*
X195650000Y-38500000D01*
X198600000Y-38050000D02*
X198150000Y-38500000D01*
X198600000Y-33450000D02*
X198150000Y-33000000D01*
X195200000Y-33450000D02*
X195650000Y-33000000D01*
D12*
X123450000Y-32350000D02*
X123450000Y-41550000D01*
X116150000Y-32350000D02*
X123450000Y-32350000D01*
X116150000Y-41550000D02*
X116150000Y-32350000D01*
X123450000Y-41550000D02*
X116150000Y-41550000D01*
D10*
X266525000Y-66950000D02*
X267800000Y-66950000D01*
X267800000Y-66950000D02*
X267800000Y-65350000D01*
X267800000Y-65350000D02*
X268800000Y-65350000D01*
X268800000Y-65350000D02*
X268800000Y-69575000D01*
X260700000Y-69575000D02*
X260700000Y-65350000D01*
X260700000Y-65350000D02*
X261700000Y-65350000D01*
X261700000Y-65350000D02*
X261700000Y-66950000D01*
X261700000Y-66950000D02*
X262975000Y-66950000D01*
X267075000Y-73150000D02*
X262425000Y-73150000D01*
X266525000Y-66950000D02*
X266525000Y-64050000D01*
D11*
X136808001Y-44782001D02*
X136808001Y-45036001D01*
X138332001Y-45036001D02*
X138332001Y-44782001D01*
X136808001Y-44909001D02*
X138332001Y-44909001D01*
X138332001Y-45036001D02*
X136808001Y-45036001D01*
X138332001Y-44782001D02*
X136808001Y-44782001D01*
X98808001Y-44782001D02*
X98808001Y-45036001D01*
X100332001Y-45036001D02*
X100332001Y-44782001D01*
X98808001Y-44909001D02*
X100332001Y-44909001D01*
X100332001Y-45036001D02*
X98808001Y-45036001D01*
X100332001Y-44782001D02*
X98808001Y-44782001D01*
X101308001Y-44782001D02*
X101308001Y-45036001D01*
X102832001Y-45036001D02*
X102832001Y-44782001D01*
X101308001Y-44909001D02*
X102832001Y-44909001D01*
X102832001Y-45036001D02*
X101308001Y-45036001D01*
X102832001Y-44782001D02*
X101308001Y-44782001D01*
X139308001Y-44782001D02*
X139308001Y-45036001D01*
X140832001Y-45036001D02*
X140832001Y-44782001D01*
X139308001Y-44909001D02*
X140832001Y-44909001D01*
X140832001Y-45036001D02*
X139308001Y-45036001D01*
X140832001Y-44782001D02*
X139308001Y-44782001D01*
X174808001Y-44782001D02*
X174808001Y-45036001D01*
X176332001Y-45036001D02*
X176332001Y-44782001D01*
X174808001Y-44909001D02*
X176332001Y-44909001D01*
X176332001Y-45036001D02*
X174808001Y-45036001D01*
X176332001Y-44782001D02*
X174808001Y-44782001D01*
X177308001Y-44782001D02*
X177308001Y-45036001D01*
X178832001Y-45036001D02*
X178832001Y-44782001D01*
X177308001Y-44909001D02*
X178832001Y-44909001D01*
X178832001Y-45036001D02*
X177308001Y-45036001D01*
X178832001Y-44782001D02*
X177308001Y-44782001D01*
X212808001Y-44782001D02*
X212808001Y-45036001D01*
X214332001Y-45036001D02*
X214332001Y-44782001D01*
X212808001Y-44909001D02*
X214332001Y-44909001D01*
X214332001Y-45036001D02*
X212808001Y-45036001D01*
X214332001Y-44782001D02*
X212808001Y-44782001D01*
X215308001Y-44782001D02*
X215308001Y-45036001D01*
X216832001Y-45036001D02*
X216832001Y-44782001D01*
X215308001Y-44909001D02*
X216832001Y-44909001D01*
X216832001Y-45036001D02*
X215308001Y-45036001D01*
X216832001Y-44782001D02*
X215308001Y-44782001D01*
X250808001Y-44782001D02*
X250808001Y-45036001D01*
X252332001Y-45036001D02*
X252332001Y-44782001D01*
X250808001Y-44909001D02*
X252332001Y-44909001D01*
X252332001Y-45036001D02*
X250808001Y-45036001D01*
X252332001Y-44782001D02*
X250808001Y-44782001D01*
X253308001Y-44782001D02*
X253308001Y-45036001D01*
X254832001Y-45036001D02*
X254832001Y-44782001D01*
X253308001Y-44909001D02*
X254832001Y-44909001D01*
X254832001Y-45036001D02*
X253308001Y-45036001D01*
X254832001Y-44782001D02*
X253308001Y-44782001D01*
X288808001Y-44782001D02*
X288808001Y-45036001D01*
X290332001Y-45036001D02*
X290332001Y-44782001D01*
X288808001Y-44909001D02*
X290332001Y-44909001D01*
X290332001Y-45036001D02*
X288808001Y-45036001D01*
X290332001Y-44782001D02*
X288808001Y-44782001D01*
X291308001Y-44782001D02*
X291308001Y-45036001D01*
X292832001Y-45036001D02*
X292832001Y-44782001D01*
X291308001Y-44909001D02*
X292832001Y-44909001D01*
X292832001Y-45036001D02*
X291308001Y-45036001D01*
X292832001Y-44782001D02*
X291308001Y-44782001D01*
X94058001Y-63782001D02*
X94058001Y-64036001D01*
X95582001Y-64036001D02*
X95582001Y-63782001D01*
X94058001Y-63909001D02*
X95582001Y-63909001D01*
X95582001Y-64036001D02*
X94058001Y-64036001D01*
X95582001Y-63782001D02*
X94058001Y-63782001D01*
X96558001Y-63782001D02*
X96558001Y-64036001D01*
X98082001Y-64036001D02*
X98082001Y-63782001D01*
X96558001Y-63909001D02*
X98082001Y-63909001D01*
X98082001Y-64036001D02*
X96558001Y-64036001D01*
X98082001Y-63782001D02*
X96558001Y-63782001D01*
X132058001Y-63782001D02*
X132058001Y-64036001D01*
X133582001Y-64036001D02*
X133582001Y-63782001D01*
X132058001Y-63909001D02*
X133582001Y-63909001D01*
X133582001Y-64036001D02*
X132058001Y-64036001D01*
X133582001Y-63782001D02*
X132058001Y-63782001D01*
X134558001Y-63782001D02*
X134558001Y-64036001D01*
X136082001Y-64036001D02*
X136082001Y-63782001D01*
X134558001Y-63909001D02*
X136082001Y-63909001D01*
X136082001Y-64036001D02*
X134558001Y-64036001D01*
X136082001Y-63782001D02*
X134558001Y-63782001D01*
X172558001Y-70782001D02*
X172558001Y-71036001D01*
X174082001Y-71036001D02*
X174082001Y-70782001D01*
X172558001Y-70909001D02*
X174082001Y-70909001D01*
X174082001Y-71036001D02*
X172558001Y-71036001D01*
X174082001Y-70782001D02*
X172558001Y-70782001D01*
X227058001Y-63782001D02*
X227058001Y-64036001D01*
X228582001Y-64036001D02*
X228582001Y-63782001D01*
X227058001Y-63909001D02*
X228582001Y-63909001D01*
X228582001Y-64036001D02*
X227058001Y-64036001D01*
X228582001Y-63782001D02*
X227058001Y-63782001D01*
X229558001Y-63782001D02*
X229558001Y-64036001D01*
X231082001Y-64036001D02*
X231082001Y-63782001D01*
X229558001Y-63909001D02*
X231082001Y-63909001D01*
X231082001Y-64036001D02*
X229558001Y-64036001D01*
X231082001Y-63782001D02*
X229558001Y-63782001D01*
X246058001Y-63782001D02*
X246058001Y-64036001D01*
X247582001Y-64036001D02*
X247582001Y-63782001D01*
X246058001Y-63909001D02*
X247582001Y-63909001D01*
X247582001Y-64036001D02*
X246058001Y-64036001D01*
X247582001Y-63782001D02*
X246058001Y-63782001D01*
X248558001Y-63782001D02*
X248558001Y-64036001D01*
X250082001Y-64036001D02*
X250082001Y-63782001D01*
X248558001Y-63909001D02*
X250082001Y-63909001D01*
X250082001Y-64036001D02*
X248558001Y-64036001D01*
X250082001Y-63782001D02*
X248558001Y-63782001D01*
X284058001Y-63782001D02*
X284058001Y-64036001D01*
X285582001Y-64036001D02*
X285582001Y-63782001D01*
X284058001Y-63909001D02*
X285582001Y-63909001D01*
X285582001Y-64036001D02*
X284058001Y-64036001D01*
X285582001Y-63782001D02*
X284058001Y-63782001D01*
X286558001Y-63782001D02*
X286558001Y-64036001D01*
X288082001Y-64036001D02*
X288082001Y-63782001D01*
X286558001Y-63909001D02*
X288082001Y-63909001D01*
X288082001Y-64036001D02*
X286558001Y-64036001D01*
X288082001Y-63782001D02*
X286558001Y-63782001D01*
X98808001Y-82782001D02*
X98808001Y-83036001D01*
X100332001Y-83036001D02*
X100332001Y-82782001D01*
X98808001Y-82909001D02*
X100332001Y-82909001D01*
X100332001Y-83036001D02*
X98808001Y-83036001D01*
X100332001Y-82782001D02*
X98808001Y-82782001D01*
X101308001Y-82782001D02*
X101308001Y-83036001D01*
X102832001Y-83036001D02*
X102832001Y-82782001D01*
X101308001Y-82909001D02*
X102832001Y-82909001D01*
X102832001Y-83036001D02*
X101308001Y-83036001D01*
X102832001Y-82782001D02*
X101308001Y-82782001D01*
X136808001Y-82782001D02*
X136808001Y-83036001D01*
X138332001Y-83036001D02*
X138332001Y-82782001D01*
X136808001Y-82909001D02*
X138332001Y-82909001D01*
X138332001Y-83036001D02*
X136808001Y-83036001D01*
X138332001Y-82782001D02*
X136808001Y-82782001D01*
X139308001Y-82782001D02*
X139308001Y-83036001D01*
X140832001Y-83036001D02*
X140832001Y-82782001D01*
X139308001Y-82909001D02*
X140832001Y-82909001D01*
X140832001Y-83036001D02*
X139308001Y-83036001D01*
X140832001Y-82782001D02*
X139308001Y-82782001D01*
X174808001Y-82782001D02*
X174808001Y-83036001D01*
X176332001Y-83036001D02*
X176332001Y-82782001D01*
X174808001Y-82909001D02*
X176332001Y-82909001D01*
X176332001Y-83036001D02*
X174808001Y-83036001D01*
X176332001Y-82782001D02*
X174808001Y-82782001D01*
X177308001Y-82782001D02*
X177308001Y-83036001D01*
X178832001Y-83036001D02*
X178832001Y-82782001D01*
X177308001Y-82909001D02*
X178832001Y-82909001D01*
X178832001Y-83036001D02*
X177308001Y-83036001D01*
X178832001Y-82782001D02*
X177308001Y-82782001D01*
X212808001Y-82782001D02*
X212808001Y-83036001D01*
X214332001Y-83036001D02*
X214332001Y-82782001D01*
X212808001Y-82909001D02*
X214332001Y-82909001D01*
X214332001Y-83036001D02*
X212808001Y-83036001D01*
X214332001Y-82782001D02*
X212808001Y-82782001D01*
X215308001Y-82782001D02*
X215308001Y-83036001D01*
X216832001Y-83036001D02*
X216832001Y-82782001D01*
X215308001Y-82909001D02*
X216832001Y-82909001D01*
X216832001Y-83036001D02*
X215308001Y-83036001D01*
X216832001Y-82782001D02*
X215308001Y-82782001D01*
X250808001Y-82782001D02*
X250808001Y-83036001D01*
X252332001Y-83036001D02*
X252332001Y-82782001D01*
X250808001Y-82909001D02*
X252332001Y-82909001D01*
X252332001Y-83036001D02*
X250808001Y-83036001D01*
X252332001Y-82782001D02*
X250808001Y-82782001D01*
X253308001Y-82782001D02*
X253308001Y-83036001D01*
X254832001Y-83036001D02*
X254832001Y-82782001D01*
X253308001Y-82909001D02*
X254832001Y-82909001D01*
X254832001Y-83036001D02*
X253308001Y-83036001D01*
X254832001Y-82782001D02*
X253308001Y-82782001D01*
X288808001Y-82782001D02*
X288808001Y-83036001D01*
X290332001Y-83036001D02*
X290332001Y-82782001D01*
X288808001Y-82909001D02*
X290332001Y-82909001D01*
X290332001Y-83036001D02*
X288808001Y-83036001D01*
X290332001Y-82782001D02*
X288808001Y-82782001D01*
X291308001Y-82782001D02*
X291308001Y-83036001D01*
X292832001Y-83036001D02*
X292832001Y-82782001D01*
X291308001Y-82909001D02*
X292832001Y-82909001D01*
X292832001Y-83036001D02*
X291308001Y-83036001D01*
X292832001Y-82782001D02*
X291308001Y-82782001D01*
X103558001Y-101782001D02*
X103558001Y-102036001D01*
X105082001Y-102036001D02*
X105082001Y-101782001D01*
X103558001Y-101909001D02*
X105082001Y-101909001D01*
X105082001Y-102036001D02*
X103558001Y-102036001D01*
X105082001Y-101782001D02*
X103558001Y-101782001D01*
X106058001Y-101782001D02*
X106058001Y-102036001D01*
X107582001Y-102036001D02*
X107582001Y-101782001D01*
X106058001Y-101909001D02*
X107582001Y-101909001D01*
X107582001Y-102036001D02*
X106058001Y-102036001D01*
X107582001Y-101782001D02*
X106058001Y-101782001D01*
X141558001Y-101782001D02*
X141558001Y-102036001D01*
X143082001Y-102036001D02*
X143082001Y-101782001D01*
X141558001Y-101909001D02*
X143082001Y-101909001D01*
X143082001Y-102036001D02*
X141558001Y-102036001D01*
X143082001Y-101782001D02*
X141558001Y-101782001D01*
X144058001Y-101782001D02*
X144058001Y-102036001D01*
X145582001Y-102036001D02*
X145582001Y-101782001D01*
X144058001Y-101909001D02*
X145582001Y-101909001D01*
X145582001Y-102036001D02*
X144058001Y-102036001D01*
X145582001Y-101782001D02*
X144058001Y-101782001D01*
X179558001Y-101782001D02*
X179558001Y-102036001D01*
X181082001Y-102036001D02*
X181082001Y-101782001D01*
X179558001Y-101909001D02*
X181082001Y-101909001D01*
X181082001Y-102036001D02*
X179558001Y-102036001D01*
X181082001Y-101782001D02*
X179558001Y-101782001D01*
X182058001Y-101782001D02*
X182058001Y-102036001D01*
X183582001Y-102036001D02*
X183582001Y-101782001D01*
X182058001Y-101909001D02*
X183582001Y-101909001D01*
X183582001Y-102036001D02*
X182058001Y-102036001D01*
X183582001Y-101782001D02*
X182058001Y-101782001D01*
X217558001Y-101782001D02*
X217558001Y-102036001D01*
X219082001Y-102036001D02*
X219082001Y-101782001D01*
X217558001Y-101909001D02*
X219082001Y-101909001D01*
X219082001Y-102036001D02*
X217558001Y-102036001D01*
X219082001Y-101782001D02*
X217558001Y-101782001D01*
X220058001Y-101782001D02*
X220058001Y-102036001D01*
X221582001Y-102036001D02*
X221582001Y-101782001D01*
X220058001Y-101909001D02*
X221582001Y-101909001D01*
X221582001Y-102036001D02*
X220058001Y-102036001D01*
X221582001Y-101782001D02*
X220058001Y-101782001D01*
X255558001Y-101782001D02*
X255558001Y-102036001D01*
X257082001Y-102036001D02*
X257082001Y-101782001D01*
X255558001Y-101909001D02*
X257082001Y-101909001D01*
X257082001Y-102036001D02*
X255558001Y-102036001D01*
X257082001Y-101782001D02*
X255558001Y-101782001D01*
X258058001Y-101782001D02*
X258058001Y-102036001D01*
X259582001Y-102036001D02*
X259582001Y-101782001D01*
X258058001Y-101909001D02*
X259582001Y-101909001D01*
X259582001Y-102036001D02*
X258058001Y-102036001D01*
X259582001Y-101782001D02*
X258058001Y-101782001D01*
X293558001Y-101782001D02*
X293558001Y-102036001D01*
X295082001Y-102036001D02*
X295082001Y-101782001D01*
X293558001Y-101909001D02*
X295082001Y-101909001D01*
X295082001Y-102036001D02*
X293558001Y-102036001D01*
X295082001Y-101782001D02*
X293558001Y-101782001D01*
X296058001Y-101782001D02*
X296058001Y-102036001D01*
X297582001Y-102036001D02*
X297582001Y-101782001D01*
X296058001Y-101909001D02*
X297582001Y-101909001D01*
X297582001Y-102036001D02*
X296058001Y-102036001D01*
X297582001Y-101782001D02*
X296058001Y-101782001D01*
X98808001Y-120782001D02*
X98808001Y-121036001D01*
X100332001Y-121036001D02*
X100332001Y-120782001D01*
X98808001Y-120909001D02*
X100332001Y-120909001D01*
X100332001Y-121036001D02*
X98808001Y-121036001D01*
X100332001Y-120782001D02*
X98808001Y-120782001D01*
X101308001Y-120782001D02*
X101308001Y-121036001D01*
X102832001Y-121036001D02*
X102832001Y-120782001D01*
X101308001Y-120909001D02*
X102832001Y-120909001D01*
X102832001Y-121036001D02*
X101308001Y-121036001D01*
X102832001Y-120782001D02*
X101308001Y-120782001D01*
X136808001Y-120782001D02*
X136808001Y-121036001D01*
X138332001Y-121036001D02*
X138332001Y-120782001D01*
X136808001Y-120909001D02*
X138332001Y-120909001D01*
X138332001Y-121036001D02*
X136808001Y-121036001D01*
X138332001Y-120782001D02*
X136808001Y-120782001D01*
X139308001Y-120782001D02*
X139308001Y-121036001D01*
X140832001Y-121036001D02*
X140832001Y-120782001D01*
X139308001Y-120909001D02*
X140832001Y-120909001D01*
X140832001Y-121036001D02*
X139308001Y-121036001D01*
X140832001Y-120782001D02*
X139308001Y-120782001D01*
X174808001Y-113682001D02*
X174808001Y-113936001D01*
X176332001Y-113936001D02*
X176332001Y-113682001D01*
X174808001Y-113809001D02*
X176332001Y-113809001D01*
X176332001Y-113936001D02*
X174808001Y-113936001D01*
X176332001Y-113682001D02*
X174808001Y-113682001D01*
X177308001Y-113682001D02*
X177308001Y-113936001D01*
X178832001Y-113936001D02*
X178832001Y-113682001D01*
X177308001Y-113809001D02*
X178832001Y-113809001D01*
X178832001Y-113936001D02*
X177308001Y-113936001D01*
X178832001Y-113682001D02*
X177308001Y-113682001D01*
X212808001Y-113682001D02*
X212808001Y-113936001D01*
X214332001Y-113936001D02*
X214332001Y-113682001D01*
X212808001Y-113809001D02*
X214332001Y-113809001D01*
X214332001Y-113936001D02*
X212808001Y-113936001D01*
X214332001Y-113682001D02*
X212808001Y-113682001D01*
X215308001Y-113682001D02*
X215308001Y-113936001D01*
X216832001Y-113936001D02*
X216832001Y-113682001D01*
X215308001Y-113809001D02*
X216832001Y-113809001D01*
X216832001Y-113936001D02*
X215308001Y-113936001D01*
X216832001Y-113682001D02*
X215308001Y-113682001D01*
X250808001Y-120782001D02*
X250808001Y-121036001D01*
X252332001Y-121036001D02*
X252332001Y-120782001D01*
X250808001Y-120909001D02*
X252332001Y-120909001D01*
X252332001Y-121036001D02*
X250808001Y-121036001D01*
X252332001Y-120782001D02*
X250808001Y-120782001D01*
X253308001Y-120782001D02*
X253308001Y-121036001D01*
X254832001Y-121036001D02*
X254832001Y-120782001D01*
X253308001Y-120909001D02*
X254832001Y-120909001D01*
X254832001Y-121036001D02*
X253308001Y-121036001D01*
X254832001Y-120782001D02*
X253308001Y-120782001D01*
X288808001Y-120782001D02*
X288808001Y-121036001D01*
X290332001Y-121036001D02*
X290332001Y-120782001D01*
X288808001Y-120909001D02*
X290332001Y-120909001D01*
X290332001Y-121036001D02*
X288808001Y-121036001D01*
X290332001Y-120782001D02*
X288808001Y-120782001D01*
X291308001Y-120782001D02*
X291308001Y-121036001D01*
X292832001Y-121036001D02*
X292832001Y-120782001D01*
X291308001Y-120909001D02*
X292832001Y-120909001D01*
X292832001Y-121036001D02*
X291308001Y-121036001D01*
X292832001Y-120782001D02*
X291308001Y-120782001D01*
D10*
X275350000Y-34180000D02*
X275350000Y-34970000D01*
X268450000Y-34970000D02*
X268450000Y-34180000D01*
X270300000Y-36020000D02*
X272000000Y-36020000D01*
X269050000Y-33170000D02*
X274750000Y-33170000D01*
X271800000Y-31880000D02*
X271800000Y-33170000D01*
X270700000Y-31670000D02*
X271600000Y-31670000D01*
X270500000Y-33170000D02*
X270500000Y-31880000D01*
X271800000Y-31880000D02*
X271600000Y-31670000D01*
X270500000Y-31880000D02*
X270700000Y-31670000D01*
X273300000Y-36020000D02*
X273500000Y-36020000D01*
X118740000Y-52250000D02*
X118740000Y-53310000D01*
X118740000Y-53310000D02*
X119800000Y-53310000D01*
X120800000Y-53310000D02*
X126860000Y-53310000D01*
X126860000Y-51190000D02*
X126860000Y-53310000D01*
X120800000Y-51190000D02*
X126860000Y-51190000D01*
X120800000Y-51190000D02*
X120800000Y-53310000D01*
X191092857Y-63835714D02*
X191092857Y-64035714D01*
X190778571Y-64035714D02*
X191378571Y-64035714D01*
X191378571Y-63750000D01*
X190807142Y-63292857D02*
X190778571Y-63350000D01*
X190778571Y-63464285D01*
X190807142Y-63521428D01*
X190864285Y-63550000D01*
X191092857Y-63550000D01*
X191150000Y-63521428D01*
X191178571Y-63464285D01*
X191178571Y-63350000D01*
X191150000Y-63292857D01*
X191092857Y-63264285D01*
X191035714Y-63264285D01*
X190978571Y-63550000D01*
X190778571Y-62750000D02*
X191092857Y-62750000D01*
X191150000Y-62778571D01*
X191178571Y-62835714D01*
X191178571Y-62950000D01*
X191150000Y-63007142D01*
X190807142Y-62750000D02*
X190778571Y-62807142D01*
X190778571Y-62950000D01*
X190807142Y-63007142D01*
X190864285Y-63035714D01*
X190921428Y-63035714D01*
X190978571Y-63007142D01*
X191007142Y-62950000D01*
X191007142Y-62807142D01*
X191035714Y-62750000D01*
X191178571Y-62550000D02*
X191178571Y-62321428D01*
X191378571Y-62464285D02*
X190864285Y-62464285D01*
X190807142Y-62435714D01*
X190778571Y-62378571D01*
X190778571Y-62321428D01*
X190778571Y-62121428D02*
X191378571Y-62121428D01*
X190778571Y-61864285D02*
X191092857Y-61864285D01*
X191150000Y-61892857D01*
X191178571Y-61950000D01*
X191178571Y-62035714D01*
X191150000Y-62092857D01*
X191121428Y-62121428D01*
X190807142Y-61350000D02*
X190778571Y-61407142D01*
X190778571Y-61521428D01*
X190807142Y-61578571D01*
X190864285Y-61607142D01*
X191092857Y-61607142D01*
X191150000Y-61578571D01*
X191178571Y-61521428D01*
X191178571Y-61407142D01*
X191150000Y-61350000D01*
X191092857Y-61321428D01*
X191035714Y-61321428D01*
X190978571Y-61607142D01*
X190778571Y-61064285D02*
X191178571Y-61064285D01*
X191064285Y-61064285D02*
X191121428Y-61035714D01*
X191150000Y-61007142D01*
X191178571Y-60950000D01*
X191178571Y-60892857D01*
X191378571Y-60292857D02*
X191378571Y-59921428D01*
X191150000Y-60121428D01*
X191150000Y-60035714D01*
X191121428Y-59978571D01*
X191092857Y-59950000D01*
X191035714Y-59921428D01*
X190892857Y-59921428D01*
X190835714Y-59950000D01*
X190807142Y-59978571D01*
X190778571Y-60035714D01*
X190778571Y-60207142D01*
X190807142Y-60264285D01*
X190835714Y-60292857D01*
X191321428Y-59692857D02*
X191350000Y-59664285D01*
X191378571Y-59607142D01*
X191378571Y-59464285D01*
X191350000Y-59407142D01*
X191321428Y-59378571D01*
X191264285Y-59350000D01*
X191207142Y-59350000D01*
X191121428Y-59378571D01*
X190778571Y-59721428D01*
X190778571Y-59350000D01*
X191178571Y-58835714D02*
X190778571Y-58835714D01*
X191178571Y-59092857D02*
X190864285Y-59092857D01*
X190807142Y-59064285D01*
X190778571Y-59007142D01*
X190778571Y-58921428D01*
X190807142Y-58864285D01*
X190835714Y-58835714D01*
X191178571Y-58292857D02*
X190778571Y-58292857D01*
X191407142Y-58435714D02*
X190978571Y-58578571D01*
X190978571Y-58207142D01*
X219577142Y-55446142D02*
X219605714Y-55531857D01*
X219634285Y-55560428D01*
X219691428Y-55589000D01*
X219777142Y-55589000D01*
X219834285Y-55560428D01*
X219862857Y-55531857D01*
X219891428Y-55474714D01*
X219891428Y-55246142D01*
X219291428Y-55246142D01*
X219291428Y-55446142D01*
X219320000Y-55503285D01*
X219348571Y-55531857D01*
X219405714Y-55560428D01*
X219462857Y-55560428D01*
X219520000Y-55531857D01*
X219548571Y-55503285D01*
X219577142Y-55446142D01*
X219577142Y-55246142D01*
X219291428Y-56131857D02*
X219291428Y-55846142D01*
X219577142Y-55817571D01*
X219548571Y-55846142D01*
X219520000Y-55903285D01*
X219520000Y-56046142D01*
X219548571Y-56103285D01*
X219577142Y-56131857D01*
X219634285Y-56160428D01*
X219777142Y-56160428D01*
X219834285Y-56131857D01*
X219862857Y-56103285D01*
X219891428Y-56046142D01*
X219891428Y-55903285D01*
X219862857Y-55846142D01*
X219834285Y-55817571D01*
X209778571Y-63192858D02*
X210378571Y-63192858D01*
X210378571Y-62964286D01*
X210350000Y-62907143D01*
X210321428Y-62878572D01*
X210264285Y-62850001D01*
X210178571Y-62850001D01*
X210121428Y-62878572D01*
X210092857Y-62907143D01*
X210064285Y-62964286D01*
X210064285Y-63192858D01*
X209778571Y-62592858D02*
X210178571Y-62592858D01*
X210064285Y-62592858D02*
X210121428Y-62564286D01*
X210150000Y-62535715D01*
X210178571Y-62478572D01*
X210178571Y-62421429D01*
X209778571Y-62135715D02*
X209807142Y-62192858D01*
X209835714Y-62221429D01*
X209892857Y-62250001D01*
X210064285Y-62250001D01*
X210121428Y-62221429D01*
X210150000Y-62192858D01*
X210178571Y-62135715D01*
X210178571Y-62050001D01*
X210150000Y-61992858D01*
X210121428Y-61964286D01*
X210064285Y-61935715D01*
X209892857Y-61935715D01*
X209835714Y-61964286D01*
X209807142Y-61992858D01*
X209778571Y-62050001D01*
X209778571Y-62135715D01*
X209778571Y-61221429D02*
X210378571Y-61221429D01*
X209950000Y-61021429D01*
X210378571Y-60821429D01*
X209778571Y-60821429D01*
X209778571Y-60535715D02*
X210178571Y-60535715D01*
X210378571Y-60535715D02*
X210350000Y-60564286D01*
X210321428Y-60535715D01*
X210350000Y-60507143D01*
X210378571Y-60535715D01*
X210321428Y-60535715D01*
X209807142Y-59992858D02*
X209778571Y-60050001D01*
X209778571Y-60164286D01*
X209807142Y-60221429D01*
X209835714Y-60250001D01*
X209892857Y-60278572D01*
X210064285Y-60278572D01*
X210121428Y-60250001D01*
X210150000Y-60221429D01*
X210178571Y-60164286D01*
X210178571Y-60050001D01*
X210150000Y-59992858D01*
X209778571Y-59735715D02*
X210178571Y-59735715D01*
X210064285Y-59735715D02*
X210121428Y-59707143D01*
X210150000Y-59678572D01*
X210178571Y-59621429D01*
X210178571Y-59564286D01*
X209778571Y-59278572D02*
X209807142Y-59335715D01*
X209835714Y-59364286D01*
X209892857Y-59392858D01*
X210064285Y-59392858D01*
X210121428Y-59364286D01*
X210150000Y-59335715D01*
X210178571Y-59278572D01*
X210178571Y-59192858D01*
X210150000Y-59135715D01*
X210121428Y-59107143D01*
X210064285Y-59078572D01*
X209892857Y-59078572D01*
X209835714Y-59107143D01*
X209807142Y-59135715D01*
X209778571Y-59192858D01*
X209778571Y-59278572D01*
X197228571Y-39771428D02*
X197428571Y-39485714D01*
X197571428Y-39771428D02*
X197571428Y-39171428D01*
X197342857Y-39171428D01*
X197285714Y-39200000D01*
X197257142Y-39228571D01*
X197228571Y-39285714D01*
X197228571Y-39371428D01*
X197257142Y-39428571D01*
X197285714Y-39457142D01*
X197342857Y-39485714D01*
X197571428Y-39485714D01*
X197000000Y-39742857D02*
X196914285Y-39771428D01*
X196771428Y-39771428D01*
X196714285Y-39742857D01*
X196685714Y-39714285D01*
X196657142Y-39657142D01*
X196657142Y-39600000D01*
X196685714Y-39542857D01*
X196714285Y-39514285D01*
X196771428Y-39485714D01*
X196885714Y-39457142D01*
X196942857Y-39428571D01*
X196971428Y-39400000D01*
X197000000Y-39342857D01*
X197000000Y-39285714D01*
X196971428Y-39228571D01*
X196942857Y-39200000D01*
X196885714Y-39171428D01*
X196742857Y-39171428D01*
X196657142Y-39200000D01*
X196485714Y-39171428D02*
X196142857Y-39171428D01*
X196314285Y-39771428D02*
X196314285Y-39171428D01*
D11*
X123039047Y-38651904D02*
X123039047Y-39299523D01*
X123000952Y-39375714D01*
X122962857Y-39413809D01*
X122886666Y-39451904D01*
X122734285Y-39451904D01*
X122658095Y-39413809D01*
X122620000Y-39375714D01*
X122581904Y-39299523D01*
X122581904Y-38651904D01*
X122239047Y-39413809D02*
X122124761Y-39451904D01*
X121934285Y-39451904D01*
X121858095Y-39413809D01*
X121820000Y-39375714D01*
X121781904Y-39299523D01*
X121781904Y-39223333D01*
X121820000Y-39147142D01*
X121858095Y-39109047D01*
X121934285Y-39070952D01*
X122086666Y-39032857D01*
X122162857Y-38994761D01*
X122200952Y-38956666D01*
X122239047Y-38880476D01*
X122239047Y-38804285D01*
X122200952Y-38728095D01*
X122162857Y-38690000D01*
X122086666Y-38651904D01*
X121896190Y-38651904D01*
X121781904Y-38690000D01*
X121172380Y-39032857D02*
X121058095Y-39070952D01*
X121020000Y-39109047D01*
X120981904Y-39185238D01*
X120981904Y-39299523D01*
X121020000Y-39375714D01*
X121058095Y-39413809D01*
X121134285Y-39451904D01*
X121439047Y-39451904D01*
X121439047Y-38651904D01*
X121172380Y-38651904D01*
X121096190Y-38690000D01*
X121058095Y-38728095D01*
X121020000Y-38804285D01*
X121020000Y-38880476D01*
X121058095Y-38956666D01*
X121096190Y-38994761D01*
X121172380Y-39032857D01*
X121439047Y-39032857D01*
X120829523Y-39528095D02*
X120220000Y-39528095D01*
X119762857Y-39032857D02*
X119648571Y-39070952D01*
X119610476Y-39109047D01*
X119572380Y-39185238D01*
X119572380Y-39299523D01*
X119610476Y-39375714D01*
X119648571Y-39413809D01*
X119724761Y-39451904D01*
X120029523Y-39451904D01*
X120029523Y-38651904D01*
X119762857Y-38651904D01*
X119686666Y-38690000D01*
X119648571Y-38728095D01*
X119610476Y-38804285D01*
X119610476Y-38880476D01*
X119648571Y-38956666D01*
X119686666Y-38994761D01*
X119762857Y-39032857D01*
X120029523Y-39032857D01*
X119420000Y-39528095D02*
X118810476Y-39528095D01*
X118620000Y-39451904D02*
X118620000Y-38651904D01*
X118353333Y-39223333D01*
X118086666Y-38651904D01*
X118086666Y-39451904D01*
X117705714Y-39451904D02*
X117705714Y-38918571D01*
X117705714Y-38651904D02*
X117743809Y-38690000D01*
X117705714Y-38728095D01*
X117667619Y-38690000D01*
X117705714Y-38651904D01*
X117705714Y-38728095D01*
X117324761Y-38918571D02*
X117324761Y-39451904D01*
X117324761Y-38994761D02*
X117286666Y-38956666D01*
X117210476Y-38918571D01*
X117096190Y-38918571D01*
X117020000Y-38956666D01*
X116981904Y-39032857D01*
X116981904Y-39451904D01*
X116600952Y-39451904D02*
X116600952Y-38918571D01*
X116600952Y-38651904D02*
X116639047Y-38690000D01*
X116600952Y-38728095D01*
X116562857Y-38690000D01*
X116600952Y-38651904D01*
X116600952Y-38728095D01*
D10*
X272650000Y-38521428D02*
X272650000Y-37921428D01*
X272421428Y-37921428D01*
X272364285Y-37950000D01*
X272335714Y-37978571D01*
X272307142Y-38035714D01*
X272307142Y-38121428D01*
X272335714Y-38178571D01*
X272364285Y-38207142D01*
X272421428Y-38235714D01*
X272650000Y-38235714D01*
X272107142Y-37921428D02*
X271964285Y-38521428D01*
X271850000Y-38092857D01*
X271735714Y-38521428D01*
X271592857Y-37921428D01*
X271021428Y-38521428D02*
X271221428Y-38235714D01*
X271364285Y-38521428D02*
X271364285Y-37921428D01*
X271135714Y-37921428D01*
X271078571Y-37950000D01*
X271050000Y-37978571D01*
X271021428Y-38035714D01*
X271021428Y-38121428D01*
X271050000Y-38178571D01*
X271078571Y-38207142D01*
X271135714Y-38235714D01*
X271364285Y-38235714D01*
M02*
