M48
; DRILL file {KiCad (5.1.5-0-10_14)} date Sunday, April 26, 2020 at 12:32:55 PM
; FORMAT={-:-/ absolute / inch / decimal}
; #@! TF.CreationDate,2020-04-26T12:32:55-07:00
; #@! TF.GenerationSoftware,Kicad,Pcbnew,(5.1.5-0-10_14)
; #@! TF.FileFunction,NonPlated,1,2,NPTH
FMAT,2
INCH
T1C0.0310
T2C0.0354
T3C0.0472
T4C0.0669
T5C0.0689
T6C0.1200
T7C0.1570
%
G90
G05
T1
X7.435Y-2.868
X7.435Y-2.5707
X7.3858Y-2.868
X7.435Y-2.6189
X7.435Y-2.6689
X7.435Y-2.7189
X7.435Y-2.7689
X7.435Y-2.8189
X7.3858Y-2.5707
X7.0866Y-2.8699
X7.0866Y-2.5709
X7.1362Y-2.5707
X7.1862Y-2.5707
X7.2362Y-2.5707
X7.2862Y-2.5707
X7.3362Y-2.5707
X7.0866Y-2.6205
X7.0866Y-2.6705
X7.0866Y-2.7205
X7.0866Y-2.7705
X7.0866Y-2.8205
X7.1362Y-2.8699
X7.1862Y-2.8699
X7.2362Y-2.8699
X7.2862Y-2.8699
X7.3362Y-2.8699
T2
X10.6457Y-1.361
X10.7638Y-1.361
T3
X5.8209Y-4.0925
X3.3898Y-1.8484
X10.122Y-1.8484
X9.187Y-2.5965
X9.935Y-2.5965
X10.122Y-4.8406
X10.8701Y-4.8406
X11.6181Y-4.8406
X7.1299Y-4.8406
X7.878Y-4.8406
X8.626Y-4.8406
X9.374Y-4.8406
X3.3898Y-3.3445
X4.1378Y-3.3445
X11.0571Y-4.0925
X11.6181Y-1.8484
X3.2028Y-2.5965
X3.9508Y-2.5965
X8.6642Y-4.5098
X10.3091Y-4.0925
X8.439Y-2.5965
X9.374Y-1.8484
X5.6339Y-3.3445
X6.3819Y-3.3445
X7.1299Y-3.3445
X8.813Y-4.0925
X7.3169Y-4.0925
X4.8858Y-4.8406
X5.6339Y-4.8406
X6.3819Y-4.8406
X5.6339Y-1.8484
X7.878Y-1.8484
X8.626Y-1.8484
X3.5768Y-4.0925
X4.3248Y-4.0925
X11.8051Y-4.0925
X10.122Y-3.3445
X8.065Y-4.0925
X10.8701Y-1.8484
X9.374Y-3.3445
X4.1378Y-1.8484
X4.8858Y-1.8484
X6.3819Y-1.8484
X7.1299Y-1.8484
X4.1378Y-4.8406
X6.1949Y-2.5965
X11.6181Y-3.3445
X8.626Y-3.3445
X4.8858Y-3.3445
X4.6988Y-2.5965
X5.4469Y-2.5965
X5.0728Y-4.0925
X6.5689Y-4.0925
X10.8701Y-3.3445
X9.561Y-4.0925
X3.3898Y-4.8406
X6.9429Y-2.5965
X7.6909Y-2.5965
X7.9142Y-4.5098
X7.878Y-3.3445
X7.1681Y-4.5098
X10.6831Y-2.5965
X11.4311Y-2.5965
T4
X3.3787Y-3.1791
X3.8118Y-3.1791
X4.1268Y-3.1791
X4.5598Y-3.1791
X11.0461Y-3.9272
X11.4791Y-3.9272
X11.6071Y-1.6831
X12.0402Y-1.6831
X3.1917Y-2.4311
X3.6248Y-2.4311
X3.9398Y-2.4311
X4.3728Y-2.4311
X8.2421Y-4.6752
X8.6752Y-4.6752
X10.298Y-3.9272
X10.7311Y-3.9272
X8.428Y-2.4311
X8.861Y-2.4311
X9.363Y-1.6831
X9.7961Y-1.6831
X5.6228Y-3.1791
X6.0559Y-3.1791
X6.3709Y-3.1791
X6.8039Y-3.1791
X7.1189Y-3.1791
X7.552Y-3.1791
X8.802Y-3.9272
X9.235Y-3.9272
X7.3059Y-3.9272
X7.739Y-3.9272
X4.8748Y-4.6752
X5.3079Y-4.6752
X5.6228Y-4.6752
X6.0559Y-4.6752
X6.3709Y-4.6752
X6.8039Y-4.6752
X5.6228Y-1.6831
X6.0559Y-1.6831
X7.8669Y-1.6831
X8.3Y-1.6831
X8.615Y-1.6831
X9.048Y-1.6831
X3.5657Y-3.9272
X3.9988Y-3.9272
X4.3138Y-3.9272
X4.7469Y-3.9272
X11.7941Y-3.9272
X12.2272Y-3.9272
X10.111Y-3.1791
X10.5441Y-3.1791
X8.0539Y-3.9272
X8.487Y-3.9272
X10.8591Y-1.6831
X11.2921Y-1.6831
X9.363Y-3.1791
X9.7961Y-3.1791
X4.1268Y-1.6831
X4.5598Y-1.6831
X4.8748Y-1.6831
X5.3079Y-1.6831
X6.3709Y-1.6831
X6.8039Y-1.6831
X7.1189Y-1.6831
X7.552Y-1.6831
X4.1268Y-4.6752
X4.5598Y-4.6752
X6.1839Y-2.4311
X6.6169Y-2.4311
X11.6071Y-3.1791
X12.0402Y-3.1791
X8.615Y-3.1791
X9.048Y-3.1791
X4.8748Y-3.1791
X5.3079Y-3.1791
X4.6878Y-2.4311
X5.1209Y-2.4311
X5.4358Y-2.4311
X5.8689Y-2.4311
X5.0618Y-3.9272
X5.4949Y-3.9272
X6.5579Y-3.9272
X6.9909Y-3.9272
X10.8591Y-3.1791
X11.2921Y-3.1791
X9.55Y-3.9272
X9.9831Y-3.9272
X3.3787Y-4.6752
X3.8118Y-4.6752
X6.9319Y-2.4311
X7.365Y-2.4311
X7.6799Y-2.4311
X8.113Y-2.4311
X7.4921Y-4.6752
X7.9252Y-4.6752
X7.8669Y-3.1791
X8.3Y-3.1791
X6.7461Y-4.6752
X7.1791Y-4.6752
X10.672Y-2.4311
X11.1051Y-2.4311
X11.4201Y-2.4311
X11.8531Y-2.4311
X5.8098Y-3.9272
X6.2429Y-3.9272
X3.3787Y-1.6831
X3.8118Y-1.6831
X10.111Y-1.6831
X10.5441Y-1.6831
X9.176Y-2.4311
X9.6091Y-2.4311
X9.924Y-2.4311
X10.3571Y-2.4311
X10.111Y-4.6752
X10.5441Y-4.6752
X10.8591Y-4.6752
X11.2921Y-4.6752
X11.6071Y-4.6752
X12.0402Y-4.6752
X7.1189Y-4.6752
X7.552Y-4.6752
X7.8669Y-4.6752
X8.3Y-4.6752
X8.615Y-4.6752
X9.048Y-4.6752
X9.363Y-4.6752
X9.7961Y-4.6752
T5
X8.6315Y-3.1791
X9.0315Y-3.1791
X4.8913Y-3.1791
X5.2913Y-3.1791
X4.7043Y-2.4311
X5.1043Y-2.4311
X5.4524Y-2.4311
X5.8524Y-2.4311
X5.0783Y-3.9272
X5.4783Y-3.9272
X6.5744Y-3.9272
X6.9744Y-3.9272
X10.8756Y-3.1791
X11.2756Y-3.1791
X9.5665Y-3.9272
X9.9665Y-3.9272
X3.3953Y-4.6752
X3.7953Y-4.6752
X6.9484Y-2.4311
X7.3484Y-2.4311
X7.6965Y-2.4311
X8.0965Y-2.4311
X7.5087Y-4.6752
X7.9087Y-4.6752
X7.8835Y-3.1791
X8.2835Y-3.1791
X6.7626Y-4.6752
X7.1626Y-4.6752
X10.6886Y-2.4311
X11.0886Y-2.4311
X11.4366Y-2.4311
X11.8366Y-2.4311
X5.8264Y-3.9272
X6.2264Y-3.9272
X3.3953Y-1.6831
X3.7953Y-1.6831
X10.1276Y-1.6831
X10.5276Y-1.6831
X9.1925Y-2.4311
X9.5925Y-2.4311
X9.9406Y-2.4311
X10.3406Y-2.4311
X10.1276Y-4.6752
X10.5276Y-4.6752
X10.8756Y-4.6752
X11.2756Y-4.6752
X11.6236Y-4.6752
X12.0236Y-4.6752
X7.1354Y-4.6752
X7.5354Y-4.6752
X7.8835Y-4.6752
X8.2835Y-4.6752
X8.6315Y-4.6752
X9.0315Y-4.6752
X9.3795Y-4.6752
X9.7795Y-4.6752
X3.3953Y-3.1791
X3.7953Y-3.1791
X4.1433Y-3.1791
X4.5433Y-3.1791
X11.0626Y-3.9272
X11.4626Y-3.9272
X11.6236Y-1.6831
X12.0236Y-1.6831
X3.2083Y-2.4311
X3.6083Y-2.4311
X3.9563Y-2.4311
X4.3563Y-2.4311
X8.2587Y-4.6752
X8.6587Y-4.6752
X10.3146Y-3.9272
X10.7146Y-3.9272
X8.4445Y-2.4311
X8.8445Y-2.4311
X9.3795Y-1.6831
X9.7795Y-1.6831
X5.6394Y-3.1791
X6.0394Y-3.1791
X6.3874Y-3.1791
X6.7874Y-3.1791
X7.1354Y-3.1791
X7.5354Y-3.1791
X8.8185Y-3.9272
X9.2185Y-3.9272
X7.3224Y-3.9272
X7.7224Y-3.9272
X4.8913Y-4.6752
X5.2913Y-4.6752
X5.6394Y-4.6752
X6.0394Y-4.6752
X6.3874Y-4.6752
X6.7874Y-4.6752
X5.6394Y-1.6831
X6.0394Y-1.6831
X7.8835Y-1.6831
X8.2835Y-1.6831
X8.6315Y-1.6831
X9.0315Y-1.6831
X3.5823Y-3.9272
X3.9823Y-3.9272
X4.3303Y-3.9272
X4.7303Y-3.9272
X11.8106Y-3.9272
X12.2106Y-3.9272
X10.1276Y-3.1791
X10.5276Y-3.1791
X8.0705Y-3.9272
X8.4705Y-3.9272
X10.8756Y-1.6831
X11.2756Y-1.6831
X9.3795Y-3.1791
X9.7795Y-3.1791
X4.1433Y-1.6831
X4.5433Y-1.6831
X4.8913Y-1.6831
X5.2913Y-1.6831
X6.3874Y-1.6831
X6.7874Y-1.6831
X7.1354Y-1.6831
X7.5354Y-1.6831
X4.1433Y-4.6752
X4.5433Y-4.6752
X6.2004Y-2.4311
X6.6004Y-2.4311
X11.6236Y-3.1791
X12.0236Y-3.1791
T6
X7.2387Y-4.9502
X8.1787Y-4.9502
X6.4926Y-4.9502
X7.4326Y-4.9502
X7.9887Y-4.9502
X8.9287Y-4.9502
T7
X5.8394Y-1.6831
X8.0835Y-1.6831
X8.8315Y-1.6831
X3.7823Y-3.9272
X4.5303Y-3.9272
X12.0106Y-3.9272
X10.3276Y-3.1791
X8.2705Y-3.9272
X11.0756Y-1.6831
X9.5795Y-3.1791
X4.3433Y-1.6831
X5.0913Y-1.6831
X6.5874Y-1.6831
X7.3354Y-1.6831
X4.3433Y-4.6752
X6.4004Y-2.4311
X11.8236Y-3.1791
X8.8315Y-3.1791
X5.0913Y-3.1791
X4.9043Y-2.4311
X5.6524Y-2.4311
X5.2783Y-3.9272
X6.7744Y-3.9272
X11.0756Y-3.1791
X9.7665Y-3.9272
X3.5953Y-4.6752
X7.1484Y-2.4311
X7.8965Y-2.4311
X7.2387Y-4.3502
X7.7087Y-4.6752
X8.1787Y-4.3502
X8.0835Y-3.1791
X6.4926Y-4.3502
X6.9626Y-4.6752
X7.4326Y-4.3502
X10.8886Y-2.4311
X11.6366Y-2.4311
X6.0264Y-3.9272
X3.5953Y-1.6831
X10.3276Y-1.6831
X9.3925Y-2.4311
X10.1406Y-2.4311
X10.3276Y-4.6752
X11.0756Y-4.6752
X11.8236Y-4.6752
X7.3354Y-4.6752
X8.0835Y-4.6752
X8.8315Y-4.6752
X9.5795Y-4.6752
X3.5953Y-3.1791
X4.3433Y-3.1791
X11.2626Y-3.9272
X11.8236Y-1.6831
X3.4083Y-2.4311
X4.1563Y-2.4311
X7.9887Y-4.3502
X8.4587Y-4.6752
X8.9287Y-4.3502
X10.5146Y-3.9272
X8.6445Y-2.4311
X9.5795Y-1.6831
X5.8394Y-3.1791
X6.5874Y-3.1791
X7.3354Y-3.1791
X9.0185Y-3.9272
X7.5224Y-3.9272
X5.0913Y-4.6752
X5.8394Y-4.6752
X6.5874Y-4.6752
T0
M30
