G04 #@! TF.GenerationSoftware,KiCad,Pcbnew,(5.1.5-0-10_14)*
G04 #@! TF.CreationDate,2020-01-18T18:56:08-08:00*
G04 #@! TF.ProjectId,BRZ60_BLE_0.1,42525a36-305f-4424-9c45-5f302e312e6b,rev?*
G04 #@! TF.SameCoordinates,Original*
G04 #@! TF.FileFunction,Paste,Bot*
G04 #@! TF.FilePolarity,Positive*
%FSLAX46Y46*%
G04 Gerber Fmt 4.6, Leading zero omitted, Abs format (unit mm)*
G04 Created by KiCad (PCBNEW (5.1.5-0-10_14)) date 2020-01-18 18:56:08*
%MOMM*%
%LPD*%
G04 APERTURE LIST*
%ADD10R,1.200000X1.600000*%
%ADD11R,1.700000X1.000000*%
%ADD12R,1.000000X3.500000*%
%ADD13R,1.500000X3.400000*%
%ADD14R,1.000000X0.800000*%
%ADD15R,0.700000X1.500000*%
G04 APERTURE END LIST*
D10*
X170820001Y-70150001D03*
X170820001Y-67350001D03*
D11*
X200050000Y-33850000D03*
X193750000Y-33850000D03*
X200050000Y-37650000D03*
X193750000Y-37650000D03*
D12*
X265750000Y-65800000D03*
X263750000Y-65800000D03*
D13*
X268100000Y-71550000D03*
X261400000Y-71550000D03*
D10*
X137570001Y-44150001D03*
X137570001Y-41350001D03*
X99570001Y-44150001D03*
X99570001Y-41350001D03*
X102070001Y-44150001D03*
X102070001Y-41350001D03*
X140070001Y-44150001D03*
X140070001Y-41350001D03*
X175570001Y-44150001D03*
X175570001Y-41350001D03*
X178070001Y-44150001D03*
X178070001Y-41350001D03*
X213570001Y-44150001D03*
X213570001Y-41350001D03*
X216070001Y-44150001D03*
X216070001Y-41350001D03*
X251570001Y-44150001D03*
X251570001Y-41350001D03*
X254070001Y-44150001D03*
X254070001Y-41350001D03*
X289570001Y-44150001D03*
X289570001Y-41350001D03*
X292070001Y-44150001D03*
X292070001Y-41350001D03*
X94820001Y-63150001D03*
X94820001Y-60350001D03*
X97320001Y-63150001D03*
X97320001Y-60350001D03*
X132820001Y-63150001D03*
X132820001Y-60350001D03*
X135320001Y-63150001D03*
X135320001Y-60350001D03*
X173320001Y-70150001D03*
X173320001Y-67350001D03*
X227820001Y-63150001D03*
X227820001Y-60350001D03*
X230320001Y-63150001D03*
X230320001Y-60350001D03*
X246820001Y-63150001D03*
X246820001Y-60350001D03*
X249320001Y-63150001D03*
X249320001Y-60350001D03*
X284820001Y-63150001D03*
X284820001Y-60350001D03*
X287320001Y-63150001D03*
X287320001Y-60350001D03*
X99570001Y-82150001D03*
X99570001Y-79350001D03*
X102070001Y-82150001D03*
X102070001Y-79350001D03*
X137570001Y-82150001D03*
X137570001Y-79350001D03*
X140070001Y-82150001D03*
X140070001Y-79350001D03*
X175570001Y-82150001D03*
X175570001Y-79350001D03*
X178070001Y-82150001D03*
X178070001Y-79350001D03*
X213570001Y-82150001D03*
X213570001Y-79350001D03*
X216070001Y-82150001D03*
X216070001Y-79350001D03*
X251570001Y-82150001D03*
X251570001Y-79350001D03*
X254070001Y-82150001D03*
X254070001Y-79350001D03*
X289570001Y-82150001D03*
X289570001Y-79350001D03*
X292070001Y-82150001D03*
X292070001Y-79350001D03*
X104320001Y-101150001D03*
X104320001Y-98350001D03*
X106820001Y-101150001D03*
X106820001Y-98350001D03*
X142320001Y-101150001D03*
X142320001Y-98350001D03*
X144820001Y-101150001D03*
X144820001Y-98350001D03*
X180320001Y-101150001D03*
X180320001Y-98350001D03*
X182820001Y-101150001D03*
X182820001Y-98350001D03*
X218320001Y-101150001D03*
X218320001Y-98350001D03*
X220820001Y-101150001D03*
X220820001Y-98350001D03*
X256320001Y-101150001D03*
X256320001Y-98350001D03*
X258820001Y-101150001D03*
X258820001Y-98350001D03*
X294320001Y-101150001D03*
X294320001Y-98350001D03*
X296820001Y-101150001D03*
X296820001Y-98350001D03*
X99570001Y-120150001D03*
X99570001Y-117350001D03*
X102070001Y-120150001D03*
X102070001Y-117350001D03*
X137570001Y-120150001D03*
X137570001Y-117350001D03*
X140070001Y-120150001D03*
X140070001Y-117350001D03*
X175570001Y-113050001D03*
X175570001Y-110250001D03*
X178070001Y-113050001D03*
X178070001Y-110250001D03*
X213570001Y-113050001D03*
X213570001Y-110250001D03*
X216070001Y-113050001D03*
X216070001Y-110250001D03*
X251570001Y-120150001D03*
X251570001Y-117350001D03*
X254070001Y-120150001D03*
X254070001Y-117350001D03*
X289570001Y-120150001D03*
X289570001Y-117350001D03*
X292070001Y-120150001D03*
X292070001Y-117350001D03*
D14*
X268250000Y-35680000D03*
X275550000Y-35680000D03*
X275550000Y-33470000D03*
X268250000Y-33470000D03*
D15*
X274150000Y-36330000D03*
X272650000Y-36330000D03*
X269650000Y-36330000D03*
M02*
